<svg viewBox="0 0 1726.354248046875 400.0000305175781" xmlns="http://www.w3.org/2000/svg"><g><g><g><g><g><line x1="58.515625" y1="364" x2="53.515625" y2="364" style="visibility: inherit;" fill="rgb(0, 0, 0)" stroke="rgb(204, 204, 204)" stroke-width="1px"></line><line x1="58.515625" y1="323.5555555555557" x2="53.515625" y2="323.5555555555557" style="visibility: inherit;" fill="rgb(0, 0, 0)" stroke="rgb(204, 204, 204)" stroke-width="1px"></line><line x1="58.515625" y1="283.11111111111126" x2="53.515625" y2="283.11111111111126" style="visibility: inherit;" fill="rgb(0, 0, 0)" stroke="rgb(204, 204, 204)" stroke-width="1px"></line><line x1="58.515625" y1="242.66666666666674" x2="53.515625" y2="242.66666666666674" style="visibility: inherit;" fill="rgb(0, 0, 0)" stroke="rgb(204, 204, 204)" stroke-width="1px"></line><line x1="58.515625" y1="202.22222222222226" x2="53.515625" y2="202.22222222222226" style="visibility: inherit;" fill="rgb(0, 0, 0)" stroke="rgb(204, 204, 204)" stroke-width="1px"></line><line x1="58.515625" y1="161.77777777777777" x2="53.515625" y2="161.77777777777777" style="visibility: inherit;" fill="rgb(0, 0, 0)" stroke="rgb(204, 204, 204)" stroke-width="1px"></line><line x1="58.515625" y1="121.33333333333326" x2="53.515625" y2="121.33333333333326" style="visibility: inherit;" fill="rgb(0, 0, 0)" stroke="rgb(204, 204, 204)" stroke-width="1px"></line><line x1="58.515625" y1="80.88888888888903" x2="53.515625" y2="80.88888888888903" style="visibility: inherit;" fill="rgb(0, 0, 0)" stroke="rgb(204, 204, 204)" stroke-width="1px"></line><line x1="58.515625" y1="40.444444444444514" x2="53.515625" y2="40.444444444444514" style="visibility: inherit;" fill="rgb(0, 0, 0)" stroke="rgb(204, 204, 204)" stroke-width="1px"></line><line x1="58.515625" y1="0" x2="53.515625" y2="0" style="visibility: inherit;" fill="rgb(0, 0, 0)" stroke="rgb(204, 204, 204)" stroke-width="1px"></line></g><g transform="translate(48.515625, 0)"><text x="0" y="364" dx="0em" dy="0.3em" style="text-anchor: end; visibility: hidden; font-family: &quot;Helvetica Neue&quot;, sans-serif; font-size: 12px; font-weight: 200;" fill="rgb(50, 49, 63)" stroke="none" stroke-width="1px">0.800</text><text x="0" y="323.5555555555557" dx="0em" dy="0.3em" style="text-anchor: end; visibility: inherit; font-family: &quot;Helvetica Neue&quot;, sans-serif; font-size: 12px; font-weight: 200;" fill="rgb(50, 49, 63)" stroke="none" stroke-width="1px">0.820</text><text x="0" y="283.11111111111126" dx="0em" dy="0.3em" style="text-anchor: end; visibility: inherit; font-family: &quot;Helvetica Neue&quot;, sans-serif; font-size: 12px; font-weight: 200;" fill="rgb(50, 49, 63)" stroke="none" stroke-width="1px">0.840</text><text x="0" y="242.66666666666674" dx="0em" dy="0.3em" style="text-anchor: end; visibility: inherit; font-family: &quot;Helvetica Neue&quot;, sans-serif; font-size: 12px; font-weight: 200;" fill="rgb(50, 49, 63)" stroke="none" stroke-width="1px">0.860</text><text x="0" y="202.22222222222226" dx="0em" dy="0.3em" style="text-anchor: end; visibility: inherit; font-family: &quot;Helvetica Neue&quot;, sans-serif; font-size: 12px; font-weight: 200;" fill="rgb(50, 49, 63)" stroke="none" stroke-width="1px">0.880</text><text x="0" y="161.77777777777777" dx="0em" dy="0.3em" style="text-anchor: end; visibility: inherit; font-family: &quot;Helvetica Neue&quot;, sans-serif; font-size: 12px; font-weight: 200;" fill="rgb(50, 49, 63)" stroke="none" stroke-width="1px">0.900</text><text x="0" y="121.33333333333326" dx="0em" dy="0.3em" style="text-anchor: end; visibility: inherit; font-family: &quot;Helvetica Neue&quot;, sans-serif; font-size: 12px; font-weight: 200;" fill="rgb(50, 49, 63)" stroke="none" stroke-width="1px">0.920</text><text x="0" y="80.88888888888903" dx="0em" dy="0.3em" style="text-anchor: end; visibility: inherit; font-family: &quot;Helvetica Neue&quot;, sans-serif; font-size: 12px; font-weight: 200;" fill="rgb(50, 49, 63)" stroke="none" stroke-width="1px">0.940</text><text x="0" y="40.444444444444514" dx="0em" dy="0.3em" style="text-anchor: end; visibility: inherit; font-family: &quot;Helvetica Neue&quot;, sans-serif; font-size: 12px; font-weight: 200;" fill="rgb(50, 49, 63)" stroke="none" stroke-width="1px">0.960</text><text x="0" y="0" dx="0em" dy="0.3em" style="text-anchor: end; visibility: hidden; font-family: &quot;Helvetica Neue&quot;, sans-serif; font-size: 12px; font-weight: 200;" fill="rgb(50, 49, 63)" stroke="none" stroke-width="1px">0.980</text></g><line x1="58.515625" y1="0" x2="58.515625" y2="364" fill="rgb(0, 0, 0)" stroke="rgb(204, 204, 204)" stroke-width="1px"></line></g></g><g transform="translate(58, 0)" clip-path="url(#clip_0)"><clipPath id="clip_0"><rect width="1667" height="363"></rect></clipPath><g><g><g><line x1="0" y1="0" x2="0" y2="364" fill="rgb(0, 0, 0)" stroke="rgb(60, 60, 60)" stroke-width="1px" opacity="0.25"></line><line x1="208.479296875" y1="0" x2="208.479296875" y2="364" fill="rgb(0, 0, 0)" stroke="rgb(60, 60, 60)" stroke-width="1px" opacity="0.25"></line><line x1="416.95859375" y1="0" x2="416.95859375" y2="364" fill="rgb(0, 0, 0)" stroke="rgb(60, 60, 60)" stroke-width="1px" opacity="0.25"></line><line x1="625.4378906249999" y1="0" x2="625.4378906249999" y2="364" fill="rgb(0, 0, 0)" stroke="rgb(60, 60, 60)" stroke-width="1px" opacity="0.25"></line><line x1="833.9171875" y1="0" x2="833.9171875" y2="364" fill="rgb(0, 0, 0)" stroke="rgb(60, 60, 60)" stroke-width="1px" opacity="0.25"></line><line x1="1042.396484375" y1="0" x2="1042.396484375" y2="364" fill="rgb(0, 0, 0)" stroke="rgb(60, 60, 60)" stroke-width="1px" opacity="0.25"></line><line x1="1250.8757812499998" y1="0" x2="1250.8757812499998" y2="364" fill="rgb(0, 0, 0)" stroke="rgb(60, 60, 60)" stroke-width="1px" opacity="0.25"></line><line x1="1459.3550781249999" y1="0" x2="1459.3550781249999" y2="364" fill="rgb(0, 0, 0)" stroke="rgb(60, 60, 60)" stroke-width="1px" opacity="0.25"></line><line x1="1667.834375" y1="0" x2="1667.834375" y2="364" fill="rgb(0, 0, 0)" stroke="rgb(60, 60, 60)" stroke-width="1px" opacity="0.25"></line></g><g><line x1="0" y1="364" x2="1667.834375" y2="364" fill="rgb(0, 0, 0)" stroke="rgb(60, 60, 60)" stroke-width="1px" opacity="0.25"></line><line x1="0" y1="323.5555555555557" x2="1667.834375" y2="323.5555555555557" fill="rgb(0, 0, 0)" stroke="rgb(60, 60, 60)" stroke-width="1px" opacity="0.25"></line><line x1="0" y1="283.11111111111126" x2="1667.834375" y2="283.11111111111126" fill="rgb(0, 0, 0)" stroke="rgb(60, 60, 60)" stroke-width="1px" opacity="0.25"></line><line x1="0" y1="242.66666666666674" x2="1667.834375" y2="242.66666666666674" fill="rgb(0, 0, 0)" stroke="rgb(60, 60, 60)" stroke-width="1px" opacity="0.25"></line><line x1="0" y1="202.22222222222226" x2="1667.834375" y2="202.22222222222226" fill="rgb(0, 0, 0)" stroke="rgb(60, 60, 60)" stroke-width="1px" opacity="0.25"></line><line x1="0" y1="161.77777777777777" x2="1667.834375" y2="161.77777777777777" fill="rgb(0, 0, 0)" stroke="rgb(60, 60, 60)" stroke-width="1px" opacity="0.25"></line><line x1="0" y1="121.33333333333326" x2="1667.834375" y2="121.33333333333326" fill="rgb(0, 0, 0)" stroke="rgb(60, 60, 60)" stroke-width="1px" opacity="0.25"></line><line x1="0" y1="80.88888888888903" x2="1667.834375" y2="80.88888888888903" fill="rgb(0, 0, 0)" stroke="rgb(60, 60, 60)" stroke-width="1px" opacity="0.25"></line><line x1="0" y1="40.444444444444514" x2="1667.834375" y2="40.444444444444514" fill="rgb(0, 0, 0)" stroke="rgb(60, 60, 60)" stroke-width="1px" opacity="0.25"></line><line x1="0" y1="0" x2="1667.834375" y2="0" fill="rgb(0, 0, 0)" stroke="rgb(60, 60, 60)" stroke-width="1px" opacity="0.25"></line></g></g></g><g><g><line x1="0" y1="1981.7777777777785" x2="1667.834375" y2="1981.7777777777785" fill="rgb(0, 0, 0)" stroke="rgb(153, 153, 153)" stroke-width="1.5px"></line></g></g><g><g><line x1="-29822754.938671872" y1="0" x2="-29822754.938671872" y2="364" fill="rgb(0, 0, 0)" stroke="rgb(153, 153, 153)" stroke-width="1.5px"></line></g></g><g><g><g><g><g><path stroke="rgb(255, 112, 67)" stroke-width="2px" d="M144.0679772961878,376.4659818504329L145.8773459493996,363.46367443324135L147.65440031159577,354.3234351490611L149.44851909031394,346.53167597101503L151.2852216957827,338.9155120666659L153.02380390624998,333.8159497796537L154.8411256585648,330.0389700936543L156.62787044733795,326.4735038217732L158.91710825249564,325.1267427470723L160.7128871441334,323.8875737268002L162.5171982440321,323.3840881795014L164.2692736978805,323.0895783236804L166.08989637239583,323.3608826079401L167.9140902200521,322.5576006652925L169.7140386976273,321.5843855250566L171.520473197772,321.18328563632457L173.35146192621528,320.1796459418435L175.10041019061055,318.73478619566083L176.8771363909505,318.0492025104406L179.14645284107348,316.9702395052181L180.93198150061485,315.8913989374463L182.76210156532116,315.2978046344117L184.53075884472653,314.6769075618595L186.32841018930844,313.7230587320866L188.1069123243996,312.7278203232454L189.89830929007522,311.91757346833515L191.69121193956164,311.3169182177703L193.4606220608724,310.86699253656093L195.22256167404512,309.92204763872115L218.03444355266203,297.4717460920818L219.8754894768157,293.07233343631464L221.68402807356767,285.71764319875984L223.41890398542387,277.03368842955587L225.2082933726852,270.25034899463105L227.02658030692996,265.31216421210576L228.84625710315393,263.02800348731915L230.65554854181136,262.27642419995647L232.42472701945889,261.60557469495006L234.24106428620516,261.7747328751062L235.99271506000434,261.0551994976305L238.28840028045425,260.1063410959703L240.07445013823786,258.0215782264675L241.84192989568868,256.44807552932093L243.61900356152344,255.22076760712062L245.43167313693573,254.85152892195188L247.2261972920645,254.1545520433494L249.0564910895182,253.25562875984966L250.82897048936633,252.02865335522057L252.64482516514758,251.23572078188346L254.43267026132088,250.3684191210806L256.25275243395544,249.1163495191841L258.49846053407117,247.8116645911016L260.32174711071326,246.3125933600009L262.0987628656322,244.79341384392876L263.8708754963469,243.2883493063165L265.6812672424045,242.3582627906789L267.4650006635561,240.71323673731422L269.25630111103874,239.39653695375213L270.9921035975477,238.08417164667077L272.7611276460865,236.66356410877773L274.57470449251304,235.56140526180243L276.8396969275897,234.64727817668035L278.62063132114434,234.0773951161185L280.40920995558446,233.34570706377096L282.16531986990015,232.1186440046675L283.9845526824363,231.4132628315317L285.77220474222366,230.69819760099162L287.5820173791232,229.9422706961473L289.4168475316478,229.24398265016453L291.1942686629774,228.79396030610906L292.970145503219,227.89128889491482L294.79001533582897,227.05336566279544L297.0274807822627,226.13264858960576L298.8515588080874,225.15719279061108L300.595140660952,224.1210745465047L302.4074627708695,223.2341809446388L304.2139165746528,222.28817980006642L306.02749342107927,221.1771643616344L307.7980810643446,220.2379557723354L309.5594994792752,219.49772801340256L311.33574308865013,218.66474919919554L313.1693185046658,217.766428831312L315.3874224015842,217.19498890160438L317.21121087282984,216.3933249458141L318.94168555508537,215.67882842289217L320.7390280414496,215.00125224206275L322.51561911631944,214.36718686244288L324.274624576425,213.8972633139243L326.08032553830293,213.28683037164194L327.8288105153718,212.8566876725499L329.55254822775606,212.30006384508678L331.39571755215565,211.6935384359041L333.2093909167752,210.93084904336067L335.0535447267433,210.04529207219554L336.81587041268807,209.4268360319595L338.59246148755784,208.79323971036885L340.3757895322989,208.1536930997335L342.17898102115885,207.47036622757713L343.957772710829,206.72181466232084L345.76401417458766,206.03754631353289L347.56073894451674,205.4233313329061L349.3276395928096,204.7866868770344L351.0945016338252,203.9990797345243L352.8938903058811,203.1829940129627L355.1445594411169,202.44248755801894L356.94234591116896,201.80074925969862L358.75806546148,201.20019177977073L360.52400092784285,200.53365313175965L362.3299721406612,199.82453654373535L364.10548221176936,199.24251724314948L365.93193458514173,198.56955177604533L367.7326745118996,197.87851625493798L369.5143810509982,197.3112026772926L371.28384908322477,196.6922849396751L373.5722761355613,196.13907284351842L375.387435880353,195.51820187125864L377.1865349978299,194.93508256752506L378.95447804260704,194.3393701709063L380.78772529676644,193.66812083436875L382.5616524695095,193.06263331825505L384.35787534483507,192.45480175965014L386.1353350834418,191.8339443136433L387.90179174804683,191.2009803305904L389.69554375763164,190.59932325321813L391.5114177370515,190.15217141995547L393.7134417030165,189.63553240180528L395.55313637246815,189.17208530937614L397.33685048998115,188.64986371326114L399.1339227254051,188.23296808265926L400.9194127776692,187.86841998601597L402.7271599252387,187.42679995625673L404.4731547329282,187.06385803551487L406.26146311642793,186.59803424608657L408.08347565292246,186.130121478099L409.8290650842014,185.73477024488474L412.1143842507234,185.3465065001618L413.87008878862844,184.97054690885906L415.6723150955584,184.62395518151598L417.4817995706018,184.21186403840736L419.2499742590422,183.7735391137929L421.03905478808593,183.2136934247374L422.82101227448635,182.6488199341351L424.59393565802225,182.15763749660712L426.3800434267216,181.61385691287433L428.2037739870515,181.06821697890823L429.9935687507234,180.51369905568515L432.23987526363567,179.9876520268628L434.05466823929396,179.49238017858798L435.8796149288556,179.06518516603805L437.64601368254483,178.72290342580825L439.48545740469467,178.40008621069057L441.25365139677365,178.13822194329273L443.0632903009259,177.77257984447633L444.83744911733214,177.39264351401954L446.6651176199363,176.9849416576943L448.4233702381366,176.52234715268418L450.2874840104167,176.107381875256L452.0782439560185,175.66670569409627L453.8904309404658,175.23625257125633L455.72846549699796,174.81540465792034L457.50262431340417,174.38792899182116L459.263212671875,173.93738411424968L461.0490308859953,173.50452936160946L462.8240969734158,173.03643761225263L464.6458006516927,172.61528117612292L466.4306150766059,172.22199664672038L468.233362581778,171.83685325214503L470.50065214984807,171.48460660223373L472.32175741532836,171.17634940716806L474.1140809556568,170.8283369151477L475.9242410580512,170.47358704983878L477.6765867628399,170.13133200302195L479.4894493746383,169.80274517976588L481.2520260078848,169.52382293064733L483.030624661169,169.21727710596315L484.8399354034649,168.81826903203068L486.5616655374349,168.44391450352813L488.77585079571753,168.00846399837485L490.61541033969905,167.61132795397683L492.4269216967954,167.2302860505436L494.21631108405666,166.87408789517812L496.00442643117043,166.57478997753788L497.7995296954572,166.32014275313782L499.59422758333335,166.0250280635174L501.38350114876295,165.77260149472002L503.161964676577,165.47809599543785L504.9424550864439,165.16210379358571L506.820062102105,164.8789260012626L509.05685192118773,164.59615144070298L510.84056603870073,164.28661923966595L512.6327351499203,164.01503161341378L514.4485512184244,163.78313368277674L516.2893268916376,163.54949639602006L518.0698366051432,163.31785294828907L519.9310162243561,163.00549100820413L521.6367436419271,162.7174039833132L523.4445680040509,162.4192447912127L525.271271324725,162.16484688032267L527.5321327811415,161.87889770983136L529.3268306690176,161.56403758185854L531.129423745081,161.27025706670003L532.8727546506437,160.99177606364884L534.6855400478877,160.65815791232544L536.4970321013454,160.3650795398079L538.3093349076244,160.03528669940968L540.1072178958694,159.73317333274937L541.9163162981409,159.454321118146L543.7100103968099,159.15360293835724L545.5295520675636,158.87293609145812L547.8032890509259,158.5973090817343L549.6042799249855,158.31752215761816L551.3932639358362,158.0805117941234L553.2544628586878,157.84245706867515L555.0507822522063,157.5662655959143L556.8421020033276,157.29057563918536L558.6148709577545,157.0179347635635L560.4350882558593,156.78014960800238L562.2253656104963,156.52716594684904L564.0370313967014,156.26091681833984L566.3076025833333,155.97812640020805L568.1126858287761,155.74124248169906L569.9198345635489,155.51628127766142L571.6912136559968,155.20985722518813L573.5129366379123,154.93198640067814L575.3290229573568,154.70547912271493L577.1134899167752,154.48640640826022L578.9086510919776,154.23635748377035L580.6949712007016,153.98271724260863L582.4876229028863,153.74582191711877L584.302300056713,153.55002305749787L586.5676206536458,153.3298971259552L588.3593650848162,153.1012498566548L590.145839622649,152.8779521217701L591.9424099634693,152.65704447744167L593.7575890118995,152.45796521270316L595.535164572338,152.2416566622762L597.3025671152343,152.072914995833L599.1478791435185,151.9069674321515L600.90404696875,151.76482634263917L602.6951736834852,151.53678141213734L765.370835496781,128.38339146216427L767.2547161949869,111.99481244230097L768.9749599487847,102.66405006388459L770.7735764752965,102.13717437138615L772.5522330394965,101.99886047254267L774.2977645598596,101.73188928411543L776.1340231816406,102.10485183981734L777.8680883406756,101.56589125135815L779.6467062975984,100.37462305681794L781.4769421841362,99.41739627315752L783.2021276694155,99.05818899561774L785.5752204806496,99.00109430472605L787.3578149871238,99.49149717680956L789.1319544998914,99.95299165257563L790.9440063588686,100.30934424352574L792.6749057211732,100.48974381842032L794.4200125614873,100.19549697413743L796.238202977539,99.47726980313496L797.998636906901,99.3214399305869L799.7912886090857,99.02915760272748L801.5673777893518,99.2974491540233L803.329491135272,99.19758886107331L805.6896891159216,98.99047676329923L807.4216694819878,99.21069521138804L809.2639315353732,99.10643531870028L811.0167791347656,98.99971578513305L812.79757840285,98.83549633950156L814.614070098705,98.78474428519371L816.4064901572266,99.26342798099427L818.1657851719111,99.47884824503092L819.9094249356915,99.636257107826L821.7013624032479,99.88286434159977L824.0487041605902,99.84814759818494L825.8494247837094,99.76348283194847L827.6535814544994,99.47407518806074L829.4517539973234,99.35332084949681L831.2503512201968,99.26206496775342L833.0397792147352,99.28189777717449L834.8308673221932,99.20219174654562L836.6158747834924,99.13744517742356L838.3899563853444,99.20775267892998L840.1973946746962,99.08369691155053L841.9546821109664,98.92710758767885L844.2449623126084,98.88792456898511L846.0281359282408,98.90110525781625L847.7975074422742,98.94522203581357L849.5526328710214,99.03957675973027L851.3414817564019,99.08837900142868L853.1132469216218,99.18650927426341L854.8999144958404,99.12466074661239L856.6732046485098,99.09314440006835L858.5025718713107,99.02529785423371L860.2695304305195,98.98888093133758L862.5606792958984,99.14310660700016L864.3446829679905,99.09167639723114L866.1133981583116,99.0689181452301L867.8961277902561,98.96920203425987L869.6713869140624,98.89784933284034L871.442013164605,98.8315095069645L873.2342015794633,98.64720964738888L874.9956972089482,98.56459358187686L876.8208176312572,98.59481734280416L878.6011922192924,98.56295416368482L880.3338096054325,98.4872817797932L882.6475630316116,98.42317149792274L884.4023602985025,98.2182239928427L886.2690221510778,97.99053569202442L888.0343012937282,97.7784203159037L889.8184014840133,97.6301782025563L891.5876378725766,97.52657601994275L893.3686494806857,97.42140823725737L895.1342953924697,97.25218957736405L896.9031264046224,97.01397301002925L898.6773238283057,96.68672272576305L900.9715805794993,96.37384044138628L902.7808913217955,96.27892212541377L904.5854147617187,96.25379206885435L906.3946289858218,96.17960424114995L908.1775516541521,96.08697443671201L909.9647211229744,96.09653303967889L911.7195569971425,96.05039043792283L913.5085796152704,95.97858949244926L915.3111147804179,95.76203662664909L917.0817796382378,95.59314837098174L918.8496068611834,95.52677023037296L921.1185372385344,95.45242245503027L922.8693579558737,95.43047415122038L924.6669706931785,95.35289188632811L926.4614562410301,95.29776051818334L928.230132824074,95.25875143250568L929.996010379521,95.18269680100451L931.8204165672018,95.17534556880281L933.5638053836806,95.08294512831645L935.3334857559316,95.02509418728062L937.1277975710359,94.99178181517044L938.8516511052517,94.95921065929957L941.1536293118851,94.98436191261533L942.9478639124349,94.98836355158124L944.7199765431495,95.09167546347516L946.5044628062066,95.0851511775399L948.2994502486617,95.07236531555981L950.1037227412831,95.01975878385889L951.8634424360171,94.95328826558182L953.6638155936414,94.93042533242965L955.4474911038773,94.7758276236047L957.1759389040799,94.74087702663672L959.545557060366,94.66378611384982L961.2933278028066,94.60297107864244L963.0741270708911,94.60322077110055L964.8764885032913,94.55525347876028L966.6375015418113,94.4851058904245L968.4452293857422,94.42440691295741L970.2314143689958,94.39555705145432L972.0010368303313,94.31653380989951L973.7804269327979,94.17341599821992L975.5455902536169,94.08537570214241L977.3492643334419,94.06360104096177L979.1905998121744,94.09137310830113L980.9909729697988,94.05914782433115L982.7317944023437,94.0048578411575L984.5161841472078,93.99373887427708L986.2803050715422,93.97351949084617L988.0414146282551,93.9771054731604L989.8302828172742,93.9788713542697L991.6311964767795,93.93624942032955L993.3948348101491,93.83401673949822L995.1860194358,93.80228024141877L996.906243885959,93.71250908689501L999.2125461076389,93.64442340138976L1001.0021671385632,93.54378720682928L1002.7672146375505,93.5287744264196L1004.5676650097294,93.45294279882336L1006.3619189139177,93.30354365458845L1008.1724650890842,93.1652084978137L1009.9135953798466,93.10322850495834L1011.7038534308449,93.0776599711528L1013.4889767139756,93.03421036003135L1015.2462641502459,92.99333903814863L1017.6095314094329,92.8769694610632L1019.3785747616101,92.80912446974219L1021.1603585152633,92.79209032057827L1022.9003498913482,92.72386894861313L1024.7076916625072,92.71393742836517L1026.4958842241751,92.68372710816936L1028.2707379715712,92.6461226479583L1030.0661307904368,92.64472571364627L1031.8353864826388,92.60073643933703L1033.5956273756146,92.55332177354154L1035.380055727756,92.53432282690181L1037.6977470962095,92.51737890240588L1039.4116785601852,92.53382641896496L1041.2565852120586,92.51982922913231L1043.0391990221715,92.4931579855114L1044.864782731807,92.4618715487801L1046.5923039573568,92.46084226757927L1048.352815101273,92.45636761606784L1050.1715846264829,92.46178269902168L1051.931149892108,92.48995814632963L1053.7455374913557,92.48521553755103L1056.0688848259188,92.44360629023635L1057.882712619647,92.35229891784547L1059.631043167607,92.29182529729479L1061.4147765887587,92.23100043570781L1063.2082969546802,92.15255974340567L1064.9994815803313,92.12265934644353L1066.7920560679615,92.0621465569626L1068.5893985543257,91.96359520973783L1070.3559517371236,91.84844027386646L1072.1259602712312,91.75625302913392L1073.9167395204718,91.63430957708317L1076.2011514159794,91.55082580938733L1078.0073156651838,91.53188149230573L1079.785566852973,91.47774949661363L1081.5805929027053,91.4071333931044L1083.3524931933955,91.3408498176957L1085.08904852181,91.22244339705327L1086.8626668363352,91.09956999466658L1088.622830514757,91.00800694532694L1090.4014098644025,90.88942724967495L1092.213982921622,90.76813735600348L1094.4673545662615,90.68109221347453L1096.3231484703051,90.59121035721199L1098.0956278701533,90.58848401750248L1099.8770255510344,90.52672593567502L1101.6227887150608,90.42940416797234L1103.3767752291303,90.34184191874527L1105.1380199113137,90.21462180367234L1106.9176995683592,90.16808569918726L1108.7683587045356,90.15269955556641L1110.5131952939091,90.13633226623108L1112.2546923538048,90.10606935383856L1114.5831937598741,90.04760509123912L1116.3503453554688,89.98200736609749L1118.186546066334,89.9247615095702L1119.9452040609447,89.8832301789559L1121.6957545273438,89.82947968672585L1123.472905407733,89.77129050961997L1125.2582603345268,89.6964561964715L1127.0820295021338,89.57701748365025L1128.8221946109663,89.46321562646807L1130.605773603009,89.3595939910881L1132.9225383968098,89.256439505208L1134.7307102244285,89.18625408567965L1136.5221071901042,89.12876271633417L1138.2645501282914,89.0668343933774L1140.0199458079787,89.0403808043477L1141.8191414436487,88.97378801223107L1143.6436055422453,88.91560762077467L1145.4031128969543,88.85013200478375L1147.1838542541232,88.78895769035114L1148.9508128133318,88.69150404773654L1150.7334845343605,88.56958285025917L1153.0590131800852,88.5159083998663L1154.8664321657986,88.4856804845607L1156.5993584101561,88.448885097377L1158.3979942403066,88.40188146753115L1160.1603006226128,88.3254175412037L1161.9205029083114,88.27409105596541L1163.6980977723886,88.23389352551993L1165.4476251459419,88.2058214973921L1167.237361998698,88.14245221935153L1168.9874105704932,88.06610089229349L1170.7880153717808,88.0008600415L1173.0962093500434,87.93206420706963L1174.8560641702472,87.8937277320394L1176.6812811107493,87.84059238771823L1178.4312910752676,87.79656137033442L1180.217398843967,87.76946777041559L1182.0284662173756,87.72211388046355L1183.7691525244502,87.6784660694687L1185.567286459997,87.58853908975397L1187.3723310981625,87.50305125011027L1189.1239625683231,87.45079427562621L1191.4616138990884,87.41341339907535L1193.23639043193,87.39865082519128L1195.0753515631147,87.32856209155693L1196.8523480143951,87.23159363514247L1198.6083228032405,87.17524467561952L1200.440759304579,87.1214748964635L1202.2087409566334,87.0561385440385L1203.994539867115,86.98501937248972L1205.7947585956306,86.93699616718845L1207.5706354358724,86.88523260140204L1209.357978637442,86.83927647965095L1211.1986577924624,86.78021936832045L1212.9856728321759,86.70375538333485L1214.7928794778645,86.6561413050876L1216.5789100320094,86.594980508557L1218.3523160065104,86.5714945391972L1220.1152401052516,86.52698021706897L1221.880866713397,86.48195048053566L1223.713110178349,86.42619737182423L1225.5065340260778,86.37182083245744L1227.2899392853733,86.31214711576666L1229.5875741733216,86.26385558021707L1231.3984678139827,86.20074547618879L1233.1843632426578,86.17613813586519L1234.9686757729671,86.18268411409014L1236.7683539996021,86.17156907814098L1238.5308727219328,86.1499538607572L1240.328408244683,86.15270234269923L1242.1289165277776,86.1244590402361L1243.9118198924696,86.08032062508289L1245.710880402669,86.01859348199014L1247.4770668163337,85.9750001553902L1249.8182507129627,85.93630864036004L1251.5981620136718,85.8838763292016L1253.3465697761862,85.86461496683239L1255.18278979069,85.8312656316429L1256.9356373900825,85.79375451736587L1258.7289068087023,85.72505928238013L1260.549317143193,85.67347623138824L1262.3481460097294,85.63847646386279L1264.1085799390912,85.5866199410213L1265.8816770553747,85.5428258676414L1461.4406818465711,80.08621077598315L1462.085693626736,81.07426999128586L1462.6636638700447,80.52507151964681L1463.1998031285084,80.24747841373443L1463.805049413158,78.3235392036296L1464.353079712999,77.66514831092832L1464.9304901507885,77.12041074948957L1465.4936931105685,75.87635392497452L1466.0341949913557,75.25705892175728L1466.609771583478,75.27702403662772L1467.1408146813512,75.55933639565018L1467.7210627540146,75.92741178832466L1468.2817755444155,76.06682436350837L1468.8352687739798,76.54977640453609L1469.413933948278,76.80145893659375L1469.9569259984448,76.88670519424517L1470.5453009029586,77.35268220298633L1471.1108589066478,77.11836033989215L1471.651302876519,76.97005305645393L1472.2342727622251,76.98029214118463L1472.786298915256,76.67806182289826L1473.3838430481046,76.58514725490562L1473.9699401232638,76.28712550131308L1474.5161558810764,75.99853023022433L1475.1265562372323,75.90121295794529L1475.6714207403427,75.92546059337064L1476.2758176648942,75.81851106671587L1476.8716630775461,75.75761987109502L1477.434885340965,75.68058578441912L1478.0632766882957,75.57472518976084L1478.6277536882233,75.51684981654734L1479.2455087306857,75.43863598415288L1479.8932616275317,75.14364904773305L1480.5249925043402,75.01472578016148L1489.4420574080946,70.38924443331376L1490.3953676003327,66.85078358151048L1491.3862812805626,66.01573165488105L1492.3304994590205,66.54092558893024L1493.3629352658781,66.65094157195904L1494.3567830991751,68.4014838571228L1495.364626070457,69.29096887584456L1496.4770947629484,68.71700213663001L1497.458298712963,68.5035700538491L1498.4947882839263,68.35868428050537L1499.5917368509836,68.68711241953343L1500.6454259639395,69.09471780979311L1501.7700945560257,69.05959432808095L1502.7808909840132,68.40538009894397L1503.9133003351778,68.36032650737803L1504.898461531105,68.54095004718818L1505.935568818504,68.45121475623182L1507.0447558924334,68.18542688230337L1508.0536412601996,68.02113280445792L1541.1835689175707,74.7675765459764L1542.1342345113208,78.29666515552492L1543.103161347186,78.27927121008207L1544.039503641095,76.73593371468297L1545.009028889757,74.70487699787986L1545.876013210178,72.90555915364337L1546.8699961689454,72.21235171566957L1547.832823055013,72.7270449032352L1548.8130618230975,72.26907275696396L1549.8114653151042,70.86493562805532L1550.7848705951244,70.02471938684977L1551.8922817343025,70.91328581081399L1552.9023253203848,71.53494571524146L1553.8862703870802,71.58973232765698L1554.9115638476562,71.44074284152032L1555.8963389708115,71.48403279784156L1557.0075529267938,71.12005570148455L1558.0469187399087,70.74078087775916L1559.1263396031177,70.78219929464734L1560.1534283020833,70.9206414329692L1561.6335540953414,71.22987640810788L1562.8569414952258,71.30081382076929L1564.063689158637,71.37182225394832L1565.4099442182073,71.2153054147808L1566.7658317934388,71.0882243992794L1568.131911689851,71.19629613384393L1569.3711280733867,71.3357737265847" style="fill: none;" fill="none"></path></g></g></g></g><g opacity="0.2"><g><g><g><path stroke="rgb(255, 112, 67)" stroke-width="2px" d="M128.96303452115885,526.6789514223736L138.67096949833623,304.082364347246L140.43439549168113,347.53300465477844L142.26312569440827,343.7711435953777L144.0679772961878,342.86991209454015L145.8773459493996,344.0781432787578L147.65440031159577,340.66281700134283L149.44851909031394,334.86947864956335L151.2852216957827,327.50618706809155L153.02380390624998,326.17260069317297L154.8411256585648,324.3761643833585L156.62787044733795,321.1268131997851L158.91710825249564,323.10694307751135L160.7128871441334,322.0290089713203L162.5171982440321,322.6289058791267L164.2692736978805,322.6478296915691L166.08989637239583,323.76783010694726L167.9140902200521,321.35269361072125L169.7140386976273,320.1245743433635L171.520473197772,320.5816386540732L173.35146192621528,318.67419068018603L175.10041019061055,316.5675002733867L176.8771363909505,317.02082803514276L179.14645284107348,315.3517959912619L180.93198150061485,314.2731386820476L182.76210156532116,314.40741337670227L184.53075884472653,313.74556207656866L186.32841018930844,312.2922856012981L188.1069123243996,311.23496278127044L189.89830929007522,310.7022032207914L191.69121193956164,310.4159353574118L193.4606220608724,310.19210402170825L195.22256167404512,308.5046303007339L218.03444355266203,278.796293841468L219.8754894768157,286.4732144673666L221.68402807356767,274.68560785717443L223.41890398542387,264.00775628619726L225.2082933726852,260.07533984714087L227.02658030692996,257.9048870404562L228.84625710315393,259.60176240073315L230.65554854181136,261.1490552690295L232.42472701945889,260.5993004375034L234.24106428620516,262.02847014533154L235.99271506000434,259.9758994314406L238.28840028045425,258.6830534934998L240.07445013823786,254.89443392223785L241.84192989568868,254.08782148361212L243.61900356152344,253.37980572382614L245.43167313693573,254.297670894199L247.2261972920645,253.10908672544696L249.0564910895182,251.90724383460156L250.82897048936633,250.18819024827752L252.64482516514758,250.04632192187844L254.43267026132088,249.0674666298761L256.25275243395544,247.23824511633984L258.49846053407117,245.85463719897805L260.32174711071326,244.0639865133498L262.0987628656322,242.51464456982086L263.8708754963469,241.0307524998983L265.6812672424045,240.96313301722213L267.4650006635561,238.2456976572673L269.25630111103874,237.4214872784085L270.9921035975477,236.11562368604876L272.7611276460865,234.53265280193756L274.57470449251304,233.90816699133984L276.8396969275897,233.2760875489977L278.62063132114434,233.2225705252754L280.40920995558446,232.2481749852499L282.16531986990015,230.27804941601227L283.9845526824363,230.35519107182824L285.77220474222366,229.62559975518127L287.5820173791232,228.8083803388808L289.4168475316478,228.19655058119037L291.1942686629774,228.11892679002554L292.970145503219,226.53728177812368L294.79001533582897,225.79648081461593L297.0274807822627,224.75157297982116L298.8515588080874,223.69400909211905L300.595140660952,222.56689718034536L302.4074627708695,221.90384054183963L304.2139165746528,220.8691780832079L306.02749342107927,219.5106412039863L307.7980810643446,218.82914288838708L309.5594994792752,218.38738637500342L311.33574308865013,217.41528097788498L313.1693185046658,216.41894827948678L315.3874224015842,216.3378290070428L317.21121087282984,215.1908290121291L318.94168555508537,214.60708363850915L320.7390280414496,213.98488797081845L322.51561911631944,213.41608879301288L324.274624576425,213.19237799114654L326.08032553830293,212.37118095821808L327.8288105153718,212.2114736239116L329.55254822775606,211.46512810389206L331.39571755215565,210.78375032213003L333.2093909167752,209.7868149545458L335.0535447267433,208.71695661544803L336.81587041268807,208.49915197160513L338.59246148755784,207.8428452279833L340.3757895322989,207.19437318378027L342.17898102115885,206.44537591934207L343.957772710829,205.59898731443622L345.76401417458766,205.01114379035104L347.56073894451674,204.50200886196563L349.3276395928096,203.83172019322717L351.0945016338252,202.81766902075876L352.8938903058811,201.95886543062002L355.1445594411169,201.3317278756036L356.94234591116896,200.8381418122186L358.75806546148,200.2993555598789L360.52400092784285,199.5338451597426L362.3299721406612,198.76086166169912L364.10548221176936,198.36948829227026L365.93193458514173,197.5601035753886L367.7326745118996,196.8419629732768L369.5143810509982,196.46023231082495L371.28384908322477,195.7639083332486L373.5722761355613,195.3092546992832L375.387435880353,194.58689541286896L377.1865349978299,194.06040361192495L378.95447804260704,193.44580157597863L380.78772529676644,192.66124682956274L382.5616524695095,192.15440204408438L384.35787534483507,191.5430544217428L386.1353350834418,190.902658144633L387.90179174804683,190.25153435601132L389.69554375763164,189.69683763715958L391.5114177370515,189.48144367006094L393.7134417030165,188.86057387457956L395.55313637246815,188.47691467073233L397.33685048998115,187.86653131908844L399.1339227254051,187.60762463675607L400.9194127776692,187.32159784105093L402.7271599252387,186.76436991161773L404.4731547329282,186.519445154402L406.26146311642793,185.89929856194394L408.08347565292246,185.42825232611764L409.8290650842014,185.14174339506363L412.1143842507234,184.76411088307702L413.87008878862844,184.40660752190487L415.6723150955584,184.1040675905016L417.4817995706018,183.59372732374405L419.2499742590422,183.1160517268711L421.03905478808593,182.373924891154L422.82101227448635,181.80150969823202L424.59393565802225,181.4208638403151L426.3800434267216,180.79818603727554L428.2037739870515,180.24975707795886L429.9935687507234,179.68192217085098L432.23987526363567,179.19858148362903L434.05466823929396,178.7494724061754L435.8796149288556,178.42439264721344L437.64601368254483,178.20948081546362L439.48545740469467,177.91586038801407L441.25365139677365,177.74542554219565L443.0632903009259,177.22411669625177L444.83744911733214,176.8227390183343L446.6651176199363,176.37338887320627L448.4233702381366,175.82845539516876L450.2874840104167,175.48493395911325L452.0782439560185,175.0056914223565L453.8904309404658,174.59057288699682L455.72846549699796,174.1841327879164L457.50262431340417,173.7467154926724L459.263212671875,173.26156679789227L461.0490308859953,172.85524723264908L462.8240969734158,172.33429998821683L464.6458006516927,171.9835465219286L466.4306150766059,171.63206985261706L468.233362581778,171.25913816028174L470.50065214984807,170.95623662736682L472.32175741532836,170.7139636145698L474.1140809556568,170.30631817711725L475.9242410580512,169.94146225187515L477.6765867628399,169.6179494327969L479.4894493746383,169.30986494488187L481.2520260078848,169.10543955696954L483.030624661169,168.7574583689372L484.8399354034649,168.21975692113242L486.5616655374349,167.88238271077475L488.77585079571753,167.35528824064468L490.61541033969905,167.01562388737997L492.4269216967954,166.6587231953939L494.21631108405666,166.33979066212973L496.00442643117043,166.12584310107763L497.7995296954572,165.93817191653784L499.59422758333335,165.58235602908667L501.38350114876295,165.3939616415236L503.161964676577,165.03633774651422L504.9424550864439,164.68811549080743L506.820062102105,164.45415931277807L509.05685192118773,164.1719895998637L510.84056603870073,163.82232093811038L512.6327351499203,163.60765017403497L514.4485512184244,163.43528678682117L516.2893268916376,163.19904046588476L518.0698366051432,162.97038777669272L519.9310162243561,162.53694809807672L521.6367436419271,162.2852734459771L523.4445680040509,161.97200600306195L525.271271324725,161.78325001398724L527.5321327811415,161.4499739540948L529.3268306690176,161.09174738989938L531.129423745081,160.82958629396228L532.8727546506437,160.57405455907187L534.6855400478877,160.15773068534006L536.4970321013454,159.92546198103165L538.3093349076244,159.54059743881226L540.1072178958694,159.28000328275894L541.9163162981409,159.03604279624093L543.7100103968099,158.70252566867407L545.5295520675636,158.45193582110937L547.8032890509259,158.18386856714886L549.6042799249855,157.8978417714437L551.3932639358362,157.72499624888104L553.2544628586878,157.48537498050268L555.0507822522063,157.151978386773L556.8421020033276,156.8770407040914L558.6148709577545,156.6089734501309L560.4350882558593,156.42347187466092L562.2253656104963,156.14769045511883L564.0370313967014,155.86154312557645L566.3076025833333,155.55394077301025L568.1126858287761,155.3859166039361L569.9198345635489,155.1788394716051L571.6912136559968,154.7502211464776L573.5129366379123,154.51518016391333L575.3290229573568,154.36571820576987L577.1134899167752,154.15779733657837L578.9086510919776,153.86128409703574L580.6949712007016,153.60225688086618L582.4876229028863,153.39047892888388L584.302300056713,153.2563247680664L586.5676206536458,152.9997082286411L588.3593650848162,152.75827895270456L590.145839622649,152.5430055194431L591.9424099634693,152.32568301094904L593.7575890118995,152.15934631559585L595.535164572338,151.91719383663602L597.3025671152343,151.81980249616836L599.1478791435185,151.65804608662924L600.90404696875,151.55161470837064L602.6951736834852,151.19471401638455L765.370835496781,93.65330653720429L767.2547161949869,87.4119439125061L768.9749599487847,88.66790649625989L770.7735764752965,101.34686083263824L772.5522330394965,101.79138962427771L774.2977645598596,101.33143250147498L776.1340231816406,102.66429567337036L777.8680883406756,100.75745036866931L779.6467062975984,98.58772076500787L781.4769421841362,97.98155609766638L783.2021276694155,98.51937807930841L785.5752204806496,98.91545226838855L787.3578149871238,100.22710148493445L789.1319544998914,100.64523336622449L790.9440063588686,100.84387312995062L792.6749057211732,100.76034318076239L794.4200125614873,99.75412670771277L796.238202977539,98.39992904663086L797.998636906901,99.08769512176514L799.7912886090857,98.59073411093817L801.5673777893518,99.69988648096717L803.329491135272,99.04779842164783L805.6896891159216,98.67980861663818L807.4216694819878,99.54102288352118L809.2639315353732,98.95004547966852L811.0167791347656,98.83963648478186L812.79757840285,98.58916717105438L814.614070098705,98.70861620373199L816.4064901572266,99.9814535246955L818.1657851719111,99.80197864108612L819.9094249356915,99.87237040201819L821.7013624032479,100.25277519226074L824.0487041605902,99.79607248306274L825.8494247837094,99.63648568259345L827.6535814544994,99.039963722229L829.4517539973234,99.17218934165106L831.2503512201968,99.12518114513824L833.0397792147352,99.31164699130585L834.8308673221932,99.08263270060218L836.6158747834924,99.0403253237406L838.3899563853444,99.31321393118964L840.1973946746962,98.89761326048108L841.9546821109664,98.69222360187104L844.2449623126084,98.82915004094446L846.0281359282408,98.92087629106311L847.7975074422742,99.01139720280969L849.5526328710214,99.1811088456048L851.3414817564019,99.16158236397638L853.1132469216218,99.33370468351575L854.8999144958404,99.0318879551358L856.6732046485098,99.04586988025238L858.5025718713107,98.92352803548181L860.2695304305195,98.93425554699371L862.5606792958984,99.37444512049353L864.3446829679905,99.01453108257721L866.1133981583116,99.03478076722888L867.8961277902561,98.81962786780463L869.6713869140624,98.79082028071082L871.442013164605,98.73199976815118L873.2342015794633,98.37075985802545L874.9956972089482,98.4406694836087L876.8208176312572,98.64015298419525L878.6011922192924,98.51515939500598L880.3338096054325,98.37377320395575L882.6475630316116,98.32700607511731L884.4023602985025,97.91080273522272L886.2690221510778,97.64900324079724L888.0343012937282,97.46024725172254L889.8184014840133,97.4078150325351L891.5876378725766,97.37117274602258L893.3686494806857,97.26365656322906L895.1342953924697,96.99836158752441L896.9031264046224,96.6566481590271L898.6773238283057,96.19584729936383L900.9715805794993,95.90451701482141L902.7808913217955,96.13654465145538L904.5854147617187,96.21609698401556L906.3946289858218,96.06832249959314L908.1775516541521,95.94802973005505L909.9647211229744,96.11087094412909L911.7195569971425,95.98117653528845L913.5085796152704,95.87088807423913L915.3111147804179,95.43720732794867L917.0817796382378,95.33981598748102L918.8496068611834,95.42720301946008L921.1185372385344,95.34090079201593L922.8693579558737,95.39755169550574L924.6669706931785,95.23651848898993L926.4614562410301,95.21506346596613L928.230132824074,95.20023780398895L929.996010379521,95.06861485375299L931.8204165672018,95.16431872049964L933.5638053836806,94.94434446758697L935.3334857559316,94.93831777572632L937.1277975710359,94.94181325700544L938.8516511052517,94.91035392549298L941.1536293118851,95.02208879258893L942.9478639124349,94.99436601003015L944.7199765431495,95.24664333131574L946.5044628062066,95.07536474863684L948.2994502486617,95.05318652258978L950.1037227412831,94.94084898630774L951.8634424360171,94.85358248816596L953.6638155936414,94.89613093270196L955.4474911038773,94.54393106036713L957.1759389040799,94.68845113118493L959.545557060366,94.54814974466956L961.2933278028066,94.51174852583142L963.0741270708911,94.6035953097873L964.8764885032913,94.48330254024933L966.6375015418113,94.37988450792096L968.4452293857422,94.33335844675696L970.2314143689958,94.35228225919934L972.0010368303313,94.19799894756744L973.7804269327979,93.95873928070068L975.5455902536169,93.95331525802612L977.3492643334419,94.03093904919098L979.1905998121744,94.13303120930993L980.9909729697988,94.01080989837646L982.7317944023437,93.9234228663974L984.5161841472078,93.97706042395697L986.2803050715422,93.94319041570031L988.0414146282551,93.98248444663153L989.8302828172742,93.98152017593384L991.6311964767795,93.87231651941931L993.3948348101491,93.68066771825158L995.1860194358,93.75467549429999L996.906243885959,93.57785235510931L999.2125461076389,93.54229487313165L1001.0021671385632,93.39283291498816L1002.7672146375505,93.50625525580512L1004.5676650097294,93.33919535742865L1006.3619189139177,93.07944493823578L1008.1724650890842,92.95770576265119L1009.9135953798466,93.0102585156759L1011.7038534308449,93.03930717044403L1013.4889767139756,92.96903594334924L1015.2462641502459,92.93203205532501L1017.6095314094329,92.70241509543524L1019.3785747616101,92.70735698276093L1021.1603585152633,92.76653909683228L1022.9003498913482,92.62153689066565L1024.7076916625072,92.69904014799329L1026.4958842241751,92.63841162787543L1028.2707379715712,92.5897159576416L1030.0661307904368,92.64263031217786L1031.8353864826388,92.53475252787268L1033.5956273756146,92.48219977484808L1035.380055727756,92.50582440694177L1037.6977470962095,92.4919630156623L1039.4116785601852,92.55849769380353L1041.2565852120586,92.49883344438337L1043.0391990221715,92.4531511200799L1044.864782731807,92.41494189368353L1046.5923039573568,92.45929834577771L1048.352815101273,92.44965563880072L1050.1715846264829,92.46990532345245L1051.931149892108,92.53222131729126L1053.7455374913557,92.47810162438287L1056.0688848259188,92.38119241926404L1057.882712619647,92.2153378592597L1059.631043167607,92.20111486646863L1061.4147765887587,92.13976314332746L1063.2082969546802,92.0348987049527L1064.9994815803313,92.0778087510003L1066.7920560679615,91.9713773727417L1068.5893985543257,91.81576818890045L1070.3559517371236,91.67570787005951L1072.1259602712312,91.61797216203473L1073.9167395204718,91.4513943990072L1076.2011514159794,91.42560015784369L1078.0073156651838,91.50346501668298L1079.785566852973,91.3965515030755L1081.5805929027053,91.3012092378404L1083.3524931933955,91.24142445458307L1085.08904852181,91.04483376608954L1086.8626668363352,90.91525989108612L1088.622830514757,90.87066237131751L1090.4014098644025,90.71155770619714L1092.213982921622,90.58620251549615L1094.4673545662615,90.55052449968122L1096.3231484703051,90.4563875728183L1098.0956278701533,90.58439450793793L1099.8770255510344,90.43408881293402L1101.6227887150608,90.28342151641846L1103.3767752291303,90.21049854490491L1105.1380199113137,90.02379163106286L1106.9176995683592,90.09828154246009L1108.7683587045356,90.12962034013532L1110.5131952939091,90.1117813322279L1112.2546923538048,90.06067498524988L1114.5831937598741,89.95990869734021L1116.3503453554688,89.8836107783847L1118.186546066334,89.83889272477887L1119.9452040609447,89.8209331830343L1121.6957545273438,89.74885394838117L1123.472905407733,89.68400674396088L1125.2582603345268,89.58420472674896L1127.0820295021338,89.39785941441858L1128.8221946109663,89.29251284069488L1130.605773603009,89.20416153801813L1132.9225383968098,89.10170777638757L1134.7307102244285,89.08097595638702L1136.5221071901042,89.04252566231622L1138.2645501282914,88.97394190894232L1140.0199458079787,89.00070042080353L1141.8191414436487,88.87389882405603L1143.6436055422453,88.82833703358972L1145.4031128969543,88.75191858079694L1147.1838542541232,88.69719621870252L1148.9508128133318,88.54532358381482L1150.7334845343605,88.38670105404327L1153.0590131800852,88.43539672427704L1154.8664321657986,88.44033861160278L1156.5993584101561,88.39369201660156L1158.3979942403066,88.33137602276275L1160.1603006226128,88.21072165171302L1161.9205029083114,88.19710132810803L1163.6980977723886,88.17359722985162L1165.4476251459419,88.1637134552002L1167.237361998698,88.04739830229016L1168.9874105704932,87.95157390170624L1170.7880153717808,87.90299876530969L1173.0962093500434,87.82887045542395L1174.8560641702472,87.83622301949396L1176.6812811107493,87.7608893712362L1178.4312910752676,87.73051484425866L1180.217398843967,87.72882737053766L1182.0284662173756,87.65108304553559L1183.7691525244502,87.61299435297644L1185.567286459997,87.45364862018158L1187.3723310981625,87.37481949064465L1189.1239625683231,87.37240881390045L1191.4616138990884,87.3573420842489L1193.23639043193,87.3765069643656L1195.0753515631147,87.22342899110578L1196.8523480143951,87.08614095052087L1198.6083228032405,87.0907212363349L1200.440759304579,87.04082022772894L1202.2087409566334,86.95813401540124L1203.994539867115,86.87834061516656L1205.7947585956306,86.86496135923596L1207.5706354358724,86.80758725272284L1209.357978637442,86.77034229702423L1211.1986577924624,86.69163370132446L1212.9856728321759,86.58905940585663L1214.7928794778645,86.58472018771698L1216.5789100320094,86.50323931376136L1218.3523160065104,86.5362655851576L1220.1152401052516,86.46020873387658L1221.880866713397,86.41440587573578L1223.713110178349,86.34256770875714L1225.5065340260778,86.29025602340698L1227.2899392853733,86.22263654073083L1229.5875741733216,86.19141827689276L1231.3984678139827,86.1060803201463L1233.1843632426578,86.13922712537976L1234.9686757729671,86.19250308142767L1236.7683539996021,86.15489652421735L1238.5308727219328,86.11753103468152L1240.328408244683,86.1568250656128L1242.1289165277776,86.08209408654108L1243.9118198924696,86.01411300235321L1245.710880402669,85.9260027673509L1247.4770668163337,85.90961016549005L1249.8182507129627,85.87827136781476L1251.5981620136718,85.80522786246405L1253.3465697761862,85.83572292327881L1255.18278979069,85.78124162885877L1256.9356373900825,85.73748784595062L1258.7289068087023,85.62201642990112L1260.549317143193,85.59610165490045L1262.3481460097294,85.58597681257459L1264.1085799390912,85.50883515675866L1265.8816770553747,85.47713475757172L1461.4406818465711,71.90128813849554L1462.085693626736,82.5563588142395L1462.6636638700447,79.70127381218805L1463.1998031285084,79.83108875486585L1463.805049413158,75.4376303884718L1464.353079712999,76.67756197187634L1464.9304901507885,76.30330440733167L1465.4936931105685,74.0102686882019L1466.0341949913557,74.32811641693115L1466.609771583478,75.30697170893347L1467.1408146813512,75.98280493418372L1467.7210627540146,76.47952487733625L1468.2817755444155,76.27594322628448L1468.8352687739798,77.274204466078L1469.413933948278,77.17898273468018L1469.9569259984448,77.01457458072235L1470.5453009029586,78.05164771609833L1471.1108589066478,76.7668775452508L1471.651302876519,76.74759213129676L1472.2342727622251,76.99565076828003L1472.786298915256,76.22471634546912L1473.3838430481046,76.44577540291681L1473.9699401232638,75.8400928709242L1474.5161558810764,75.56563732359143L1475.1265562372323,75.75523704952667L1475.6714207403427,75.96183204650879L1476.2758176648942,75.6580867767334L1476.8716630775461,75.66628307766388L1477.434885340965,75.56503465440534L1478.0632766882957,75.41593429777356L1478.6277536882233,75.43003675672742L1479.2455087306857,75.32131523556183L1479.8932616275317,74.7011686431037L1480.5249925043402,74.8213408788045L1489.4420574080946,63.45102241304181L1490.3953676003327,61.54309230380585L1491.3862812805626,64.76315376493665L1492.3304994590205,67.32871649000379L1493.3629352658781,66.81596554650196L1494.3567830991751,71.02729728486798L1495.364626070457,70.6251964039273L1496.4770947629484,67.85605202780829L1497.458298712963,68.18342192967731L1498.4947882839263,68.14135562049017L1499.5917368509836,69.17975462807544L1500.6454259639395,69.70612589518225L1501.7700945560257,69.00690910551282L1502.7808909840132,67.42405875523883L1503.9133003351778,68.292746120029L1504.898461531105,68.81188535690308L1505.935568818504,68.31661181979706L1507.0447558924334,67.78674507141113L1508.0536412601996,67.77469168768988L1541.1835689175707,84.88724215825403L1542.1342345113208,83.59029806984796L1543.103161347186,78.25318029191754L1544.039503641095,74.42092747158478L1545.009028889757,71.65829192267523L1545.876013210178,70.20658238728839L1546.8699961689454,71.17254055870899L1547.832823055013,73.49908468458386L1548.8130618230975,71.58211453755695L1549.8114653151042,68.75872993469238L1550.7848705951244,68.76439502504132L1551.8922817343025,72.24613544676038L1552.9023253203848,72.46743557188245L1553.8862703870802,71.67191224628021L1554.9115638476562,71.21725861231482L1555.8963389708115,71.54896773232355L1557.0075529267938,70.57409005694916L1558.0469187399087,70.1718686421712L1559.1263396031177,70.84432691997955L1560.1534283020833,71.12830464045203L1561.6335540953414,71.69372887081573L1562.8569414952258,71.40721993976166L1564.063689158637,71.47833490371704L1565.4099442182073,70.98053015602954L1566.7658317934388,70.8976028760274L1568.131911689851,71.35840373569062L1569.3711280733867,71.5449901156955" style="fill: none;" fill="none"></path></g></g></g></g></g></g><g transform="translate(58, 364)" clip-path="url(#clip_1)"><clipPath id="clip_1"><rect width="1667" height="35"></rect></clipPath><g><g visibility="inherit"><g><g transform="translate(104.2396484375,0)" style="visibility: inherit;"><text transform="translate(0,15)" style="text-anchor: middle; font-family: &quot;Helvetica Neue&quot;, sans-serif; font-size: 12px; font-weight: 200;" fill="rgb(50, 49, 63)" stroke="none" stroke-width="1px">10 PM</text></g><g transform="translate(312.71894531249995,0)" style="visibility: inherit;"><text transform="translate(0,15)" style="text-anchor: middle; font-family: &quot;Helvetica Neue&quot;, sans-serif; font-size: 12px; font-weight: 200;" fill="rgb(50, 49, 63)" stroke="none" stroke-width="1px">01 AM</text></g><g transform="translate(521.1982421875,0)" style="visibility: inherit;"><text transform="translate(0,15)" style="text-anchor: middle; font-family: &quot;Helvetica Neue&quot;, sans-serif; font-size: 12px; font-weight: 200;" fill="rgb(50, 49, 63)" stroke="none" stroke-width="1px">04 AM</text></g><g transform="translate(729.6775390624999,0)" style="visibility: inherit;"><text transform="translate(0,15)" style="text-anchor: middle; font-family: &quot;Helvetica Neue&quot;, sans-serif; font-size: 12px; font-weight: 200;" fill="rgb(50, 49, 63)" stroke="none" stroke-width="1px">07 AM</text></g><g transform="translate(938.1568359375,0)" style="visibility: inherit;"><text transform="translate(0,15)" style="text-anchor: middle; font-family: &quot;Helvetica Neue&quot;, sans-serif; font-size: 12px; font-weight: 200;" fill="rgb(50, 49, 63)" stroke="none" stroke-width="1px">10 AM</text></g><g transform="translate(1146.6361328125,0)" style="visibility: inherit;"><text transform="translate(0,15)" style="text-anchor: middle; font-family: &quot;Helvetica Neue&quot;, sans-serif; font-size: 12px; font-weight: 200;" fill="rgb(50, 49, 63)" stroke="none" stroke-width="1px">01 PM</text></g><g transform="translate(1355.1154296875,0)" style="visibility: inherit;"><text transform="translate(0,15)" style="text-anchor: middle; font-family: &quot;Helvetica Neue&quot;, sans-serif; font-size: 12px; font-weight: 200;" fill="rgb(50, 49, 63)" stroke="none" stroke-width="1px">04 PM</text></g><g transform="translate(1563.5947265625,0)" style="visibility: inherit;"><text transform="translate(0,15)" style="text-anchor: middle; font-family: &quot;Helvetica Neue&quot;, sans-serif; font-size: 12px; font-weight: 200;" fill="rgb(50, 49, 63)" stroke="none" stroke-width="1px">07 PM</text></g></g><g><line x1="0" y1="0" x2="0" y2="18" fill="rgb(0, 0, 0)" stroke="rgb(204, 204, 204)" stroke-width="1px"></line><line x1="208.479296875" y1="0" x2="208.479296875" y2="18" fill="rgb(0, 0, 0)" stroke="rgb(204, 204, 204)" stroke-width="1px"></line><line x1="416.95859375" y1="0" x2="416.95859375" y2="18" fill="rgb(0, 0, 0)" stroke="rgb(204, 204, 204)" stroke-width="1px"></line><line x1="625.4378906249999" y1="0" x2="625.4378906249999" y2="18" fill="rgb(0, 0, 0)" stroke="rgb(204, 204, 204)" stroke-width="1px"></line><line x1="833.9171875" y1="0" x2="833.9171875" y2="18" fill="rgb(0, 0, 0)" stroke="rgb(204, 204, 204)" stroke-width="1px"></line><line x1="1042.396484375" y1="0" x2="1042.396484375" y2="18" fill="rgb(0, 0, 0)" stroke="rgb(204, 204, 204)" stroke-width="1px"></line><line x1="1250.8757812499998" y1="0" x2="1250.8757812499998" y2="18" fill="rgb(0, 0, 0)" stroke="rgb(204, 204, 204)" stroke-width="1px"></line><line x1="1459.3550781249999" y1="0" x2="1459.3550781249999" y2="18" fill="rgb(0, 0, 0)" stroke="rgb(204, 204, 204)" stroke-width="1px"></line><line x1="1667.834375" y1="0" x2="1667.834375" y2="18" fill="rgb(0, 0, 0)" stroke="rgb(204, 204, 204)" stroke-width="1px"></line></g><line x1="0" y1="0" x2="1667.834375" y2="0" style="visibility: inherit;" fill="rgb(0, 0, 0)" stroke="rgb(204, 204, 204)" stroke-width="1px"></line></g><g visibility="inherit"><g><g transform="translate(104.2396484375,0)" style="visibility: inherit;"><text transform="translate(0,33)" style="text-anchor: middle; font-family: &quot;Helvetica Neue&quot;, sans-serif; font-size: 12px; font-weight: 200;" fill="rgb(50, 49, 63)" stroke="none" stroke-width="1px">December 15, 2018</text></g><g transform="translate(312.71894531249995,0)" style="visibility: inherit;"><text transform="translate(0,33)" style="text-anchor: middle; font-family: &quot;Helvetica Neue&quot;, sans-serif; font-size: 12px; font-weight: 200;" fill="rgb(50, 49, 63)" stroke="none" stroke-width="1px">December 16, 2018</text></g><g transform="translate(521.1982421875,0)" style="visibility: inherit;"><text transform="translate(0,33)" style="text-anchor: middle; font-family: &quot;Helvetica Neue&quot;, sans-serif; font-size: 12px; font-weight: 200;" fill="rgb(50, 49, 63)" stroke="none" stroke-width="1px">December 16, 2018</text></g><g transform="translate(729.6775390624999,0)" style="visibility: inherit;"><text transform="translate(0,33)" style="text-anchor: middle; font-family: &quot;Helvetica Neue&quot;, sans-serif; font-size: 12px; font-weight: 200;" fill="rgb(50, 49, 63)" stroke="none" stroke-width="1px">December 16, 2018</text></g><g transform="translate(938.1568359375,0)" style="visibility: inherit;"><text transform="translate(0,33)" style="text-anchor: middle; font-family: &quot;Helvetica Neue&quot;, sans-serif; font-size: 12px; font-weight: 200;" fill="rgb(50, 49, 63)" stroke="none" stroke-width="1px">December 16, 2018</text></g><g transform="translate(1146.6361328125,0)" style="visibility: inherit;"><text transform="translate(0,33)" style="text-anchor: middle; font-family: &quot;Helvetica Neue&quot;, sans-serif; font-size: 12px; font-weight: 200;" fill="rgb(50, 49, 63)" stroke="none" stroke-width="1px">December 16, 2018</text></g><g transform="translate(1355.1154296875,0)" style="visibility: inherit;"><text transform="translate(0,33)" style="text-anchor: middle; font-family: &quot;Helvetica Neue&quot;, sans-serif; font-size: 12px; font-weight: 200;" fill="rgb(50, 49, 63)" stroke="none" stroke-width="1px">December 16, 2018</text></g><g transform="translate(1563.5947265625,0)" style="visibility: inherit;"><text transform="translate(0,33)" style="text-anchor: middle; font-family: &quot;Helvetica Neue&quot;, sans-serif; font-size: 12px; font-weight: 200;" fill="rgb(50, 49, 63)" stroke="none" stroke-width="1px">December 16, 2018</text></g></g><g><line x1="0" y1="18" x2="0" y2="36" fill="rgb(0, 0, 0)" stroke="rgb(204, 204, 204)" stroke-width="1px"></line><line x1="208.479296875" y1="18" x2="208.479296875" y2="36" fill="rgb(0, 0, 0)" stroke="rgb(204, 204, 204)" stroke-width="1px"></line><line x1="416.95859375" y1="18" x2="416.95859375" y2="36" fill="rgb(0, 0, 0)" stroke="rgb(204, 204, 204)" stroke-width="1px"></line><line x1="625.4378906249999" y1="18" x2="625.4378906249999" y2="36" fill="rgb(0, 0, 0)" stroke="rgb(204, 204, 204)" stroke-width="1px"></line><line x1="833.9171875" y1="18" x2="833.9171875" y2="36" fill="rgb(0, 0, 0)" stroke="rgb(204, 204, 204)" stroke-width="1px"></line><line x1="1042.396484375" y1="18" x2="1042.396484375" y2="36" fill="rgb(0, 0, 0)" stroke="rgb(204, 204, 204)" stroke-width="1px"></line><line x1="1250.8757812499998" y1="18" x2="1250.8757812499998" y2="36" fill="rgb(0, 0, 0)" stroke="rgb(204, 204, 204)" stroke-width="1px"></line><line x1="1459.3550781249999" y1="18" x2="1459.3550781249999" y2="36" fill="rgb(0, 0, 0)" stroke="rgb(204, 204, 204)" stroke-width="1px"></line><line x1="1667.834375" y1="18" x2="1667.834375" y2="36" fill="rgb(0, 0, 0)" stroke="rgb(204, 204, 204)" stroke-width="1px"></line></g><line x1="0" y1="18" x2="1667.834375" y2="18" style="visibility: inherit;" fill="rgb(0, 0, 0)" stroke="rgb(204, 204, 204)" stroke-width="1px"></line></g></g></g></g></g></svg>