<svg viewBox="0 0 1726.354248046875 400.0000305175781" xmlns="http://www.w3.org/2000/svg"><g><g><g><g><g><line x1="68.21875" y1="364" x2="63.21875" y2="364" style="visibility: inherit;" fill="rgb(0, 0, 0)" stroke="rgb(204, 204, 204)" stroke-width="1px"></line><line x1="68.21875" y1="330.9090909090909" x2="63.21875" y2="330.9090909090909" style="visibility: inherit;" fill="rgb(0, 0, 0)" stroke="rgb(204, 204, 204)" stroke-width="1px"></line><line x1="68.21875" y1="297.8181818181818" x2="63.21875" y2="297.8181818181818" style="visibility: inherit;" fill="rgb(0, 0, 0)" stroke="rgb(204, 204, 204)" stroke-width="1px"></line><line x1="68.21875" y1="264.72727272727275" x2="63.21875" y2="264.72727272727275" style="visibility: inherit;" fill="rgb(0, 0, 0)" stroke="rgb(204, 204, 204)" stroke-width="1px"></line><line x1="68.21875" y1="231.63636363636363" x2="63.21875" y2="231.63636363636363" style="visibility: inherit;" fill="rgb(0, 0, 0)" stroke="rgb(204, 204, 204)" stroke-width="1px"></line><line x1="68.21875" y1="198.54545454545456" x2="63.21875" y2="198.54545454545456" style="visibility: inherit;" fill="rgb(0, 0, 0)" stroke="rgb(204, 204, 204)" stroke-width="1px"></line><line x1="68.21875" y1="165.45454545454547" x2="63.21875" y2="165.45454545454547" style="visibility: inherit;" fill="rgb(0, 0, 0)" stroke="rgb(204, 204, 204)" stroke-width="1px"></line><line x1="68.21875" y1="132.3636363636364" x2="63.21875" y2="132.3636363636364" style="visibility: inherit;" fill="rgb(0, 0, 0)" stroke="rgb(204, 204, 204)" stroke-width="1px"></line><line x1="68.21875" y1="99.27272727272731" x2="63.21875" y2="99.27272727272731" style="visibility: inherit;" fill="rgb(0, 0, 0)" stroke="rgb(204, 204, 204)" stroke-width="1px"></line><line x1="68.21875" y1="66.18181818181819" x2="63.21875" y2="66.18181818181819" style="visibility: inherit;" fill="rgb(0, 0, 0)" stroke="rgb(204, 204, 204)" stroke-width="1px"></line><line x1="68.21875" y1="33.09090909090912" x2="63.21875" y2="33.09090909090912" style="visibility: inherit;" fill="rgb(0, 0, 0)" stroke="rgb(204, 204, 204)" stroke-width="1px"></line><line x1="68.21875" y1="0" x2="63.21875" y2="0" style="visibility: inherit;" fill="rgb(0, 0, 0)" stroke="rgb(204, 204, 204)" stroke-width="1px"></line></g><g transform="translate(58.21875, 0)"><text x="0" y="364" dx="0em" dy="0.3em" style="text-anchor: end; visibility: hidden; font-family: &quot;Helvetica Neue&quot;, sans-serif; font-size: 12px; font-weight: 200;" fill="rgb(50, 49, 63)" stroke="none" stroke-width="1px">-0.100</text><text x="0" y="330.9090909090909" dx="0em" dy="0.3em" style="text-anchor: end; visibility: inherit; font-family: &quot;Helvetica Neue&quot;, sans-serif; font-size: 12px; font-weight: 200;" fill="rgb(50, 49, 63)" stroke="none" stroke-width="1px">0.00</text><text x="0" y="297.8181818181818" dx="0em" dy="0.3em" style="text-anchor: end; visibility: inherit; font-family: &quot;Helvetica Neue&quot;, sans-serif; font-size: 12px; font-weight: 200;" fill="rgb(50, 49, 63)" stroke="none" stroke-width="1px">0.100</text><text x="0" y="264.72727272727275" dx="0em" dy="0.3em" style="text-anchor: end; visibility: inherit; font-family: &quot;Helvetica Neue&quot;, sans-serif; font-size: 12px; font-weight: 200;" fill="rgb(50, 49, 63)" stroke="none" stroke-width="1px">0.200</text><text x="0" y="231.63636363636363" dx="0em" dy="0.3em" style="text-anchor: end; visibility: inherit; font-family: &quot;Helvetica Neue&quot;, sans-serif; font-size: 12px; font-weight: 200;" fill="rgb(50, 49, 63)" stroke="none" stroke-width="1px">0.300</text><text x="0" y="198.54545454545456" dx="0em" dy="0.3em" style="text-anchor: end; visibility: inherit; font-family: &quot;Helvetica Neue&quot;, sans-serif; font-size: 12px; font-weight: 200;" fill="rgb(50, 49, 63)" stroke="none" stroke-width="1px">0.400</text><text x="0" y="165.45454545454547" dx="0em" dy="0.3em" style="text-anchor: end; visibility: inherit; font-family: &quot;Helvetica Neue&quot;, sans-serif; font-size: 12px; font-weight: 200;" fill="rgb(50, 49, 63)" stroke="none" stroke-width="1px">0.500</text><text x="0" y="132.3636363636364" dx="0em" dy="0.3em" style="text-anchor: end; visibility: inherit; font-family: &quot;Helvetica Neue&quot;, sans-serif; font-size: 12px; font-weight: 200;" fill="rgb(50, 49, 63)" stroke="none" stroke-width="1px">0.600</text><text x="0" y="99.27272727272731" dx="0em" dy="0.3em" style="text-anchor: end; visibility: inherit; font-family: &quot;Helvetica Neue&quot;, sans-serif; font-size: 12px; font-weight: 200;" fill="rgb(50, 49, 63)" stroke="none" stroke-width="1px">0.700</text><text x="0" y="66.18181818181819" dx="0em" dy="0.3em" style="text-anchor: end; visibility: inherit; font-family: &quot;Helvetica Neue&quot;, sans-serif; font-size: 12px; font-weight: 200;" fill="rgb(50, 49, 63)" stroke="none" stroke-width="1px">0.800</text><text x="0" y="33.09090909090912" dx="0em" dy="0.3em" style="text-anchor: end; visibility: inherit; font-family: &quot;Helvetica Neue&quot;, sans-serif; font-size: 12px; font-weight: 200;" fill="rgb(50, 49, 63)" stroke="none" stroke-width="1px">0.900</text><text x="0" y="0" dx="0em" dy="0.3em" style="text-anchor: end; visibility: hidden; font-family: &quot;Helvetica Neue&quot;, sans-serif; font-size: 12px; font-weight: 200;" fill="rgb(50, 49, 63)" stroke="none" stroke-width="1px">1.00</text></g><line x1="68.21875" y1="0" x2="68.21875" y2="364" fill="rgb(0, 0, 0)" stroke="rgb(204, 204, 204)" stroke-width="1px"></line></g></g><g transform="translate(68, 0)" clip-path="url(#clip_0)"><clipPath id="clip_0"><rect width="1658" height="363"></rect></clipPath><g><g><g><line x1="0" y1="0" x2="0" y2="364" fill="rgb(0, 0, 0)" stroke="rgb(60, 60, 60)" stroke-width="1px" opacity="0.25"></line><line x1="207.26640625" y1="0" x2="207.26640625" y2="364" fill="rgb(0, 0, 0)" stroke="rgb(60, 60, 60)" stroke-width="1px" opacity="0.25"></line><line x1="414.5328125" y1="0" x2="414.5328125" y2="364" fill="rgb(0, 0, 0)" stroke="rgb(60, 60, 60)" stroke-width="1px" opacity="0.25"></line><line x1="621.7992187499999" y1="0" x2="621.7992187499999" y2="364" fill="rgb(0, 0, 0)" stroke="rgb(60, 60, 60)" stroke-width="1px" opacity="0.25"></line><line x1="829.065625" y1="0" x2="829.065625" y2="364" fill="rgb(0, 0, 0)" stroke="rgb(60, 60, 60)" stroke-width="1px" opacity="0.25"></line><line x1="1036.33203125" y1="0" x2="1036.33203125" y2="364" fill="rgb(0, 0, 0)" stroke="rgb(60, 60, 60)" stroke-width="1px" opacity="0.25"></line><line x1="1243.5984374999998" y1="0" x2="1243.5984374999998" y2="364" fill="rgb(0, 0, 0)" stroke="rgb(60, 60, 60)" stroke-width="1px" opacity="0.25"></line><line x1="1450.8648437499999" y1="0" x2="1450.8648437499999" y2="364" fill="rgb(0, 0, 0)" stroke="rgb(60, 60, 60)" stroke-width="1px" opacity="0.25"></line><line x1="1658.13125" y1="0" x2="1658.13125" y2="364" fill="rgb(0, 0, 0)" stroke="rgb(60, 60, 60)" stroke-width="1px" opacity="0.25"></line></g><g><line x1="0" y1="364" x2="1658.13125" y2="364" fill="rgb(0, 0, 0)" stroke="rgb(60, 60, 60)" stroke-width="1px" opacity="0.25"></line><line x1="0" y1="330.9090909090909" x2="1658.13125" y2="330.9090909090909" fill="rgb(0, 0, 0)" stroke="rgb(60, 60, 60)" stroke-width="1px" opacity="0.25"></line><line x1="0" y1="297.8181818181818" x2="1658.13125" y2="297.8181818181818" fill="rgb(0, 0, 0)" stroke="rgb(60, 60, 60)" stroke-width="1px" opacity="0.25"></line><line x1="0" y1="264.72727272727275" x2="1658.13125" y2="264.72727272727275" fill="rgb(0, 0, 0)" stroke="rgb(60, 60, 60)" stroke-width="1px" opacity="0.25"></line><line x1="0" y1="231.63636363636363" x2="1658.13125" y2="231.63636363636363" fill="rgb(0, 0, 0)" stroke="rgb(60, 60, 60)" stroke-width="1px" opacity="0.25"></line><line x1="0" y1="198.54545454545456" x2="1658.13125" y2="198.54545454545456" fill="rgb(0, 0, 0)" stroke="rgb(60, 60, 60)" stroke-width="1px" opacity="0.25"></line><line x1="0" y1="165.45454545454547" x2="1658.13125" y2="165.45454545454547" fill="rgb(0, 0, 0)" stroke="rgb(60, 60, 60)" stroke-width="1px" opacity="0.25"></line><line x1="0" y1="132.3636363636364" x2="1658.13125" y2="132.3636363636364" fill="rgb(0, 0, 0)" stroke="rgb(60, 60, 60)" stroke-width="1px" opacity="0.25"></line><line x1="0" y1="99.27272727272731" x2="1658.13125" y2="99.27272727272731" fill="rgb(0, 0, 0)" stroke="rgb(60, 60, 60)" stroke-width="1px" opacity="0.25"></line><line x1="0" y1="66.18181818181819" x2="1658.13125" y2="66.18181818181819" fill="rgb(0, 0, 0)" stroke="rgb(60, 60, 60)" stroke-width="1px" opacity="0.25"></line><line x1="0" y1="33.09090909090912" x2="1658.13125" y2="33.09090909090912" fill="rgb(0, 0, 0)" stroke="rgb(60, 60, 60)" stroke-width="1px" opacity="0.25"></line><line x1="0" y1="0" x2="1658.13125" y2="0" fill="rgb(0, 0, 0)" stroke="rgb(60, 60, 60)" stroke-width="1px" opacity="0.25"></line></g></g></g><g><g><line x1="0" y1="330.9090909090909" x2="1658.13125" y2="330.9090909090909" fill="rgb(0, 0, 0)" stroke="rgb(153, 153, 153)" stroke-width="1.5px"></line></g></g><g><g><line x1="-29649252.147656247" y1="0" x2="-29649252.147656247" y2="364" fill="rgb(0, 0, 0)" stroke="rgb(153, 153, 153)" stroke-width="1.5px"></line></g></g><g><g><g><g><g><path stroke="rgb(255, 112, 67)" stroke-width="2px" d="M117.49153402155672,240.8702750639482L119.29784156069154,248.15894729711795L121.54025297164351,254.4804702486311L123.76871228284142,260.2596418587441L126.00966515241609,264.90113628823616L128.21275352018228,268.9804784583866L137.8642096838831,285.1740304590186L139.61737641941548,292.0740671215237L141.43546743757233,298.35596498410456L143.22981877567997,300.7022970209069L145.02866088592302,300.8515355223251L146.79537670319732,299.8279168799741L148.57905765964986,299.2289864137277L150.40507469871238,298.77793531520774L152.13354218749998,298.46512674125927L153.94029112731482,297.4893202505622L155.71664099421295,296.77785704690825L157.99256047417535,295.7796345822588L159.77789188534433,294.6393563648579L161.5717058661024,293.33214081946574L163.31358809729454,291.9440236723547L165.12361875520833,289.5936109590508L166.93719980989584,288.37425895448536L168.7266765491898,286.6516230774049L170.52260157667823,285.1204139622764L172.34293798090278,283.56149772189605L174.08171121600117,282.3329444650418L175.84810078059897,281.31369887507964L178.1042148039641,279.3502916806401L179.8793556168258,277.2995046343473L181.6988284110243,275.4465737444056L183.45719599804684,274.05727303632415L185.24438896860534,272.91004609064134L187.012544135923,271.46512780653006L188.79351911429396,269.9277104496724L190.57599101671008,268.23428354444263L192.3351070657552,266.68371265687426L194.08679606857638,264.81852699862566L216.76596300578703,251.80020647237893L218.59629809497974,238.69539565095204L220.39431497786455,229.77209103948954L222.11909773054106,222.918210189576L223.8980768101852,217.9206259545822L225.70578531669557,214.49047705454646L227.5148755992477,212.53468675493002L229.3136409441551,208.11055831115766L231.07252669719327,204.1359056839835L232.8782968789786,202.16747392251412L234.61975690082465,199.20780485288876L236.90208628631362,195.6227545735667L238.67774526519096,192.0460742862037L240.43494218084493,189.63184326160945L242.20167718945314,188.36201337356718L244.0038010177951,187.84948241774163L245.78788499225982,186.5581447496748L247.60753050846353,185.3843904883321L249.3696979796007,183.57464321557575L251.1749883780382,182.34051982334663L252.95243215096932,181.31056865642577L254.76192545153356,179.68954823585594L256.9945684735243,178.51612485749862L258.80724753551794,177.084088092683L260.5739249701244,175.65480716781292L262.3357278059172,174.739870204341L264.1355870568576,173.62913312218012L265.9089430756655,172.4483909599974L267.6898220973669,170.73198868102887L269.4155260340712,169.35957393101L271.17425825643807,168.34981877780103L272.97728407747394,167.54094944809646L275.2290992420428,166.39005095880822L276.99967251743345,165.6689716590196L278.7778455610532,164.80368036216092L280.52373878103293,163.95791235839323L282.33238766290503,163.39248749127438L284.1096395224971,162.75148334157197L285.9089230334201,161.87005615373582L287.7330785130931,160.64081058585722L289.50015896571176,159.6487325985458L291.2657041116174,158.9012818127952L293.07498630750865,158.0138954817756L295.299434629919,157.3723520706705L297.11290053660304,156.73677700528626L298.84633858087386,155.99988432118045L300.6481169652054,155.38125298525864L302.44406118402776,154.72529524194422L304.24708700506363,154.183595467643L306.0073737254774,153.6616776628601L307.75854456228296,153.2565434449173L309.52445434353297,152.72917312061693L311.34736238650174,152.139127719638L313.55256180099826,151.47686609087262L315.3657398376736,150.8215702084176L317.08614696621817,150.25839000172073L318.87303287543403,149.71811652264446L320.63928810069444,149.08933143230783L322.388060020761,148.55929623112763L324.18325577756076,148.02201836256688L325.92156842064526,147.65263029577164L327.6352777736545,147.05807715928566L329.46772390957756,146.41386813089852L331.270845687283,145.8236834828538L333.10427058123554,145.1548058101768L334.85634341073495,144.5330469250765L336.62259863599536,143.959945748291L338.3955516367911,143.4095382587724L340.18825252018223,142.7202826351618L341.9566955575087,142.09255334310996L343.752428671658,141.5347968027299L345.53870045818866,140.92059466697063L347.2953216338252,140.394757004234L349.05190442679395,139.9341430625147L350.8408246174045,139.33493686789322L353.07839981221065,138.80721716654006L354.8657271221065,138.3159594288136L356.6708831812066,137.86794360148542L358.42654479014755,137.3795538882472L360.2220092256221,136.81745697769597L361.98718973618344,136.2713404280727L363.8030161769386,135.79261048062622L365.593279760923,135.2868810445958L367.3646206896701,134.83254904454316L369.123794312717,134.32763599480228L371.3989077566551,133.8933518661019L373.20350726707176,133.4704788514838L374.9921395876736,133.01845277373093L376.7497970953414,132.5237516139123L378.57237888563367,131.9934967610831L380.3359857068142,131.5604650215103L382.12175851866317,131.0984147439964L383.8888773539496,130.651734164391L385.6450571289062,130.2129736380888L387.4283734500145,129.8131739616841L389.23368303978583,129.44348841756556L391.42289607313364,129.02295667927356L393.2518877689525,128.6172817777557L395.0252245964265,128.2546903487801L396.81184182696757,127.87423335294483L398.5869442571614,127.52353008800537L400.3841742953559,127.16073845643979L402.12001125636573,126.83995576501488L403.89791562131074,126.45834357619646L405.70932805526616,126.06005208160875L407.44476199826386,125.74420201839663L409.7167856374421,125.42821560592992L411.4622758394097,125.09083787810098L413.2540171561053,124.75395859497473L415.0529744143518,124.43843542087865L416.81086221802656,124.10998251440131L418.5895342363281,123.74884887739859L420.36112465241604,123.38520332155079L422.1237335242332,123.03276846828894L423.89945007711225,122.6866103357896L425.7125705397859,122.32682980523907L427.4919526374421,121.91930216642422L429.7251905907841,121.5137690322043L431.52942546585643,121.1634755902987L433.3437549825665,120.84009326863568L435.0998771835214,120.57554763612481L436.92861939199935,120.29147207879515L438.68652638700803,120.04402534613743L440.48563717592594,119.7564261940106L442.2494742931134,119.44416754710036L444.0665097879051,119.18519948067501L445.81453324594906,118.87720439410461L447.66780197916665,118.60249085282132L449.4481436435185,118.29891820040794L451.2497876885127,118.02113035167451L453.0771289296151,117.71517662963936L454.8409660468026,117.39192890924664L456.59131165625,117.04552382004644L458.3667403391203,116.76507381281866L460.13147944900174,116.48777898035146L461.94258482161456,116.24131589298827L463.7170155551215,116.01963188475867L465.5092750378327,115.77519824748228L467.7633739711371,115.56848328606372L469.5738844123987,115.30114176829125L471.3557805747974,115.05143574831385L473.1554095297309,114.79476480675422L474.8975604395977,114.5126132959233L476.6998761812789,114.28889281497854L478.4521984981192,114.08464921410032L480.22044962210646,113.8650939149459L482.01923415834773,113.60992970309908L483.7309476126302,113.35897786219815L485.93225118634257,113.06440783132152L487.76110854282405,112.77616368558157L489.5620808911313,112.48809379614897L491.3410599707754,112.18886227231275L493.11877242238137,111.94022722625274L494.90343213686344,111.68150066430945L496.6876888333333,111.44968936121L498.4665527649739,111.23062684429286L500.23466954962385,111.00135179932477L502.00480142433446,110.7934756595065L503.87148489995656,110.56044309084996L506.0952615256799,110.2991017732833L507.86859835315386,110.02528799323576L509.6503409848813,109.79538285744826L511.455593000651,109.59681695382113L513.2856594111689,109.40810791063495L515.0558104772135,109.19973526515213L516.9061621276765,108.97201421872819L518.6019659661458,108.78155161747964L520.3992727696759,108.58059225727533L522.2153486977719,108.39952005079857L524.4630569168836,108.22730323642287L526.2473136133535,108.01831713084076L528.0394195653935,107.77793618679084L529.7726081223235,107.56418545627622L531.574847098669,107.32525339745621L533.3758002556424,107.07542552799231L535.1775594486401,106.79769543991995L536.9649827152053,106.56633203140808L538.7635561467737,106.36613377334373L540.5468148938802,106.1621811240471L542.3557708370948,105.96646096893392L544.6162796759259,105.78457176277351L546.4067927472511,105.61796332244575L548.185368808883,105.46692960548916L550.03573965068,105.31506328364594L551.8216084191985,105.12273714454835L553.6025066322338,104.9375431649417L555.3649619733795,104.78242710524171L557.1745896132812,104.63603242322915L558.9544514942853,104.46276035359574L560.7555773732639,104.28738147072454L563.0129388333334,104.10733813078684L564.807520467448,103.95481541717396L566.6041555742911,103.8143001819783L568.3652291393952,103.6438299475825L570.176353703342,103.48684998992297L571.9818743977864,103.34890691750451L573.7559596872829,103.20591272627507L575.5406769757667,103.08515000281932L577.3166046333188,102.95072833371177L579.0988270483941,102.84444238727315L580.902946775463,102.70624139408375L583.1550881927083,102.55822463658791L584.9364086150897,102.40624345546462L586.712489803313,102.26752058444265L588.4986080591725,102.12149443060503L590.303226760923,101.97146500247919L592.0704607442129,101.82388564460939L593.8275808945311,101.68140549315547L595.6621572685185,101.53709338328457L597.4081080625,101.42200139892827L599.1888143621962,101.28497827327254L760.9180618883825,89.45233524443677L762.790982547526,79.72547118589097L764.5012182690972,73.90690686051039L766.2893708063513,72.5257643673549L768.0576795043402,71.28385118327918L769.7930558733361,70.3260579155284L771.6186315117187,69.72460503421252L773.342608228371,69.35573336507099L775.110878543692,68.96864434116395L776.930466485894,68.52092113297988L778.6456151889467,68.48647086632246L781.004901823423,68.78478846600484L782.7771255535301,68.9941693317669L784.5409434793836,69.16953318059205L786.3424531850404,69.01935299967494L788.0632825229311,69.01955585484205L789.798236682581,68.95171752238787L791.6058492324219,68.77436070946658L793.3560413111978,69.02066194056692L795.1382637262732,69.23132978430203L796.9040199768518,69.53991453650809L798.6558817016781,69.52052253421618L801.0023485251013,69.36959843055837L802.7242525776909,69.3593983988224L804.5557967209201,69.40007093030135L806.2984466054687,69.35746114213742L808.0688855415219,69.24813258016883L809.8748092539786,69.2134622340921L811.6568013730468,69.3430573271662L813.405861163122,69.49922011005043L815.1393567813947,69.61065334774077L816.9208691171151,69.7823724690715L819.2545545121527,69.8231637747723L821.0447989048032,69.87337406650471L822.83845935489,69.73521747260105L824.626170491464,69.69095833667672L826.4143038373843,69.70643015517652L828.1933212996961,69.76979568327147L829.9739892167245,69.81269070341989L831.7486118635705,69.76798248138368L833.5123722154225,69.70147342590298L835.3092951922744,69.61389181949113L837.0563590836226,69.5539740742941L839.3333148956162,69.52973931615298L841.1061143657408,69.54658284264923L842.865192032118,69.5683654000864L844.6101064940682,69.6662705939226L846.3885482163629,69.68872206760176L848.1500056081452,69.76293411627688L849.9262787097076,69.77793099366971L851.6892522168691,69.81499991672518L853.507976549045,69.80541507787603L855.2646552986835,69.76391690658335L857.542474720703,69.84788504218778L859.3160994181858,69.8510631196786L861.07452457921,69.86450439693692L862.8468826486545,69.79989909368419L864.611813671875,69.78302135013143L866.3721387749565,69.72623627476725L868.1539005980179,69.59558212324771L869.9051482001591,69.49431011850874L871.7196504388744,69.48338480837111L873.4896671655815,69.4045698060321L875.2122045321903,69.33280761432104L877.512497006221,69.30907165424713L879.2570852154946,69.22032175800132L881.1128872047888,69.1351036167959L882.8678963083767,69.06988210735L884.6416169625289,69.0095028117733L886.4005602895687,68.97990240394967L888.1712103302951,68.91683283239001L889.9265840692275,68.81718484417053L891.6851243782552,68.66326657555862L893.4489998781104,68.48794187407384L895.7299091048899,68.3185897406164L897.5286936411313,68.2445127720099L899.3227187265624,68.16986563259405L901.1214073061343,68.09794540134038L902.8939572889177,67.98811131401317L904.670729365162,67.95064457466276L906.4153559571034,67.88196369209658L908.1939704014032,67.80645167079109L909.9860187794415,67.71641106373175L911.7463822651908,67.63925472206807L913.5039246248552,67.59758415676043L915.7596548215422,67.58052653151526L917.5002896160299,67.56654444979296L919.2874442039207,67.55837610641032L921.0714897957175,67.51761737957219L922.829876574074,67.50518572245988L924.5854806090132,67.41869773163819L926.3992727683737,67.36888776185225L928.1325188993056,67.26244219302225L929.8919036270254,67.20352156040343L931.6757764968171,67.19473308533429L933.3896009978298,67.15545630905302L935.6781867581742,67.15800444699744L937.4619828626302,67.1480225674627L939.223785698423,67.2023722403456L940.9978901792534,67.18370037515217L942.7824347457321,67.16451309465918L944.5762103438223,67.09283549448531L946.3256923432436,67.00562413576921L948.1155912918837,66.93248485244436L949.8888897366897,66.81358803504617L951.6072817751736,66.80179190697078L953.9631139695457,66.75727072232411L955.7007165332755,66.71232540586203L957.4711554693286,66.6834174020533L959.2630311253616,66.64740607228003L961.013798944155,66.61480921829144L962.8110097910156,66.54413511621323L964.5868031092302,66.52742671584059L966.3461302629483,66.45024635779026L968.1151682316261,66.3868574024649L969.8700621872107,66.35628748446993L971.6632428539497,66.32089635112783L973.4938658131509,66.31964574302759L975.283764761791,66.31133724911695L977.0144584453124,66.28249434248994L978.7884669694735,66.25297567182258L980.5423245930266,66.24013228322605L982.2931883684895,66.22344012377533L984.071649282118,66.20727891732156L985.8620855881076,66.18040677910386L987.6154634283131,66.11311228007554L989.3962273020109,66.08422267449731L991.1064438322481,66.03215938705813L993.3993284513889,65.993181827331L995.1785378270398,65.94104599894769L996.9333166346208,65.92042319956613L998.7232923485966,65.87916610610222L1000.5071076443865,65.81681055247196L1002.3071204259983,65.748509876627L1004.0381211708623,65.71017244944147L1005.8179638605324,65.69761567461535L1007.5927016553818,65.6428472478978L1009.3397655467303,65.60220715716599L1011.6892837922453,65.56636756683815L1013.448035205946,65.52711246570658L1015.2194529000288,65.50910571475885L1016.9493213561921,65.47830181331022L1018.7461483763743,65.46672277402689L1020.5239375933158,65.46014615637057L1022.2884655985243,65.42731677194178L1024.073413183015,65.43260514828143L1025.8323757013889,65.39805064473279L1027.5823758668257,65.35563763088044L1029.3564227736545,65.33781895700724L1031.6606302798032,65.34830313720488L1033.3645904351852,65.36262514362556L1035.1987637911602,65.37894215576654L1036.9710067126011,65.37954111008258L1038.7859695433303,65.35459889617431L1040.5034403977863,65.34061186428261L1042.2537092418982,65.30993973237241L1044.0618975317564,65.28607692785789L1045.8112260005064,65.29003129826083L1047.6150578575666,65.29658534889165L1049.9248884245515,65.27815897161975L1051.7281637329284,65.24401850475368L1053.4663228453412,65.2294907877166L1055.2396788641493,65.20240743053233L1057.0227648892505,65.16578675942804L1058.8035287629484,65.13019710129447L1060.5856744126881,65.08763636394275L1062.3725603219038,65.03547290112937L1064.12883605353,64.97430522366545L1065.8885470339264,64.90443721162512L1067.6689078896122,64.83248112538706L1069.9400295360967,64.77978486219962L1071.7356858849103,64.74661287524435L1073.503591564887,64.7119247834463L1075.2881745140335,64.65086765249413L1077.0497662451533,64.59517237205847L1078.7762186438802,64.51095479361305L1080.5395184037181,64.42942645005371L1082.2894418038195,64.36051748252555L1084.0576737364727,64.28093964545462L1085.8597016081453,64.20617144843334L1088.099963589699,64.15954328501459L1089.9449608580005,64.1180753632928L1091.7071283291377,64.12739553868772L1093.4781621965421,64.08363889944553L1095.213768861545,64.03647777395469L1096.9575510347945,63.99537646040443L1098.708549149595,63.94020702400877L1100.4778749882812,63.907665515785766L1102.3177673617622,63.88098484566535L1104.0524528427372,63.8705858692245L1105.7838182229455,63.87080008415677L1108.098772876085,63.853295608494136L1109.8556435390624,63.82983049509028L1111.6811616034433,63.80028014200826L1113.4295880794994,63.77752432660452L1115.1699541953124,63.75447445771812L1116.9367659692564,63.732100221394944L1118.7117340601128,63.68246293185376L1120.5248929054542,63.6157893144545L1122.2549340836226,63.553876037153486L1124.0281365717592,63.507528928316844L1126.3314228938802,63.451168607655916L1128.1290751414208,63.420531878732675L1129.9100501197915,63.40823263626169L1131.6423558753618,63.37208012976953L1133.3875390159865,63.356147951768605L1135.1762672932582,63.329594688835755L1136.9901170266203,63.314743590867124L1138.7393879213685,63.29062988962221L1140.5097692834202,63.265857998165416L1142.2664480330584,63.23031651648404L1144.0387485285012,63.18509436975705L1146.3507477162182,63.166955097501216L1148.1476515017362,63.1399612006183L1149.8704959296874,63.109895143416736L1151.6586676582754,63.06866041576751L1153.410721296441,63.02260218388102L1155.16068307921,62.990699031997224L1156.9279362538339,62.96215287173516L1158.6672852289496,62.92302139486617L1160.4466097526042,62.86893918662901L1162.1864768937355,62.805042364405494L1163.9766061383823,62.74893714516145L1166.2713715082466,62.715873614666975L1168.0209878470052,62.68133738110822L1169.83558604239,62.641089159344574L1171.5754148008534,62.62501117202606L1173.3511313537326,62.618441279770366L1175.15166230136,62.599138512202614L1176.882221645544,62.57027098449112L1178.6698943994502,62.52850883550667L1180.464437650897,62.50089535215744L1182.2058784814092,62.48607083889124L1184.5299298268228,62.474162346696346L1186.2943810666955,62.4744018117043L1188.1226434918258,62.46682957190808L1189.8893017350983,62.434341663211L1191.6350606157407,62.39582736356607L1193.4568363700087,62.355393469170565L1195.2145322603442,62.31095971292768L1196.9899417518807,62.26175919331837L1198.7796871698495,62.22978525093197L1200.5452323157551,62.19060892410772L1202.3221771140045,62.1608152064544L1204.152147567853,62.131230976372876L1205.928766113426,62.10137007497059L1207.7254587942707,62.08693279812843L1209.5010985818142,62.075943033202805L1211.264187236979,62.07704142458596L1213.0168549978298,62.063073349541355L1214.772209545428,62.05335918112269L1216.593793386357,62.03063139778942L1218.3767834547887,62.00149977428708L1220.1498132209201,61.977141167062484L1222.434080931134,61.960222272370004L1224.2344391567563,61.94094279848616L1226.0099446049624,61.941730051622585L1227.7838763637876,61.946928206532846L1229.5730844244067,61.93814975228884L1231.3253491672453,61.922823583146L1233.1124269898003,61.911947420817114L1234.9024602777777,61.887662486997385L1236.6749910692274,61.851032519581054L1238.4635850071613,61.81423019206869L1240.2194961034431,61.78467745087357L1242.5470594629628,61.74782957787943L1244.3166155976562,61.72210746879574L1246.054851475405,61.7051515322529L1247.8803887311196,61.678725626022356L1249.6230386156683,61.658546643119394L1251.4058751534287,61.62930328646979L1253.2156947066696,61.60383622700334L1255.0040583485966,61.57900182192867L1256.7542504273727,61.55097307163953L1258.5170320211948,61.52778111554454L1452.9383138485243,60.82234447069061L1453.579573079861,62.185230901858006L1454.1541808085215,61.52245308926041L1454.6872009165943,60.762611587304264L1455.2889260000723,59.5409214688454L1455.833767969835,58.98815851929112L1456.4078191498118,58.64480852904404L1456.9677455080293,57.61950681320502L1457.5051028575665,57.371581428066406L1458.0773308608218,57.53792443930945L1458.6052844567419,57.655465814015145L1459.1821567628037,57.772191477794536L1459.7396074389467,57.79459803986384L1460.2898805562065,57.81996299275818L1460.8651791728876,57.940877428889166L1461.4050122044994,57.920369585191054L1461.9899640621384,57.974762606522404L1462.552231763093,57.56995789391942L1463.0895315386283,57.29887014844991L1463.669109822772,57.22056401231549L1464.2179243986545,57.123000826101645L1464.8119921399016,57.113290952675584L1465.3946794201388,57.116979750577116L1465.937717404514,57.146135629221476L1466.5445665741463,57.14815787136831L1467.0862611651473,57.205741605034234L1467.6871418299334,57.24540423315108L1468.279520733796,57.19931672951026L1468.8394662833477,57.12517936681883L1469.4642017761862,57.10027076775759L1470.0253947624421,57.132354843467L1470.6395558302952,57.03033597612085L1471.2835402310473,56.91808756090336L1471.9115958246527,56.96190928051067L1480.7767830379773,54.78169410928871L1481.7245470632233,52.78971211723456L1482.7096958069299,51.706159170503895L1483.6484207139033,52.158677958162855L1484.6748500168546,51.88644575042258L1485.662915843316,52.7813549456759L1486.6648953868632,53.40371994427875L1487.770891960214,53.468344401648096L1488.746387462963,53.31190948619815L1489.7768469460357,53.043130708975184L1490.867413686921,53.03465125808225L1491.9149726485098,53.16976767038227L1493.0330981448928,52.982973637258L1494.0380139625288,52.53694309986855L1495.1638351838108,52.333987017203185L1496.1432649100116,52.16827681156815L1497.1743385157697,51.97521036073351L1498.2770725623552,51.817974349180474L1499.280088437934,51.85500848854218L1532.2172728384692,54.337186961938585L1533.1624076509693,57.89571727651179L1534.12569746535,58.40577460349476L1535.0565923080871,58.763627153759444L1536.0204770538194,58.22803264116038L1536.8824174338106,58.029941286717076L1537.8706175996094,57.779805401607916L1538.827842952474,57.63864688093503L1539.8023788885273,56.91091119818549L1540.7949738697916,55.93714558823507L1541.76271607364,55.27878815541459L1542.8636845175058,55.5643524477199L1543.8678518731192,55.8985221561652L1544.8460725452835,55.90321479030894L1545.8654010546875,55.88902852517526L1546.8444469542098,56.0937538349649L1547.9491960908563,55.9824842574609L1548.982515082682,55.89614080291739L1550.0556560923753,55.99275176954228L1551.0767693958333,56.05731396108956L1552.5482841148726,56.12661515069601L1553.764554092882,56.06885932701209L1554.964281141059,55.993819546152906L1556.3027039594183,55.7859961025253L1557.6507032533998,55.55930674160447L1559.0088355716869,55.52657440626308L1560.2408424435039,55.53654425174568" style="fill: none;" fill="none"></path></g></g></g></g><g opacity="0.2"><g><g><g><path stroke="rgb(255, 112, 67)" stroke-width="2px" d="M117.49153402155672,240.8702750639482L119.29784156069154,252.53215063701978L121.54025297164351,260.5491322820837L123.76871228284142,267.05594767223704L126.00966515241609,270.961071415381L128.21275352018228,274.62367724288595L137.8642096838831,308.3310689167543L139.61737641941548,302.13438681580806L141.43546743757233,307.6205441355705L143.22981877567997,304.18632664463735L145.02866088592302,301.0740396922285L146.79537670319732,298.29805940389633L148.57905765964986,298.3325463262471L150.40507469871238,298.10224232348526L152.13354218749998,297.9962815750729L153.94029112731482,296.0262987288562L155.71664099421295,295.7109633088112L157.99256047417535,294.2825543338602L159.77789188534433,292.9291127486662L161.5717058661024,291.3714369860562L163.31358809729454,289.8619240793315L165.12361875520833,286.06806923042643L166.93719980989584,286.54525502161545L168.7266765491898,284.0676896680485L170.52260157667823,282.8236111727628L172.34293798090278,281.22313000939107L174.08171121600117,280.4901177232916L175.84810078059897,279.78483205491847L178.1042148039641,276.40518269755626L179.8793556168258,274.22332519834697L181.6988284110243,272.6671780239452L183.45719599804684,271.9733222506263L185.24438896860534,271.18920580907303L187.012544135923,269.29775048385966L188.79351911429396,267.6215844804591L190.57599101671008,265.69414323026484L192.3351070657552,264.3578563495116L194.08679606857638,262.02074852856725L216.76596300578703,232.27272575551817L218.59629809497974,219.03817946260628L220.39431497786455,216.38713414018807L222.11909773054106,212.63738892295146L223.8980768101852,210.42424960569903L225.70578531669557,209.34525370597842L227.5148755992477,209.60100130601364L229.3136409441551,201.47436564618894L231.07252669719327,198.1739267435941L232.8782968789786,199.2148262804205L234.61975690082465,194.76830124855044L236.90208628631362,190.24517915465617L238.67774526519096,186.68105385520244L240.43494218084493,186.01049672473562L242.20167718945314,186.45726854150948L244.0038010177951,187.08068598400465L245.78788499225982,184.62113824757665L247.60753050846353,183.62375909631905L249.3696979796007,180.8600223064423L251.1749883780382,180.4893347350034L252.95243215096932,179.76564190604472L254.76192545153356,177.2580176050013L256.9945684735243,176.7559897899628L258.80724753551794,174.93603294545957L260.5739249701244,173.5108857805079L262.3357278059172,173.3674647591331L264.1355870568576,171.96302749893886L265.9089430756655,170.67727771672338L267.6898220973669,168.15738526257604L269.4155260340712,167.30095180598173L271.17425825643807,166.83518604798752L272.97728407747394,166.3276454535398L275.2290992420428,164.66370322487575L276.99967251743345,164.58735270933673L278.7778455610532,163.50574341687292L280.52373878103293,162.6892603527416L282.33238766290503,162.54435019059616L284.1096395224971,161.78997711701828L285.9089230334201,160.54791537198156L287.7330785130931,158.79694223403934L289.50015896571176,158.1606156175787L291.2657041116174,157.78010563416916L293.07498630750865,156.68281598524615L295.299434629919,156.4100369540128L297.11290053660304,155.78341440720993L298.84633858087386,154.89454529502177L300.6481169652054,154.453305981376L302.44406118402776,153.74135862697258L304.24708700506363,153.3710458061912L306.0073737254774,152.8788009556857L307.75854456228296,152.6488421180032L309.52445434353297,151.93811763416642L311.34736238650174,151.25405961816963L313.55256180099826,150.48347364772454L315.3657398376736,149.83862638473514L317.08614696621817,149.4136196916754L318.87303287543403,148.90770630403L320.63928810069444,148.1461537968029L322.388060020761,147.76424342935738L324.18325577756076,147.2161015597257L325.92156842064526,147.09854819557887L327.6352777736545,146.16624745455655L329.46772390957756,145.4475545883179L331.270845687283,144.9384065107866L333.10427058123554,144.15148930116135L334.85634341073495,143.600408597426L336.62259863599536,143.10029398311272L338.3955516367911,142.58392702449456L340.18825252018223,141.6863991997459L341.9566955575087,141.1509594050321L343.752428671658,140.69816199215978L345.53870045818866,139.99929146333176L347.2953216338252,139.60600051012906L349.05190442679395,139.24322214993566L350.8408246174045,138.43612757596105L353.07839981221065,138.0156376145103L354.8657271221065,137.57907282222405L356.6708831812066,137.1959198604931L358.42654479014755,136.64696931838992L360.2220092256221,135.97431161186915L361.98718973618344,135.45216560363772L363.8030161769386,135.0745155594566L365.593279760923,134.5282868905501L367.3646206896701,134.15105104446414L369.123794312717,133.57026642019102L371.3989077566551,133.24192567305133L373.20350726707176,132.83616932955655L374.9921395876736,132.34041365710172L376.7497970953414,131.78169987418437L378.57237888563367,131.19811448183927L380.3359857068142,130.91091741215104L382.12175851866317,130.4053393277255L383.8888773539496,129.98171329498294L385.6450571289062,129.5548328486356L387.4283734500145,129.213474447077L389.23368303978583,128.88896010138774L391.42289607313364,128.3921590718356L393.2518877689525,128.00876942547887L395.0252245964265,127.71080320531675L396.81184182696757,127.30354785919192L398.5869442571614,126.99747519059616L400.3841742953559,126.61655100909147L402.12001125636573,126.35878172787756L403.89791562131074,125.88592529296878L405.70932805526616,125.46261483972725L407.44476199826386,125.27042692357847L409.7167856374421,124.9542359872298L411.4622758394097,124.58477128635758L413.2540171561053,124.24863967028531L415.0529744143518,123.96515065973458L416.81086221802656,123.61730315468532L418.5895342363281,123.20714842189446L420.36112465241604,122.83973498777911L422.1237335242332,122.50411618839615L423.89945007711225,122.16737313704058L425.7125705397859,121.7871590094133L427.4919526374421,121.30801070820206L429.7251905907841,120.90546933087438L431.52942546585643,120.63803542744034L433.3437549825665,120.35501978614116L435.0998771835214,120.17872918735856L436.92861939199935,119.86535874280065L438.68652638700803,119.6728552471508L440.48563717592594,119.32502746582034L442.2494742931134,118.97577957673508L444.0665097879051,118.79674738103697L445.81453324594906,118.41521176424894L447.66780197916665,118.19042054089635L449.4481436435185,117.8435592217879L451.2497876885127,117.60444857857448L453.0771289296151,117.25624604658648L454.8409660468026,116.90705732865769L456.59131165625,116.52591618624601L458.3667403391203,116.34439880197701L460.13147944900174,116.07183673165065L461.94258482161456,115.87162126194352L463.7170155551215,115.68710587241435L465.5092750378327,115.40854779156774L467.7633739711371,115.2584108439359L469.5738844123987,114.90012949163267L471.3557805747974,114.67687671834776L473.1554095297309,114.40975839441475L474.8975604395977,114.08938602967697L476.6998761812789,113.95331209356138L478.4521984981192,113.778283812783L480.22044962210646,113.53576096621427L482.01923415834773,113.22718338532883L483.7309476126302,112.98255010084674L485.93225118634257,112.62255278500646L487.76110854282405,112.3437974669717L489.5620808911313,112.0559889620001L491.3410599707754,111.7400149865584L493.11877242238137,111.56727465716276L494.90343213686344,111.2934108213945L496.6876888333333,111.10197240656075L498.4665527649739,110.90203306891706L500.23466954962385,110.65743923187259L502.00480142433446,110.48166144977921L503.87148489995656,110.21089423786515L506.0952615256799,109.90708979693326L507.86859835315386,109.61456732316452L509.6503409848813,109.45052515376702L511.455593000651,109.29896809838039L513.2856594111689,109.12504434585574L515.0558104772135,108.88717629692775L516.9061621276765,108.63043264909226L518.6019659661458,108.49585771560672L520.3992727696759,108.27915321696892L522.2153486977719,108.12791174108335L524.4630569168836,107.96897801485932L526.2473136133535,107.7048379724676L528.0394195653935,107.41736477071589L529.7726081223235,107.24355936050421L531.574847098669,106.96685530922633L533.3758002556424,106.70068372379654L535.1775594486401,106.38110030781144L536.9649827152053,106.2192869186402L538.7635561467737,106.06583638624716L540.5468148938802,105.85625215010214L542.3557708370948,105.67288073626435L544.6162796759259,105.51173795353287L546.4067927472511,105.36805066195404L548.185368808883,105.24037903005427L550.03573965068,105.08726380088115L551.8216084191985,104.83424793590206L553.6025066322338,104.65975219553167L555.3649619733795,104.54975301569158L557.1745896132812,104.41644040021032L558.9544514942853,104.20285224914556L560.7555773732639,104.0243131464178L563.0129388333334,103.83727312088018L564.807520467448,103.72603134675461L566.6041555742911,103.60352732918483L568.3652291393952,103.38812459598893L570.176353703342,103.25138005343354L571.9818743977864,103.14199230887675L573.7559596872829,102.99142143943095L575.5406769757667,102.90400591763586L577.3166046333188,102.74909583005041L579.0988270483941,102.6850134676153L580.902946775463,102.49893990429968L583.1550881927083,102.33619950034404L584.9364086150897,102.17827168377966L586.712489803313,102.05943627790975L588.4986080591725,101.90245519984859L590.303226760923,101.74642086029058L592.0704607442129,101.60251660780477L593.8275808945311,101.46768526597458L595.6621572685185,101.32062521847814L597.4081080625,101.24936342239386L599.1888143621962,101.07944358478898L760.9180618883825,71.70337070118302L762.790982547526,65.13517509807247L764.5012182690972,65.17906037243932L766.2893708063513,70.45405062762177L768.0576795043402,69.42098140716558L769.7930558733361,68.88936801390219L771.6186315117187,68.82242571223873L773.342608228371,68.8024258613587L775.110878543692,68.3880108053034L776.930466485894,67.84933632070369L778.6456151889467,68.43479546633637L781.004901823423,69.23226486552852L782.7771255535301,69.30824063040995L784.5409434793836,69.4325789538297L786.3424531850404,68.79408272829926L788.0632825229311,69.01986013759273L789.798236682581,68.84996002370661L791.6058492324219,68.50832549008459L793.3560413111978,69.39011378721762L795.1382637262732,69.54733154990458L796.9040199768518,70.00279166481715L798.6558817016781,69.4914345307784L801.0023485251013,69.14321227507162L802.7242525776909,69.34409835121852L804.5557967209201,69.46107972751969L806.2984466054687,69.29354645989162L808.0688855415219,69.08413973721593L809.8748092539786,69.16145671497696L811.6568013730468,69.5374499667775L813.405861163122,69.73346428437668L815.1393567813947,69.77780320427638L816.9208691171151,70.03995115106756L819.2545545121527,69.88435073332357L821.0447989048032,69.94868950410324L822.83845935489,69.52798258174556L824.626170491464,69.62456963279033L826.4143038373843,69.72963788292628L828.1933212996961,69.86484397541398L829.9739892167245,69.87703323364263L831.7486118635705,69.70092014832932L833.5123722154225,69.60170984268194L835.3092951922744,69.4825194098733L837.0563590836226,69.46409745649862L839.3333148956162,69.49338717894125L841.1061143657408,69.5718481323936L842.865192032118,69.60103923624212L844.6101064940682,69.81312838467687L846.3885482163629,69.72239927812058L848.1500056081452,69.8742521892895L849.9262787097076,69.80042630975896L851.6892522168691,69.87060330130839L853.507976549045,69.79103781960231L855.2646552986835,69.70166964964437L857.542474720703,69.97383724559444L859.3160994181858,69.85583023591477L861.07452457921,69.88466631282466L862.8468826486545,69.70299113880509L864.611813671875,69.7577047348023L866.3721387749565,69.64105866172099L868.1539005980179,69.39960089596838L869.9051482001591,69.3424021114003L871.7196504388744,69.46699684316462L873.4896671655815,69.28634730252355L875.2122045321903,69.22516432675451L877.512497006221,69.2734677141363L879.2570852154946,69.08719691363251L881.1128872047888,69.00727640498775L882.8678963083767,68.97204984318131L884.6416169625289,68.91893386840826L886.4005602895687,68.93550179221415L888.1712103302951,68.82222847505051L889.9265840692275,68.66771286184138L891.6851243782552,68.43238917264074L893.4489998781104,68.22495482184672L895.7299091048899,68.06456154043025L897.5286936411313,68.13339731910014L899.3227187265624,68.05789492347026L901.1214073061343,67.99006505446005L902.8939572889177,67.82336018302226L904.670729365162,67.89444446563726L906.4153559571034,67.77894236824733L908.1939704014032,67.6931836388328L909.9860187794415,67.58135015314275L911.7463822651908,67.52352020957255L913.5039246248552,67.53507830879909L915.7596548215422,67.55494009364742L917.5002896160299,67.54557132720953L919.2874442039207,67.54612359133637L921.0714897957175,67.45647928931498L922.829876574074,67.48653823679143L924.5854806090132,67.28896574540573L926.3992727683737,67.29417280717331L928.1325188993056,67.10277383977717L929.8919036270254,67.11514061147517L931.6757764968171,67.18155037273067L933.3896009978298,67.09654114463115L935.6781867581742,67.16182665391403L937.4619828626302,67.13304974816066L939.223785698423,67.28389674966985L940.9978901792534,67.15569257736212L942.7824347457321,67.13573217391973L944.5762103438223,66.98531909422445L946.3256923432436,66.87480709769511L948.1155912918837,66.82277592745697L949.8888897366897,66.63524280894893L951.6072817751736,66.78409771485764L953.9631139695457,66.69048894535416L955.7007165332755,66.64490743116903L957.4711554693286,66.64005539634013L959.2630311253616,66.59338907762009L961.013798944155,66.56591393730861L962.8110097910156,66.43812396309596L964.5868031092302,66.50236411528158L966.3461302629483,66.33447582071477L968.1151682316261,66.29177396947688L969.8700621872107,66.31043260747737L971.6632428539497,66.26780965111476L973.4938658131509,66.31776983087713L975.283764761791,66.29887450825089L977.0144584453124,66.23922998254949L978.7884669694735,66.20869766582149L980.5423245930266,66.22086720033127L982.2931883684895,66.1984018845992L984.071649282118,66.18303710764104L985.8620855881076,66.1400985717774L987.6154634283131,66.012170531533L989.3962273020109,66.04088826612997L991.1064438322481,65.95406445589936L993.3993284513889,65.93471548774028L995.1785378270398,65.86284225637263L996.9333166346208,65.88948900049382L998.7232923485966,65.81728046590632L1000.5071076443865,65.72327722202652L1002.3071204259983,65.64605886285955L1004.0381211708623,65.65266630866313L1005.8179638605324,65.6787805123763L1007.5927016553818,65.5606946078214L1009.3397655467303,65.54124702106827L1011.6892837922453,65.5126081813466L1013.448035205946,65.46822981400925L1015.2194529000288,65.48209558833736L1016.9493213561921,65.43209596113729L1018.7461483763743,65.44935421510178L1020.5239375933158,65.45028122988617L1022.2884655985243,65.37807269529867L1024.073413183015,65.44053771279079L1025.8323757013889,65.34621888940984L1027.5823758668257,65.29201811010188L1029.3564227736545,65.31109094619757L1031.6606302798032,65.36402940750128L1033.3645904351852,65.38410815325653L1035.1987637911602,65.40341767397797L1036.9710067126011,65.38043954155665L1038.7859695433303,65.31718557531184L1040.5034403977863,65.31963131644511L1042.2537092418982,65.2639315345071L1044.0618975317564,65.25028272108602L1045.8112260005064,65.2959628538652L1047.6150578575666,65.306416424838L1049.9248884245515,65.25051940571183L1051.7281637329284,65.1928078044545L1053.4663228453412,65.207699212161L1055.2396788641493,65.16178239475602L1057.0227648892505,65.11085575277156L1058.8035287629484,65.0768126140942L1060.5856744126881,65.0237952579152L1062.3725603219038,64.95722770690924L1064.12883605353,64.88255370746964L1065.8885470339264,64.79963519356471L1067.6689078896122,64.72454699602997L1069.9400295360967,64.70074046741837L1071.7356858849103,64.69685489481145L1073.503591564887,64.65989264574921L1075.2881745140335,64.55928195606583L1077.0497662451533,64.51162945140499L1078.7762186438802,64.38462842594498L1080.5395184037181,64.30713393471461L1082.2894418038195,64.25715403123337L1084.0576737364727,64.16157288984823L1085.8597016081453,64.09401915290141L1088.099963589699,64.08960103988653L1089.9449608580005,64.05587348071015L1091.7071283291377,64.14137580178004L1093.4781621965421,64.01800394058233L1095.213768861545,63.96573608571833L1096.9575510347945,63.933724490079044L1098.708549149595,63.85745286941534L1100.4778749882812,63.85885325345129L1102.3177673617622,63.840963840484676L1104.0524528427372,63.854987404563246L1105.7838182229455,63.87112140655523L1108.098772876085,63.82703889500016L1109.8556435390624,63.79463282498449L1111.6811616034433,63.75595461238521L1113.4295880794994,63.743390603498995L1115.1699541953124,63.719899654388485L1116.9367659692564,63.6985388669101L1118.7117340601128,63.60800699754196L1120.5248929054542,63.51577888835567L1122.2549340836226,63.46100612120199L1124.0281365717592,63.43800826506185L1126.3314228938802,63.36662812666464L1128.1290751414208,63.3745767853477L1129.9100501197915,63.38978377255529L1131.6423558753618,63.31785137003118L1133.3875390159865,63.332249684767305L1135.1762672932582,63.289764794436394L1136.9901170266203,63.292466943914235L1138.7393879213685,63.254459337754724L1140.5097692834202,63.22870016098028L1142.2664480330584,63.177004293962L1144.0387485285012,63.11726114966655L1146.3507477162182,63.13974618911749L1148.1476515017362,63.09947035529399L1149.8704959296874,63.064796057614444L1151.6586676582754,63.00680832429367L1153.410721296441,62.95351483605128L1155.16068307921,62.9428443041715L1156.9279362538339,62.91933363134211L1158.6672852289496,62.864324179562686L1160.4466097526042,62.78781587427312L1162.1864768937355,62.709197131070255L1163.9766061383823,62.66477931629532L1166.2713715082466,62.66627831892538L1168.0209878470052,62.62953303077006L1169.83558604239,62.58071682669902L1171.5754148008534,62.60089419104838L1173.3511313537326,62.608586441386876L1175.15166230136,62.57018436085099L1176.882221645544,62.52696969292384L1178.6698943994502,62.465865612030086L1180.464437650897,62.45947512713349L1182.2058784814092,62.46383406899196L1184.5299298268228,62.45629960840398L1186.2943810666955,62.474761009216365L1188.1226434918258,62.455471212213695L1189.8893017350983,62.385609800165355L1191.6350606157407,62.33805591409856L1193.4568363700087,62.294742627577364L1195.2145322603442,62.24430907856339L1196.9899417518807,62.18795841390437L1198.7796871698495,62.18182433735245L1200.5452323157551,62.13184443387121L1202.3221771140045,62.11612462997442L1204.152147567853,62.08685463125056L1205.928766113426,62.05657872286713L1207.7254587942707,62.06527688286525L1209.5010985818142,62.05945838581437L1211.264187236979,62.078689011660515L1213.0168549978298,62.04212123697454L1214.772209545428,62.03878792849457L1216.593793386357,61.996539722789464L1218.3767834547887,61.95780233903366L1220.1498132209201,61.94060325622564L1222.434080931134,61.93484393033117L1224.2344391567563,61.91202358766037L1226.0099446049624,61.94291093132716L1227.7838763637876,61.954725438898265L1229.5730844244067,61.92498207092291L1231.3253491672453,61.89983432943171L1233.1124269898003,61.895633177323816L1234.9024602777777,61.85123508626765L1236.6749910692274,61.79608756845647L1238.4635850071613,61.75902670080012L1240.2194961034431,61.74034833908087L1242.5470594629628,61.69255776838827L1244.3166155976562,61.68352430517024L1246.054851475405,61.67971762743866L1247.8803887311196,61.639086766676485L1249.6230386156683,61.62827816876501L1251.4058751534287,61.58543825149542L1253.2156947066696,61.56563563780355L1255.0040583485966,61.541750214316664L1256.7542504273727,61.50892994620585L1258.5170320211948,61.49299318140203L1452.9383138485243,59.76418950340968L1453.579573079861,64.22956054860896L1454.1541808085215,60.52828637036413L1454.6872009165943,59.62284933437007L1455.2889260000723,57.70838629115718L1455.833767969835,58.15901409495967L1456.4078191498118,58.129783543673454L1456.9677455080293,56.08155423944646L1457.5051028575665,56.999693350358484L1458.0773308608218,57.787438956174014L1458.6052844567419,57.83177787607366L1459.1821567628037,57.947279973463594L1459.7396074389467,57.82820788296789L1460.2898805562065,57.85801042209977L1460.8651791728876,58.122249083085535L1461.4050122044994,57.88960781964391L1461.9899640621384,58.056352138519344L1462.552231763093,56.96275082501501L1463.0895315386283,56.89223853024572L1463.669109822772,57.10310480811381L1464.2179243986545,56.976656046780704L1464.8119921399016,57.09872614253658L1465.3946794201388,57.12251294742936L1465.937717404514,57.18986944718796L1466.5445665741463,57.15119123458868L1467.0862611651473,57.292117205533145L1467.6871418299334,57.30489817532629L1468.279520733796,57.13018547404903L1468.8394662833477,57.01397332278168L1469.4642017761862,57.0629078691656L1470.0253947624421,57.18048095703131L1470.6395558302952,56.87730767510158L1471.2835402310473,56.74971493807709L1471.9115958246527,57.02764185992157L1480.7767830379773,51.51137135245585L1481.7245470632233,49.80173912915319L1482.7096958069299,50.08082975040787L1483.6484207139033,52.83745613965124L1484.6748500168546,51.47809743881231L1485.662915843316,54.123718738555965L1486.6648953868632,54.33726744218308L1487.770891960214,53.565281087701976L1488.746387462963,53.07725711302328L1489.7768469460357,52.639962543140825L1490.867413686921,53.02193208174276L1491.9149726485098,53.37244228883225L1493.0330981448928,52.70278258757162L1494.0380139625288,51.86789729378444L1495.1638351838108,52.029552893205164L1496.1432649100116,51.91971150311559L1497.1743385157697,51.68561068448156L1498.2770725623552,51.582120331850945L1499.280088437934,51.91055969758469L1532.2172728384692,58.06045467203313L1533.1624076509693,63.23351274837154L1534.12569746535,59.17086059396917L1535.0565923080871,59.30040597915655L1536.0204770538194,57.42464087226176L1536.8824174338106,57.73280425505209L1537.8706175996094,57.40460157394415L1538.827842952474,57.426909099925695L1539.8023788885273,55.819307674061236L1540.7949738697916,54.47649717330938L1541.76271607364,54.29125200618404L1542.8636845175058,55.99269888617778L1543.8678518731192,56.399776718833266L1544.8460725452835,55.91025374152446L1545.8654010546875,55.867749127474724L1546.8444469542098,56.400841799649356L1547.9491960908563,55.81557989120489L1548.982515082682,55.766625621102094L1550.0556560923753,56.13766821947968L1551.0767693958333,56.15415724841034L1552.5482841148726,56.2305669351058L1553.764554092882,55.982225591486156L1554.964281141059,55.8812598748641L1556.3027039594183,55.4742609370839L1557.6507032533998,55.21927270022309L1559.0088355716869,55.47747590325099L1560.2408424435039,55.55149901996964" style="fill: none;" fill="none"></path></g></g></g></g></g></g><g transform="translate(68, 364)" clip-path="url(#clip_1)"><clipPath id="clip_1"><rect width="1658" height="35"></rect></clipPath><g><g visibility="inherit"><g><g transform="translate(103.633203125,0)" style="visibility: inherit;"><text transform="translate(0,15)" style="text-anchor: middle; font-family: &quot;Helvetica Neue&quot;, sans-serif; font-size: 12px; font-weight: 200;" fill="rgb(50, 49, 63)" stroke="none" stroke-width="1px">10 PM</text></g><g transform="translate(310.89960937499995,0)" style="visibility: inherit;"><text transform="translate(0,15)" style="text-anchor: middle; font-family: &quot;Helvetica Neue&quot;, sans-serif; font-size: 12px; font-weight: 200;" fill="rgb(50, 49, 63)" stroke="none" stroke-width="1px">01 AM</text></g><g transform="translate(518.166015625,0)" style="visibility: inherit;"><text transform="translate(0,15)" style="text-anchor: middle; font-family: &quot;Helvetica Neue&quot;, sans-serif; font-size: 12px; font-weight: 200;" fill="rgb(50, 49, 63)" stroke="none" stroke-width="1px">04 AM</text></g><g transform="translate(725.4324218749999,0)" style="visibility: inherit;"><text transform="translate(0,15)" style="text-anchor: middle; font-family: &quot;Helvetica Neue&quot;, sans-serif; font-size: 12px; font-weight: 200;" fill="rgb(50, 49, 63)" stroke="none" stroke-width="1px">07 AM</text></g><g transform="translate(932.698828125,0)" style="visibility: inherit;"><text transform="translate(0,15)" style="text-anchor: middle; font-family: &quot;Helvetica Neue&quot;, sans-serif; font-size: 12px; font-weight: 200;" fill="rgb(50, 49, 63)" stroke="none" stroke-width="1px">10 AM</text></g><g transform="translate(1139.965234375,0)" style="visibility: inherit;"><text transform="translate(0,15)" style="text-anchor: middle; font-family: &quot;Helvetica Neue&quot;, sans-serif; font-size: 12px; font-weight: 200;" fill="rgb(50, 49, 63)" stroke="none" stroke-width="1px">01 PM</text></g><g transform="translate(1347.231640625,0)" style="visibility: inherit;"><text transform="translate(0,15)" style="text-anchor: middle; font-family: &quot;Helvetica Neue&quot;, sans-serif; font-size: 12px; font-weight: 200;" fill="rgb(50, 49, 63)" stroke="none" stroke-width="1px">04 PM</text></g><g transform="translate(1554.498046875,0)" style="visibility: inherit;"><text transform="translate(0,15)" style="text-anchor: middle; font-family: &quot;Helvetica Neue&quot;, sans-serif; font-size: 12px; font-weight: 200;" fill="rgb(50, 49, 63)" stroke="none" stroke-width="1px">07 PM</text></g></g><g><line x1="0" y1="0" x2="0" y2="18" fill="rgb(0, 0, 0)" stroke="rgb(204, 204, 204)" stroke-width="1px"></line><line x1="207.26640625" y1="0" x2="207.26640625" y2="18" fill="rgb(0, 0, 0)" stroke="rgb(204, 204, 204)" stroke-width="1px"></line><line x1="414.5328125" y1="0" x2="414.5328125" y2="18" fill="rgb(0, 0, 0)" stroke="rgb(204, 204, 204)" stroke-width="1px"></line><line x1="621.7992187499999" y1="0" x2="621.7992187499999" y2="18" fill="rgb(0, 0, 0)" stroke="rgb(204, 204, 204)" stroke-width="1px"></line><line x1="829.065625" y1="0" x2="829.065625" y2="18" fill="rgb(0, 0, 0)" stroke="rgb(204, 204, 204)" stroke-width="1px"></line><line x1="1036.33203125" y1="0" x2="1036.33203125" y2="18" fill="rgb(0, 0, 0)" stroke="rgb(204, 204, 204)" stroke-width="1px"></line><line x1="1243.5984374999998" y1="0" x2="1243.5984374999998" y2="18" fill="rgb(0, 0, 0)" stroke="rgb(204, 204, 204)" stroke-width="1px"></line><line x1="1450.8648437499999" y1="0" x2="1450.8648437499999" y2="18" fill="rgb(0, 0, 0)" stroke="rgb(204, 204, 204)" stroke-width="1px"></line><line x1="1658.13125" y1="0" x2="1658.13125" y2="18" fill="rgb(0, 0, 0)" stroke="rgb(204, 204, 204)" stroke-width="1px"></line></g><line x1="0" y1="0" x2="1658.13125" y2="0" style="visibility: inherit;" fill="rgb(0, 0, 0)" stroke="rgb(204, 204, 204)" stroke-width="1px"></line></g><g visibility="inherit"><g><g transform="translate(103.633203125,0)" style="visibility: inherit;"><text transform="translate(0,33)" style="text-anchor: middle; font-family: &quot;Helvetica Neue&quot;, sans-serif; font-size: 12px; font-weight: 200;" fill="rgb(50, 49, 63)" stroke="none" stroke-width="1px">December 15, 2018</text></g><g transform="translate(310.89960937499995,0)" style="visibility: inherit;"><text transform="translate(0,33)" style="text-anchor: middle; font-family: &quot;Helvetica Neue&quot;, sans-serif; font-size: 12px; font-weight: 200;" fill="rgb(50, 49, 63)" stroke="none" stroke-width="1px">December 16, 2018</text></g><g transform="translate(518.166015625,0)" style="visibility: inherit;"><text transform="translate(0,33)" style="text-anchor: middle; font-family: &quot;Helvetica Neue&quot;, sans-serif; font-size: 12px; font-weight: 200;" fill="rgb(50, 49, 63)" stroke="none" stroke-width="1px">December 16, 2018</text></g><g transform="translate(725.4324218749999,0)" style="visibility: inherit;"><text transform="translate(0,33)" style="text-anchor: middle; font-family: &quot;Helvetica Neue&quot;, sans-serif; font-size: 12px; font-weight: 200;" fill="rgb(50, 49, 63)" stroke="none" stroke-width="1px">December 16, 2018</text></g><g transform="translate(932.698828125,0)" style="visibility: inherit;"><text transform="translate(0,33)" style="text-anchor: middle; font-family: &quot;Helvetica Neue&quot;, sans-serif; font-size: 12px; font-weight: 200;" fill="rgb(50, 49, 63)" stroke="none" stroke-width="1px">December 16, 2018</text></g><g transform="translate(1139.965234375,0)" style="visibility: inherit;"><text transform="translate(0,33)" style="text-anchor: middle; font-family: &quot;Helvetica Neue&quot;, sans-serif; font-size: 12px; font-weight: 200;" fill="rgb(50, 49, 63)" stroke="none" stroke-width="1px">December 16, 2018</text></g><g transform="translate(1347.231640625,0)" style="visibility: inherit;"><text transform="translate(0,33)" style="text-anchor: middle; font-family: &quot;Helvetica Neue&quot;, sans-serif; font-size: 12px; font-weight: 200;" fill="rgb(50, 49, 63)" stroke="none" stroke-width="1px">December 16, 2018</text></g><g transform="translate(1554.498046875,0)" style="visibility: inherit;"><text transform="translate(0,33)" style="text-anchor: middle; font-family: &quot;Helvetica Neue&quot;, sans-serif; font-size: 12px; font-weight: 200;" fill="rgb(50, 49, 63)" stroke="none" stroke-width="1px">December 16, 2018</text></g></g><g><line x1="0" y1="18" x2="0" y2="36" fill="rgb(0, 0, 0)" stroke="rgb(204, 204, 204)" stroke-width="1px"></line><line x1="207.26640625" y1="18" x2="207.26640625" y2="36" fill="rgb(0, 0, 0)" stroke="rgb(204, 204, 204)" stroke-width="1px"></line><line x1="414.5328125" y1="18" x2="414.5328125" y2="36" fill="rgb(0, 0, 0)" stroke="rgb(204, 204, 204)" stroke-width="1px"></line><line x1="621.7992187499999" y1="18" x2="621.7992187499999" y2="36" fill="rgb(0, 0, 0)" stroke="rgb(204, 204, 204)" stroke-width="1px"></line><line x1="829.065625" y1="18" x2="829.065625" y2="36" fill="rgb(0, 0, 0)" stroke="rgb(204, 204, 204)" stroke-width="1px"></line><line x1="1036.33203125" y1="18" x2="1036.33203125" y2="36" fill="rgb(0, 0, 0)" stroke="rgb(204, 204, 204)" stroke-width="1px"></line><line x1="1243.5984374999998" y1="18" x2="1243.5984374999998" y2="36" fill="rgb(0, 0, 0)" stroke="rgb(204, 204, 204)" stroke-width="1px"></line><line x1="1450.8648437499999" y1="18" x2="1450.8648437499999" y2="36" fill="rgb(0, 0, 0)" stroke="rgb(204, 204, 204)" stroke-width="1px"></line><line x1="1658.13125" y1="18" x2="1658.13125" y2="36" fill="rgb(0, 0, 0)" stroke="rgb(204, 204, 204)" stroke-width="1px"></line></g><line x1="0" y1="18" x2="1658.13125" y2="18" style="visibility: inherit;" fill="rgb(0, 0, 0)" stroke="rgb(204, 204, 204)" stroke-width="1px"></line></g></g></g></g></g></svg>