<svg viewBox="0 0 1726.354248046875 400.0000305175781" xmlns="http://www.w3.org/2000/svg"><g><g><g><g><g><line x1="58.515625" y1="364" x2="53.515625" y2="364" style="visibility: inherit;" fill="rgb(0, 0, 0)" stroke="rgb(204, 204, 204)" stroke-width="1px"></line><line x1="58.515625" y1="318.5" x2="53.515625" y2="318.5" style="visibility: inherit;" fill="rgb(0, 0, 0)" stroke="rgb(204, 204, 204)" stroke-width="1px"></line><line x1="58.515625" y1="273" x2="53.515625" y2="273" style="visibility: inherit;" fill="rgb(0, 0, 0)" stroke="rgb(204, 204, 204)" stroke-width="1px"></line><line x1="58.515625" y1="227.5" x2="53.515625" y2="227.5" style="visibility: inherit;" fill="rgb(0, 0, 0)" stroke="rgb(204, 204, 204)" stroke-width="1px"></line><line x1="58.515625" y1="182" x2="53.515625" y2="182" style="visibility: inherit;" fill="rgb(0, 0, 0)" stroke="rgb(204, 204, 204)" stroke-width="1px"></line><line x1="58.515625" y1="136.5" x2="53.515625" y2="136.5" style="visibility: inherit;" fill="rgb(0, 0, 0)" stroke="rgb(204, 204, 204)" stroke-width="1px"></line><line x1="58.515625" y1="91" x2="53.515625" y2="91" style="visibility: inherit;" fill="rgb(0, 0, 0)" stroke="rgb(204, 204, 204)" stroke-width="1px"></line><line x1="58.515625" y1="45.5" x2="53.515625" y2="45.5" style="visibility: inherit;" fill="rgb(0, 0, 0)" stroke="rgb(204, 204, 204)" stroke-width="1px"></line><line x1="58.515625" y1="0" x2="53.515625" y2="0" style="visibility: inherit;" fill="rgb(0, 0, 0)" stroke="rgb(204, 204, 204)" stroke-width="1px"></line></g><g transform="translate(48.515625, 0)"><text x="0" y="364" dx="0em" dy="0.3em" style="text-anchor: end; visibility: hidden; font-family: &quot;Helvetica Neue&quot;, sans-serif; font-size: 12px; font-weight: 200;" fill="rgb(50, 49, 63)" stroke="none" stroke-width="1px">-1.00</text><text x="0" y="318.5" dx="0em" dy="0.3em" style="text-anchor: end; visibility: inherit; font-family: &quot;Helvetica Neue&quot;, sans-serif; font-size: 12px; font-weight: 200;" fill="rgb(50, 49, 63)" stroke="none" stroke-width="1px">0.00</text><text x="0" y="273" dx="0em" dy="0.3em" style="text-anchor: end; visibility: inherit; font-family: &quot;Helvetica Neue&quot;, sans-serif; font-size: 12px; font-weight: 200;" fill="rgb(50, 49, 63)" stroke="none" stroke-width="1px">1.00</text><text x="0" y="227.5" dx="0em" dy="0.3em" style="text-anchor: end; visibility: inherit; font-family: &quot;Helvetica Neue&quot;, sans-serif; font-size: 12px; font-weight: 200;" fill="rgb(50, 49, 63)" stroke="none" stroke-width="1px">2.00</text><text x="0" y="182" dx="0em" dy="0.3em" style="text-anchor: end; visibility: inherit; font-family: &quot;Helvetica Neue&quot;, sans-serif; font-size: 12px; font-weight: 200;" fill="rgb(50, 49, 63)" stroke="none" stroke-width="1px">3.00</text><text x="0" y="136.5" dx="0em" dy="0.3em" style="text-anchor: end; visibility: inherit; font-family: &quot;Helvetica Neue&quot;, sans-serif; font-size: 12px; font-weight: 200;" fill="rgb(50, 49, 63)" stroke="none" stroke-width="1px">4.00</text><text x="0" y="91" dx="0em" dy="0.3em" style="text-anchor: end; visibility: inherit; font-family: &quot;Helvetica Neue&quot;, sans-serif; font-size: 12px; font-weight: 200;" fill="rgb(50, 49, 63)" stroke="none" stroke-width="1px">5.00</text><text x="0" y="45.5" dx="0em" dy="0.3em" style="text-anchor: end; visibility: inherit; font-family: &quot;Helvetica Neue&quot;, sans-serif; font-size: 12px; font-weight: 200;" fill="rgb(50, 49, 63)" stroke="none" stroke-width="1px">6.00</text><text x="0" y="0" dx="0em" dy="0.3em" style="text-anchor: end; visibility: hidden; font-family: &quot;Helvetica Neue&quot;, sans-serif; font-size: 12px; font-weight: 200;" fill="rgb(50, 49, 63)" stroke="none" stroke-width="1px">7.00</text></g><line x1="58.515625" y1="0" x2="58.515625" y2="364" fill="rgb(0, 0, 0)" stroke="rgb(204, 204, 204)" stroke-width="1px"></line></g></g><g transform="translate(58, 0)" clip-path="url(#clip_0)"><clipPath id="clip_0"><rect width="1667" height="363"></rect></clipPath><g><g><g><line x1="0" y1="0" x2="0" y2="364" fill="rgb(0, 0, 0)" stroke="rgb(60, 60, 60)" stroke-width="1px" opacity="0.25"></line><line x1="208.479296875" y1="0" x2="208.479296875" y2="364" fill="rgb(0, 0, 0)" stroke="rgb(60, 60, 60)" stroke-width="1px" opacity="0.25"></line><line x1="416.95859375" y1="0" x2="416.95859375" y2="364" fill="rgb(0, 0, 0)" stroke="rgb(60, 60, 60)" stroke-width="1px" opacity="0.25"></line><line x1="625.4378906249999" y1="0" x2="625.4378906249999" y2="364" fill="rgb(0, 0, 0)" stroke="rgb(60, 60, 60)" stroke-width="1px" opacity="0.25"></line><line x1="833.9171875" y1="0" x2="833.9171875" y2="364" fill="rgb(0, 0, 0)" stroke="rgb(60, 60, 60)" stroke-width="1px" opacity="0.25"></line><line x1="1042.396484375" y1="0" x2="1042.396484375" y2="364" fill="rgb(0, 0, 0)" stroke="rgb(60, 60, 60)" stroke-width="1px" opacity="0.25"></line><line x1="1250.8757812499998" y1="0" x2="1250.8757812499998" y2="364" fill="rgb(0, 0, 0)" stroke="rgb(60, 60, 60)" stroke-width="1px" opacity="0.25"></line><line x1="1459.3550781249999" y1="0" x2="1459.3550781249999" y2="364" fill="rgb(0, 0, 0)" stroke="rgb(60, 60, 60)" stroke-width="1px" opacity="0.25"></line><line x1="1667.834375" y1="0" x2="1667.834375" y2="364" fill="rgb(0, 0, 0)" stroke="rgb(60, 60, 60)" stroke-width="1px" opacity="0.25"></line></g><g><line x1="0" y1="364" x2="1667.834375" y2="364" fill="rgb(0, 0, 0)" stroke="rgb(60, 60, 60)" stroke-width="1px" opacity="0.25"></line><line x1="0" y1="318.5" x2="1667.834375" y2="318.5" fill="rgb(0, 0, 0)" stroke="rgb(60, 60, 60)" stroke-width="1px" opacity="0.25"></line><line x1="0" y1="273" x2="1667.834375" y2="273" fill="rgb(0, 0, 0)" stroke="rgb(60, 60, 60)" stroke-width="1px" opacity="0.25"></line><line x1="0" y1="227.5" x2="1667.834375" y2="227.5" fill="rgb(0, 0, 0)" stroke="rgb(60, 60, 60)" stroke-width="1px" opacity="0.25"></line><line x1="0" y1="182" x2="1667.834375" y2="182" fill="rgb(0, 0, 0)" stroke="rgb(60, 60, 60)" stroke-width="1px" opacity="0.25"></line><line x1="0" y1="136.5" x2="1667.834375" y2="136.5" fill="rgb(0, 0, 0)" stroke="rgb(60, 60, 60)" stroke-width="1px" opacity="0.25"></line><line x1="0" y1="91" x2="1667.834375" y2="91" fill="rgb(0, 0, 0)" stroke="rgb(60, 60, 60)" stroke-width="1px" opacity="0.25"></line><line x1="0" y1="45.5" x2="1667.834375" y2="45.5" fill="rgb(0, 0, 0)" stroke="rgb(60, 60, 60)" stroke-width="1px" opacity="0.25"></line><line x1="0" y1="0" x2="1667.834375" y2="0" fill="rgb(0, 0, 0)" stroke="rgb(60, 60, 60)" stroke-width="1px" opacity="0.25"></line></g></g></g><g><g><line x1="0" y1="318.5" x2="1667.834375" y2="318.5" fill="rgb(0, 0, 0)" stroke="rgb(153, 153, 153)" stroke-width="1.5px"></line></g></g><g><g><line x1="-29822754.938671872" y1="0" x2="-29822754.938671872" y2="364" fill="rgb(0, 0, 0)" stroke="rgb(153, 153, 153)" stroke-width="1.5px"></line></g></g><g><g><g><g><g><path stroke="rgb(255, 112, 67)" stroke-width="2px" d="M138.67096949833623,-3.0962623958230893L140.43439549168113,8.060397716469708L142.26312569440827,17.307271192413225L144.0679772961878,29.232911597153986L145.8773459493996,34.29572005935614L147.65440031159577,39.81141115080237L149.44851909031394,48.3690703211293L151.2852216957827,49.5893291137869L153.02380390624998,43.451723506724136L154.8411256585648,43.004741509223436L156.62787044733795,48.79468627026142L158.91710825249564,49.810563807010965L160.7128871441334,53.97506727963781L162.5171982440321,52.385011415255065L164.2692736978805,48.62705497287669L166.08989637239583,55.94494864970807L167.9140902200521,61.48046553074931L169.7140386976273,54.91733509575033L171.520473197772,59.322549888365415L173.35146192621528,62.33926071069061L175.10041019061055,65.55010645798433L176.8771363909505,68.9979773309143L179.14645284107348,75.92653782227154L180.93198150061485,78.84494692863495L182.76210156532116,71.45761472215395L184.53075884472653,67.59764572793381L186.32841018930844,73.03374753216025L188.1069123243996,73.2993084138372L189.89830929007522,74.05120857731077L191.69121193956164,70.29338513417702L193.4606220608724,72.63490379473456L195.22256167404512,73.14353211484996L218.03444355266203,77.34492779572639L219.8754894768157,83.21062547037201L221.68402807356767,87.63418091931601L223.41890398542387,83.4791870430899L225.2082933726852,88.92208263529295L227.02658030692996,86.1784107516599L228.84625710315393,89.97823013287899L230.65554854181136,88.66445072536692L232.42472701945889,94.62021327067856L234.24106428620516,92.54608292604468L235.99271506000434,92.97255084053245L238.28840028045425,98.38324917043985L240.07445013823786,106.55259793217414L241.84192989568868,102.00066505201585L243.61900356152344,105.3432825227315L245.43167313693573,102.27919691918373L247.2261972920645,105.37566891979225L249.0564910895182,98.9871197204032L250.82897048936633,105.15666039349213L252.64482516514758,108.76783399320635L254.43267026132088,111.02519309840815L256.25275243395544,114.02638523770713L258.49846053407117,112.51234574910009L260.32174711071326,113.61137454388145L262.0987628656322,111.61704750464915L263.8708754963469,115.50187532667255L265.6812672424045,115.90701833107434L267.4650006635561,119.54608039103962L269.25630111103874,121.36067540671246L270.9921035975477,125.90898689762244L272.7611276460865,124.10244074544602L274.57470449251304,127.9268890802937L276.8396969275897,125.20280970244872L278.62063132114434,125.23056901162423L280.40920995558446,128.48139141002628L282.16531986990015,123.75490425824722L283.9845526824363,119.4737399029708L285.77220474222366,125.18674285459377L287.5820173791232,124.29651054887691L289.4168475316478,125.74147120206783L291.1942686629774,121.46312422209516L292.970145503219,132.68499271067103L294.79001533582897,129.96065335269046L297.0274807822627,133.6910416888909L298.8515588080874,134.540612066252L300.595140660952,134.48668117789208L302.4074627708695,132.7729450432526L304.2139165746528,133.77222907352845L306.02749342107927,138.99504115467312L307.7980810643446,134.39221054485463L309.5594994792752,130.29443220002068L311.33574308865013,133.0142141562856L313.1693185046658,142.58818466557005L315.3874224015842,139.452040285426L317.21121087282984,141.92600007686474L318.94168555508537,137.94912278552923L320.7390280414496,138.12974374234722L322.51561911631944,144.02453747236754L324.274624576425,140.4510059764625L326.08032553830293,143.7561206108714L327.8288105153718,135.09482694187074L329.55254822775606,139.02060165714212L331.39571755215565,138.50466264910094L333.2093909167752,144.75089415089246L335.0535447267433,148.55066895589803L336.81587041268807,138.34537091318114L338.59246148755784,138.22242387809362L340.3757895322989,140.5401159326911L342.17898102115885,150.08125816587687L343.957772710829,148.40195295097877L345.76401417458766,144.6898479752687L347.56073894451674,144.54155647116582L349.3276395928096,145.65174185846854L351.0945016338252,150.25055591830377L352.8938903058811,154.98487854342918L355.1445594411169,153.41657047475132L356.94234591116896,155.88913572433444L358.75806546148,153.38329751850875L360.52400092784285,157.90630469060966L362.3299721406612,154.14550085864678L364.10548221176936,154.10617678166753L365.93193458514173,157.4455805349429L367.7326745118996,157.79186275768757L369.5143810509982,152.26408826809217L371.28384908322477,155.70493571460895L373.5722761355613,159.86427984536084L375.387435880353,160.2038416498923L377.1865349978299,161.28024757111214L378.95447804260704,160.12558028819643L380.78772529676644,162.44132040573646L382.5616524695095,163.15443224092417L384.35787534483507,166.37746745574532L386.1353350834418,163.28050755398306L387.90179174804683,166.0662322934677L389.69554375763164,158.7970769939548L391.5114177370515,156.62881992684163L393.7134417030165,160.0686871434829L395.55313637246815,162.48028298768887L397.33685048998115,166.32343919607098L399.1339227254051,162.3023883791691L400.9194127776692,155.86209127258815L402.7271599252387,163.7385181722138L404.4731547329282,157.47289176804384L406.26146311642793,162.86906225694753L408.08347565292246,169.14985389240704L409.8290650842014,167.39816648202012L412.1143842507234,169.48401822112126L413.87008878862844,165.75124295629334L415.6723150955584,164.68218169258398L417.4817995706018,168.44680872944812L419.2499742590422,166.52843660943398L421.03905478808593,171.3464808632892L422.82101227448635,168.6702120405413L424.59393565802225,166.4493275226341L426.3800434267216,172.18035834677138L428.2037739870515,172.19714318303534L429.9935687507234,175.89921180360477L432.23987526363567,175.09517612429238L434.05466823929396,178.63919333441126L435.8796149288556,170.29608132733742L437.64601368254483,166.99968382295273L439.48545740469467,168.0985809598941L441.25365139677365,165.9648643275844L443.0632903009259,165.77095327024142L444.83744911733214,170.44265614297674L446.6651176199363,168.00231420008356L448.4233702381366,178.76041948204048L450.2874840104167,175.8074932301331L452.0782439560185,176.51171704556276L453.8904309404658,175.51934077993468L455.72846549699796,175.0012962976422L457.50262431340417,175.82295347209728L459.263212671875,173.82320147130466L461.0490308859953,176.82468541487202L462.8240969734158,181.68317980780688L464.6458006516927,176.32337009438567L466.4306150766059,175.93450658040462L468.233362581778,176.0217308552099L470.50065214984807,166.91709148591954L472.32175741532836,163.54583270374656L474.1140809556568,166.98881735219788L475.9242410580512,169.0515793670072L477.6765867628399,171.64565880947436L479.4894493746383,170.55872421177102L481.2520260078848,170.12879651017113L483.030624661169,177.67303615347817L484.8399354034649,184.75917623958753L486.5616655374349,180.6805334479914L488.77585079571753,184.22754805036223L490.61541033969905,184.87418718783758L492.4269216967954,180.72905022888602L494.21631108405666,177.51960539215338L496.00442643117043,177.58750548001248L497.7995296954572,173.54977535030912L499.59422758333335,177.38300108207267L501.38350114876295,174.5622468906224L503.161964676577,177.74518800482633L504.9424550864439,176.9091388267605L506.820062102105,178.31708206429053L509.05685192118773,182.7472007614015L510.84056603870073,182.234544535973L512.6327351499203,182.93375355034965L514.4485512184244,178.47977722901044L516.2893268916376,179.20854438077174L518.0698366051432,175.27451537090994L519.9310162243561,181.76003240369832L521.6367436419271,177.4959773947184L523.4445680040509,175.58249539908076L525.271271324725,174.31824533209985L527.5321327811415,179.03495111504662L529.3268306690176,183.64605006241484L531.129423745081,181.72224893965532L532.8727546506437,177.50740055321577L534.6855400478877,182.8363773112233L536.4970321013454,180.3070585301361L538.3093349076244,179.15183102910765L540.1072178958694,184.34326445952087L541.9163162981409,181.01583487924952L543.7100103968099,182.32205151997218L545.5295520675636,180.42253484417324L547.8032890509259,180.66564687543706L549.6042799249855,182.10512180598732L551.3932639358362,176.71430546922775L553.2544628586878,181.92409471799905L555.0507822522063,183.50406539517627L556.8421020033276,184.82190973805183L558.6148709577545,184.5838745072293L560.4350882558593,185.11942937581586L562.2253656104963,185.30950528746158L564.0370313967014,182.23434266069717L566.3076025833333,186.2825498617839L568.1126858287761,187.90795946342655L569.9198345635489,182.77237110270804L571.6912136559968,190.25794284900277L573.5129366379123,182.51198345041422L575.3290229573568,177.43382285604562L577.1134899167752,186.31948999506048L578.9086510919776,185.62441055740007L580.6949712007016,187.65853949049168L582.4876229028863,186.1135333279315L584.302300056713,184.42009353038927L586.5676206536458,188.76726855872428L588.3593650848162,187.62049230360003L590.145839622649,187.49399948372252L591.9424099634693,184.85448503645543L593.7575890118995,176.79212408156565L595.535164572338,182.4537799173079L597.3025671152343,181.0699053176333L599.1478791435185,180.19310753155287L600.90404696875,181.9607872999223L602.6951736834852,189.545986749918L765.370835496781,185.32030874382897L767.2547161949869,187.10241097147133L768.9749599487847,182.8954520817689L770.7735764752965,178.8286152718122L772.5522330394965,180.5221304915938L774.2977645598596,184.2634595407601L776.1340231816406,186.67293897709584L777.8680883406756,189.55660881663164L779.6467062975984,197.31391094961643L781.4769421841362,197.96250829004572L783.2021276694155,198.14772344173983L785.5752204806496,193.78836436594722L787.3578149871238,186.00669710353134L789.1319544998914,185.44855051347682L790.9440063588686,185.79066737359207L792.6749057211732,191.66473112026122L794.4200125614873,195.29489875745335L796.238202977539,198.45711665696837L797.998636906901,194.07759912816846L799.7912886090857,190.94037761693096L801.5673777893518,185.65070404055652L803.329491135272,189.26196607019267L805.6896891159216,194.51798625031566L807.4216694819878,191.06065632843647L809.2639315353732,192.4290461179237L811.0167791347656,190.63469002465132L812.79757840285,188.35251139294934L814.614070098705,193.46752785856623L816.4064901572266,179.60236143598019L818.1657851719111,188.02586140351926L819.9094249356915,187.59523304770846L821.7013624032479,188.99091825765646L824.0487041605902,195.51841121841835L825.8494247837094,189.48732751565794L827.6535814544994,197.15784321998132L829.4517539973234,193.0212406800662L831.2503512201968,195.65798576393573L833.0397792147352,191.71501049827842L834.8308673221932,191.6815377320725L836.6158747834924,189.93435846840612L838.3899563853444,187.17531415864988L840.1973946746962,192.9734450164149L841.9546821109664,192.89894647495208L844.2449623126084,194.20276786742366L846.0281359282408,187.37509180222605L847.7975074422742,188.64088326164872L849.5526328710214,190.02558306138988L851.3414817564019,195.6319555001335L853.1132469216218,190.87983119230728L854.8999144958404,194.2468688234166L856.6732046485098,196.78741138842557L858.5025718713107,195.7941399196795L860.2695304305195,193.20001047730514L862.5606792958984,184.31937953162233L864.3446829679905,195.4490956087592L866.1133981583116,190.82903750060098L867.8961277902561,194.80033855031786L869.6713869140624,198.65748136276517L871.442013164605,200.2235339703233L873.2342015794633,201.14061461818642L874.9956972089482,200.14468242485776L876.8208176312572,197.1159720048872L878.6011922192924,192.99833529147907L880.3338096054325,191.4958588656986L882.6475630316116,190.96837890012287L884.4023602985025,194.18253481306567L886.2690221510778,197.53417475174624L888.0343012937282,196.31701907605387L889.8184014840133,194.4789276188043L891.5876378725766,195.8588388481991L893.3686494806857,197.98705833669044L895.1342953924697,200.06242352435314L896.9031264046224,202.74624966209723L898.6773238283057,206.24105042592046L900.9715805794993,201.98970247730827L902.7808913217955,194.8742878998829L904.5854147617187,196.90799215826468L906.3946289858218,199.38948223229096L908.1775516541521,199.87422045013813L909.9647211229744,197.78992724383778L911.7195569971425,197.53516716936176L913.5085796152704,197.57351877199974L915.3111147804179,201.4975996607981L917.0817796382378,202.2057141181494L918.8496068611834,196.66837990979346L921.1185372385344,195.29644058167926L922.8693579558737,200.02146638643737L924.6669706931785,198.2193503690481L926.4614562410301,200.78126227335454L928.230132824074,201.19367973492336L929.996010379521,202.4900711088526L931.8204165672018,197.47416451627896L933.5638053836806,204.93004233273794L935.3334857559316,202.88324722428877L937.1277975710359,199.4095162914977L938.8516511052517,198.68958866398248L941.1536293118851,195.6253842580361L942.9478639124349,197.51776910233752L944.7199765431495,193.89118147139703L946.5044628062066,198.26992597725962L948.2994502486617,199.67161692706927L950.1037227412831,200.66901257948987L951.8634424360171,203.01183301995343L953.6638155936414,196.98659686321108L955.4474911038773,204.391494107688L957.1759389040799,198.75142163780006L959.545557060366,198.74937779156372L961.2933278028066,198.74605998067858L963.0741270708911,196.8263431588936L964.8764885032913,202.19317728281783L966.6375015418113,203.72780393362504L968.4452293857422,203.75176333666124L970.2314143689958,203.143977542402L972.0010368303313,205.1563297627459L973.7804269327979,208.51509507406297L975.5455902536169,204.87694315855825L977.3492643334419,201.49003179517462L979.1905998121744,196.99239764003204L980.9909729697988,199.21332760684638L982.7317944023437,202.23547732849687L984.5161841472078,192.17338154327732L986.2803050715422,191.85959619052326L988.0414146282551,191.64314175705383L989.8302828172742,194.33206425345105L991.6311964767795,194.91662384412385L993.3948348101491,200.84225254858552L995.1860194358,202.09728439810883L996.906243885959,204.02104191877254L999.2125461076389,207.69455969868784L1001.0021671385632,207.78016426884344L1002.7672146375505,206.376908270855L1004.5676650097294,208.27317922612383L1006.3619189139177,208.44932766735766L1008.1724650890842,208.20349667060503L1009.9135953798466,209.35195764057713L1011.7038534308449,206.77808537574336L1013.4889767139756,208.4974615483983L1015.2462641502459,205.7722876494827L1017.6095314094329,207.4739335790695L1019.3785747616101,205.82149412723905L1021.1603585152633,200.56839319761113L1022.9003498913482,205.3911043446989L1024.7076916625072,202.03666913758107L1026.4958842241751,203.3193664804124L1028.2707379715712,207.8987836989774L1030.0661307904368,205.0594997497209L1031.8353864826388,202.24905558179665L1033.5956273756146,205.69428336471825L1035.380055727756,202.58523180395667L1037.6977470962095,207.16001202053013L1039.4116785601852,204.6681511484753L1041.2565852120586,204.40589762229746L1043.0391990221715,201.51253829299822L1044.864782731807,203.06827093302854L1046.5923039573568,204.0207379885891L1048.352815101273,205.18672582080237L1050.1715846264829,206.33051560264988L1051.931149892108,203.12732261384824L1053.7455374913557,200.97663456180868L1056.0688848259188,206.0819949506472L1057.882712619647,208.22292772524062L1059.631043167607,209.19636111016575L1061.4147765887587,209.03863180014793L1063.2082969546802,211.3001202364761L1064.9994815803313,206.01803124070156L1066.7920560679615,204.65360186171526L1068.5893985543257,211.67264398140904L1070.3559517371236,213.77792124869345L1072.1259602712312,209.43748205257606L1073.9167395204718,212.18545752378196L1076.2011514159794,203.6473814821952L1078.0073156651838,200.35261374573193L1079.785566852973,204.91030319845845L1081.5805929027053,204.29256277272802L1083.3524931933955,205.681341296373L1085.08904852181,209.4625256812204L1086.8626668363352,208.5105384323376L1088.622830514757,212.77996521791084L1090.4014098644025,212.1591432428376L1092.213982921622,213.02083651638125L1094.4673545662615,207.38850345859584L1096.3231484703051,210.28707141071354L1098.0956278701533,206.88951083654044L1099.8770255510344,210.71331460853742L1101.6227887150608,212.25334529626562L1103.3767752291303,212.97549460260984L1105.1380199113137,216.4875766153867L1106.9176995683592,207.23589394782394L1108.7683587045356,204.0838514703179L1110.5131952939091,204.7420988880196L1112.2546923538048,204.03554549232715L1114.5831937598741,205.64187287339922L1116.3503453554688,209.272695964869L1118.186546066334,210.24052626269827L1119.9452040609447,207.44421490656L1121.6957545273438,209.80578456298505L1123.472905407733,211.19026466593738L1125.2582603345268,208.6600547098255L1127.0820295021338,212.46309892315483L1128.8221946109663,214.09419894205817L1130.605773603009,213.15013837806754L1132.9225383968098,213.12529287333712L1134.7307102244285,209.33818608281268L1136.5221071901042,209.8115319118336L1138.2645501282914,211.92121771010372L1140.0199458079787,209.5789823236025L1141.8191414436487,213.53953993928175L1143.6436055422453,210.28117845423066L1145.4031128969543,210.54738129357722L1147.1838542541232,212.8983734439625L1148.9508128133318,214.41879434530816L1150.7334845343605,218.23624021497298L1153.0590131800852,213.19574622325257L1154.8664321657986,209.95600330836868L1156.5993584101561,208.51702992920454L1158.3979942403066,211.6014752435945L1160.1603006226128,215.19116654683722L1161.9205029083114,210.30666102581964L1163.6980977723886,209.24359191425887L1165.4476251459419,209.02203767876773L1167.237361998698,215.1990095697698L1168.9874105704932,214.4869443847452L1170.7880153717808,214.039215485675L1173.0962093500434,207.92084779764585L1174.8560641702472,207.574722709807L1176.6812811107493,208.60652362260356L1178.4312910752676,206.71799170346935L1180.217398843967,203.17712285144256L1182.0284662173756,204.65768905891852L1183.7691525244502,207.0783108497493L1185.567286459997,208.51191680579382L1187.3723310981625,210.91062827675938L1189.1239625683231,208.78678862911104L1191.4616138990884,206.6379674950936L1193.23639043193,206.80266870735278L1195.0753515631147,211.9331990580451L1196.8523480143951,213.2929916203434L1198.6083228032405,209.60659421804039L1200.440759304579,208.03657387091212L1202.2087409566334,208.21746887203153L1203.994539867115,212.11132715604361L1205.7947585956306,214.7264368919233L1207.5706354358724,212.9350429765999L1209.357978637442,210.83730103925583L1211.1986577924624,211.21926652405094L1212.9856728321759,211.8421864689197L1214.7928794778645,207.69174376611744L1216.5789100320094,212.23406634023686L1218.3523160065104,212.59669919783414L1220.1152401052516,211.37332870945062L1221.880866713397,212.08188816538288L1223.713110178349,211.4209696092059L1225.5065340260778,211.8597873948723L1227.2899392853733,215.46096087114276L1229.5875741733216,216.48078036675608L1231.3984678139827,213.9644038699255L1233.1843632426578,211.7117385400644L1234.9686757729671,209.6512716492004L1236.7683539996021,213.32753752946775L1238.5308727219328,210.4730483965869L1240.328408244683,206.95798255662888L1242.1289165277776,211.66781607664092L1243.9118198924696,217.89551133749762L1245.710880402669,216.1457686116569L1247.4770668163337,211.44448392929272L1249.8182507129627,213.76381641233942L1251.5981620136718,215.22106827262033L1253.3465697761862,211.22389200307722L1255.18278979069,212.26225134717103L1256.9356373900825,214.18093579403566L1258.7289068087023,218.43535567159657L1260.549317143193,215.73787475130084L1262.3481460097294,214.23435378373335L1264.1085799390912,213.8771775740425L1265.8816770553747,211.50384613144638L1461.4406818465711,213.94818213145876L1462.085693626736,208.74957110024062L1462.6636638700447,213.20856691322663L1463.1998031285084,214.6527633245107L1463.805049413158,217.2179115042279L1464.353079712999,215.63656016738355L1464.9304901507885,214.18646118969406L1465.4936931105685,214.84621051508594L1466.0341949913557,216.70399911140447L1466.609771583478,213.51707081159978L1467.1408146813512,212.12562000847475L1467.7210627540146,212.2947448020972L1468.2817755444155,214.13316964660865L1468.8352687739798,213.95785183641183L1469.413933948278,213.18702508767169L1469.9569259984448,213.6241574392302L1470.5453009029586,216.16282539997L1471.1108589066478,220.3006047095865L1471.651302876519,216.25412452733576L1472.2342727622251,214.70644247839485L1472.786298915256,216.42722966855547L1473.3838430481046,214.36830846420398L1473.9699401232638,217.88051600427312L1474.5161558810764,217.40833155614663L1475.1265562372323,216.53776412190513L1475.6714207403427,217.0757506667466L1476.2758176648942,213.9566704260642L1476.8716630775461,216.1217061893543L1477.434885340965,212.89333931305413L1478.0632766882957,212.3448906880522L1478.6277536882233,212.49990468871025L1479.2455087306857,211.85538919956343L1479.8932616275317,215.4326771747521L1480.5249925043402,215.2364796549947L1489.4420574080946,216.94092033808653L1490.3953676003327,219.14087971750035L1491.3862812805626,220.04307976188142L1492.3304994590205,215.35001396430658L1493.3629352658781,215.32176632459837L1494.3567830991751,207.58685871825145L1495.364626070457,213.2541911415191L1496.4770947629484,216.95013908218928L1497.458298712963,216.8546529035067L1498.4947882839263,216.31578608872266L1499.5917368509836,214.3180702002154L1500.6454259639395,216.8855001611296L1501.7700945560257,218.7689386178722L1502.7808909840132,220.15480727968634L1503.9133003351778,215.33767315756097L1504.898461531105,215.9652489007164L1505.935568818504,218.57450866583878L1507.0447558924334,221.54977235724863L1508.0536412601996,219.74321218449077L1541.1835689175707,213.41424615453602L1542.1342345113208,208.04245934051823L1543.103161347186,214.56223808027835L1544.039503641095,213.4937763827892L1545.009028889757,219.05800694333624L1545.876013210178,218.16270939175553L1546.8699961689454,215.5452836493508L1547.832823055013,212.51872979044055L1548.8130618230975,219.84842869305098L1549.8114653151042,222.7948359767406L1550.7848705951244,223.3484629702454L1551.8922817343025,214.46404871415407L1552.9023253203848,212.52658196134155L1553.8862703870802,216.62192819024793L1554.9115638476562,218.29755161706012L1555.8963389708115,217.72997645439747L1557.0075529267938,220.0719012969854L1558.0469187399087,224.50598450625674L1559.1263396031177,222.76679050996742L1560.1534283020833,217.47112672373558L1561.6335540953414,213.62818351295533L1562.8569414952258,214.64818095509378L1564.063689158637,216.73098778333764L1565.4099442182073,218.2350759005934L1566.7658317934388,218.40840994694173L1568.131911689851,214.75101987945044L1569.3711280733867,215.57545800463558" style="fill: none;" fill="none"></path></g></g></g></g><g opacity="0.2"><g><g><g><path stroke="rgb(255, 112, 67)" stroke-width="2px" d="M119.9959538897931,-19.177348136901855L122.25148754195601,11.021353721618652L124.49298744885704,-0.6967916488647461L126.7470540244864,11.857087135314941L128.96303452115885,17.305062294006348L138.67096949833623,27.4216890335083L140.43439549168113,24.32691526412964L142.26312569440827,30.944613456726074L144.0679772961878,46.94109773635864L145.8773459493996,41.84401345252991L147.65440031159577,48.054931640625L149.44851909031394,61.1776168346405L151.2852216957827,51.41732668876648L153.02380390624998,34.25252962112427L154.8411256585648,42.33458375930786L156.62787044733795,57.477153301239014L158.91710825249564,51.33412218093872L160.7128871441334,60.22118806838989L162.5171982440321,50.000072956085205L164.2692736978805,42.99032640457153L166.08989637239583,66.92154836654663L167.9140902200521,69.78363156318665L169.7140386976273,45.07271718978882L171.520473197772,65.93034076690674L173.35146192621528,66.86431407928467L175.10041019061055,70.36636686325073L176.8771363909505,74.16977834701538L179.14645284107348,86.31937217712402L180.93198150061485,83.22255897521973L182.76210156532116,60.3766188621521L184.53075884472653,61.807693004608154L186.32841018930844,81.18789958953857L188.1069123243996,73.69764971733093L189.89830929007522,75.17905879020691L191.69121193956164,64.65665006637573L193.4606220608724,76.14718174934387L195.22256167404512,73.90647459030151L218.03444355266203,83.64702129364014L219.8754894768157,92.00917196273804L221.68402807356767,94.2695140838623L223.41890398542387,77.24669623374939L225.2082933726852,97.08642601966858L227.02658030692996,82.06290292739868L228.84625710315393,95.67795920372009L230.65554854181136,86.69378161430359L232.42472701945889,103.55385708808899L234.24106428620516,89.4348874092102L235.99271506000434,93.61225271224976L238.28840028045425,106.49929666519165L240.07445013823786,118.80662107467651L241.84192989568868,95.17276573181152L243.61900356152344,110.35720872879028L245.43167313693573,97.68306851387024L247.2261972920645,110.02037692070007L249.0564910895182,89.40429592132568L250.82897048936633,114.41097140312195L252.64482516514758,114.18459439277649L254.43267026132088,114.41123175621033L256.25275243395544,118.52817344665527L258.49846053407117,110.24128651618958L260.32174711071326,115.25991773605347L262.0987628656322,108.62555694580078L263.8708754963469,121.32911705970764L265.6812672424045,116.514732837677L267.4650006635561,125.00467348098755L269.25630111103874,124.08256793022156L270.9921035975477,132.73145413398743L272.7611276460865,121.3926215171814L274.57470449251304,133.6635615825653L276.8396969275897,121.11669063568115L278.62063132114434,125.27220797538757L280.40920995558446,133.3576250076294L282.16531986990015,116.66517353057861L283.9845526824363,113.05199337005615L285.77220474222366,133.7562472820282L287.5820173791232,122.96116209030151L289.4168475316478,127.90891218185425L291.1942686629774,115.04560375213623L292.970145503219,149.51779544353485L294.79001533582897,125.8741443157196L297.0274807822627,139.28662419319153L298.8515588080874,135.8149676322937L300.595140660952,134.40578484535217L302.4074627708695,130.20234084129333L304.2139165746528,135.27115511894226L306.02749342107927,146.82925927639008L307.7980810643446,127.48796463012695L309.5594994792752,124.14776468276978L311.33574308865013,137.09388709068298L313.1693185046658,156.94914042949677L315.3874224015842,134.74782371520996L317.21121087282984,145.63693976402283L318.94168555508537,131.983806848526L320.7390280414496,138.40067517757416L322.51561911631944,152.86672806739807L324.274624576425,135.09070873260498L326.08032553830293,148.71379256248474L327.8288105153718,122.10288643836975L329.55254822775606,144.90926373004913L331.39571755215565,137.73075413703918L333.2093909167752,154.1202414035797L335.0535447267433,154.25033116340637L336.81587041268807,123.03742384910583L338.59246148755784,138.03800332546234L340.3757895322989,144.0166540145874L342.17898102115885,164.39297151565552L343.957772710829,145.8829951286316L345.76401417458766,139.1216905117035L347.56073894451674,144.3191192150116L349.3276395928096,147.3170199394226L351.0945016338252,157.14877700805664L352.8938903058811,162.08636248111725L355.1445594411169,151.06410837173462L356.94234591116896,159.5979835987091L358.75806546148,149.6245402097702L360.52400092784285,164.690815448761L362.3299721406612,148.50429511070251L364.10548221176936,154.04719066619873L365.93193458514173,162.45468616485596L367.7326745118996,158.3112860918045L369.5143810509982,143.97242653369904L371.28384908322477,160.86620688438416L373.5722761355613,166.10329604148865L375.387435880353,160.71318435668945L377.1865349978299,162.8948564529419L378.95447804260704,158.39357936382294L380.78772529676644,165.9149305820465L382.5616524695095,164.22409999370575L384.35787534483507,171.212020277977L386.1353350834418,158.63506770133972L387.90179174804683,170.2448194026947L389.69554375763164,147.89334404468536L391.5114177370515,153.37643432617188L393.7134417030165,165.22848796844482L395.55313637246815,166.0976767539978L397.33685048998115,172.0881735086441L399.1339227254051,156.27081215381622L400.9194127776692,146.20164561271667L402.7271599252387,175.55315852165222L404.4731547329282,148.07445216178894L406.26146311642793,170.96331799030304L408.08347565292246,178.5710413455963L409.8290650842014,164.77063536643982L412.1143842507234,172.61279582977295L413.87008878862844,160.1520800590515L415.6723150955584,163.07858979701996L417.4817995706018,174.09374928474426L419.2499742590422,163.65087842941284L421.03905478808593,178.57354724407196L422.82101227448635,164.65580880641937L424.59393565802225,163.11800074577332L426.3800434267216,180.7769045829773L428.2037739870515,172.22232043743134L429.9935687507234,181.45231473445892L432.23987526363567,173.8891226053238L434.05466823929396,183.95521914958954L435.8796149288556,157.78141331672668L437.64601368254483,162.05508756637573L439.48545740469467,169.7469266653061L441.25365139677365,162.76428937911987L443.0632903009259,165.480086684227L444.83744911733214,177.45021045207977L446.6651176199363,164.3418012857437L448.4233702381366,194.8975774049759L450.2874840104167,171.37810385227203L452.0782439560185,177.56805276870728L453.8904309404658,174.03077638149261L455.72846549699796,174.2242295742035L457.50262431340417,177.0554392337799L459.263212671875,170.82357347011566L461.0490308859953,181.32691133022308L462.8240969734158,188.97092139720917L464.6458006516927,168.28365552425385L466.4306150766059,175.35121130943298L468.233362581778,176.1525672674179L470.50065214984807,153.26013243198395L472.32175741532836,158.48894453048706L474.1140809556568,172.15329432487488L475.9242410580512,172.1457223892212L477.6765867628399,175.53677797317505L479.4894493746383,168.92832231521606L481.2520260078848,169.4839049577713L483.030624661169,188.98939561843872L484.8399354034649,195.38838636875153L486.5616655374349,174.56256926059723L488.77585079571753,189.54806995391846L490.61541033969905,185.8441458940506L492.4269216967954,174.51134479045868L494.21631108405666,172.70543813705444L496.00442643117043,177.68935561180115L497.7995296954572,167.4931801557541L499.59422758333335,183.13283967971802L501.38350114876295,170.33111560344696L503.161964676577,182.5195996761322L504.9424550864439,175.65506505966187L506.820062102105,180.42899692058563L509.05685192118773,189.39237880706787L510.84056603870073,181.4655601978302L512.6327351499203,183.98256707191467L514.4485512184244,171.79881274700165L516.2893268916376,180.3016951084137L518.0698366051432,169.37347185611725L519.9310162243561,191.48830795288086L521.6367436419271,171.09989488124847L523.4445680040509,172.7122724056244L525.271271324725,172.42187023162842L527.5321327811415,186.11000978946686L529.3268306690176,190.5626984834671L531.129423745081,178.83654725551605L532.8727546506437,171.18512797355652L534.6855400478877,190.82984244823456L536.4970321013454,176.51308035850525L538.3093349076244,177.418989777565L540.1072178958694,192.1304146051407L541.9163162981409,176.02469050884247L543.7100103968099,184.2813764810562L545.5295520675636,177.57325983047485L547.8032890509259,181.03031492233276L549.6042799249855,184.26433420181274L551.3932639358362,168.62808096408844L553.2544628586878,189.738778591156L555.0507822522063,185.87402141094208L556.8421020033276,186.7986762523651L558.6148709577545,184.22682166099548L560.4350882558593,185.92276167869568L562.2253656104963,185.59461915493011L564.0370313967014,177.62159872055054L566.3076025833333,192.354860663414L568.1126858287761,190.3460738658905L569.9198345635489,175.06898856163025L571.6912136559968,201.48630046844482L573.5129366379123,170.89304435253143L575.3290229573568,169.8165819644928L577.1134899167752,199.64799070358276L578.9086510919776,184.58179140090942L580.6949712007016,190.7097328901291L582.4876229028863,183.7960240840912L584.302300056713,181.87993383407593L586.5676206536458,195.2880311012268L588.3593650848162,185.9003279209137L590.145839622649,187.30426025390625L591.9424099634693,180.8952133655548L593.7575890118995,164.69858264923096L595.535164572338,190.94626367092133L597.3025671152343,178.99409341812134L599.1478791435185,178.87791085243225L600.90404696875,184.6123069524765L602.6951736834852,200.9237859249115L765.370835496781,178.98179173469543L767.2547161949869,189.77556431293488L768.9749599487847,176.58501374721527L770.7735764752965,172.72836005687714L772.5522330394965,183.06240332126617L774.2977645598596,189.87545311450958L776.1340231816406,190.28715813159943L777.8680883406756,193.88211357593536L779.6467062975984,208.94986414909363L781.4769421841362,198.9354043006897L783.2021276694155,198.425546169281L785.5752204806496,187.2493257522583L787.3578149871238,174.33419620990753L789.1319544998914,184.61133062839508L790.9440063588686,186.30384266376495L792.6749057211732,200.4758267402649L794.4200125614873,200.74015021324158L796.238202977539,203.20044350624084L797.998636906901,187.50832283496857L799.7912886090857,186.23454535007477L801.5673777893518,177.71619367599487L803.329491135272,194.6788591146469L805.6896891159216,202.40201652050018L807.4216694819878,185.87466144561768L809.2639315353732,194.48163080215454L811.0167791347656,187.94315588474274L812.79757840285,184.92924344539642L814.614070098705,201.14005255699158L816.4064901572266,158.80461180210114L818.1657851719111,200.66111135482788L819.9094249356915,186.9492905139923L821.7013624032479,191.08444607257843L824.0487041605902,205.30965065956116L825.8494247837094,180.44070196151733L827.6535814544994,208.66361677646637L829.4517539973234,186.81633687019348L831.2503512201968,199.61310338974L833.0397792147352,185.80054759979248L834.8308673221932,191.63132858276367L836.6158747834924,187.3135895729065L838.3899563853444,183.0367476940155L840.1973946746962,201.67064130306244L841.9546821109664,192.78719866275787L844.2449623126084,196.15849995613098L846.0281359282408,177.13357770442963L847.7975074422742,190.53957045078278L849.5526328710214,192.1026327610016L851.3414817564019,204.0415141582489L853.1132469216218,183.75164473056793L854.8999144958404,199.29742527008057L856.6732046485098,200.59822523593903L858.5025718713107,194.30423271656036L860.2695304305195,189.3088163137436L862.5606792958984,170.99843311309814L864.3446829679905,212.14366972446442L866.1133981583116,183.89895033836365L867.8961277902561,200.7572901248932L869.6713869140624,204.44319558143616L871.442013164605,202.57261288166046L873.2342015794633,202.51623558998108L874.9956972089482,198.6507841348648L876.8208176312572,192.57290637493134L878.6011922192924,186.82188022136688L880.3338096054325,189.2421442270279L882.6475630316116,190.17715895175934L884.4023602985025,199.00376868247986L886.2690221510778,202.56163465976715L888.0343012937282,194.49128556251526L889.8184014840133,191.72179043293L891.5876378725766,197.92870569229126L893.3686494806857,201.1793875694275L895.1342953924697,203.17547130584717L896.9031264046224,206.77198886871338L898.6773238283057,211.48325157165527L900.9715805794993,195.61268055438995L902.7808913217955,184.2011660337448L904.5854147617187,199.9585485458374L906.3946289858218,203.11171734333038L908.1775516541521,200.60132777690887L909.9647211229744,194.6634874343872L911.7195569971425,197.1530270576477L913.5085796152704,197.63104617595673L915.3111147804179,207.38372099399567L917.0817796382378,203.26788580417633L918.8496068611834,188.36237859725952L921.1185372385344,193.23853158950806L922.8693579558737,207.10900509357452L924.6669706931785,195.51617634296417L926.4614562410301,204.62413012981415L928.230132824074,201.8123059272766L929.996010379521,204.4346581697464L931.8204165672018,189.95030462741852L933.5638053836806,216.11385905742645L935.3334857559316,199.813054561615L937.1277975710359,194.1989198923111L938.8516511052517,197.60969722270966L941.1536293118851,191.02907764911652L942.9478639124349,200.35634636878967L944.7199765431495,188.45130002498627L946.5044628062066,204.83804273605347L948.2994502486617,201.77415335178375L950.1037227412831,202.16510605812073L951.8634424360171,206.5260636806488L953.6638155936414,187.94874262809753L955.4474911038773,215.49883997440338L957.1759389040799,190.29131293296814L959.545557060366,198.74631202220917L961.2933278028066,198.7410832643509L963.0741270708911,193.94676792621613L964.8764885032913,210.24342846870422L966.6375015418113,206.02974390983582L968.4452293857422,203.78770244121552L970.2314143689958,202.23229885101318L972.0010368303313,208.17485809326172L973.7804269327979,213.5532430410385L975.5455902536169,199.4197152853012L977.3492643334419,196.40966475009918L979.1905998121744,190.24594640731812L980.9909729697988,202.54472255706787L982.7317944023437,206.7687019109726L984.5161841472078,177.080237865448L986.2803050715422,191.3889181613922L988.0414146282551,191.31846010684967L989.8302828172742,198.36544799804688L991.6311964767795,195.79346323013306L993.3948348101491,209.73069560527802L995.1860194358,203.9798321723938L996.906243885959,206.90667819976807L999.2125461076389,213.2048363685608L1001.0021671385632,207.90857112407684L1002.7672146375505,204.27202427387238L1004.5676650097294,211.1175856590271L1006.3619189139177,208.71355032920837L1008.1724650890842,207.83475017547607L1009.9135953798466,211.07464909553528L1011.7038534308449,202.91727697849274L1013.4889767139756,211.07652580738068L1015.2462641502459,201.6845268011093L1017.6095314094329,210.0264024734497L1019.3785747616101,203.3428349494934L1021.1603585152633,192.68874180316925L1022.9003498913482,212.6251710653305L1024.7076916625072,197.0050163269043L1026.4958842241751,205.24341249465942L1028.2707379715712,214.76790952682495L1030.0661307904368,200.80057382583618L1031.8353864826388,198.03338932991028L1033.5956273756146,210.86212503910065L1035.380055727756,197.92165446281433L1037.6977470962095,214.02218234539032L1039.4116785601852,200.93035984039307L1041.2565852120586,204.0125173330307L1043.0391990221715,197.17249929904938L1044.864782731807,205.40186989307404L1046.5923039573568,205.44943857192993L1048.352815101273,206.93570756912231L1050.1715846264829,208.04620027542114L1051.931149892108,198.32253313064575L1053.7455374913557,197.7506024837494L1056.0688848259188,213.74003553390503L1057.882712619647,211.43432688713074L1059.631043167607,210.6565111875534L1061.4147765887587,208.80203783512115L1063.2082969546802,214.69235289096832L1064.9994815803313,198.0948977470398L1066.7920560679615,202.60695779323578L1068.5893985543257,222.2012071609497L1070.3559517371236,216.93583714962006L1072.1259602712312,202.92682325839996L1073.9167395204718,216.30742073059082L1076.2011514159794,190.84026741981506L1078.0073156651838,195.410462141037L1079.785566852973,211.74683737754822L1081.5805929027053,203.36595213413239L1083.3524931933955,207.76450908184052L1085.08904852181,215.13430225849152L1086.8626668363352,207.08255755901337L1088.622830514757,219.18410539627075L1090.4014098644025,211.22791028022766L1092.213982921622,214.31337642669678L1094.4673545662615,198.94000387191772L1096.3231484703051,214.63492333889008L1098.0956278701533,201.79316997528076L1099.8770255510344,216.4490202665329L1101.6227887150608,214.56339132785797L1103.3767752291303,214.05871856212616L1105.1380199113137,221.755699634552L1106.9176995683592,193.3583699464798L1108.7683587045356,199.35578775405884L1110.5131952939091,205.72947001457214L1112.2546923538048,202.97571539878845L1114.5831937598741,208.05136394500732L1116.3503453554688,214.71893060207367L1118.186546066334,211.69227170944214L1119.9452040609447,203.2497478723526L1121.6957545273438,213.34813904762268L1123.472905407733,213.2669848203659L1125.2582603345268,204.86473977565765L1127.0820295021338,218.1676652431488L1128.8221946109663,216.5408489704132L1130.605773603009,211.7340475320816L1132.9225383968098,213.08802461624146L1134.7307102244285,203.65752589702606L1136.5221071901042,210.521550655365L1138.2645501282914,215.08574640750885L1140.0199458079787,206.0656292438507L1141.8191414436487,219.4803763628006L1143.6436055422453,205.39363622665405L1145.4031128969543,210.94668555259705L1147.1838542541232,216.4248616695404L1148.9508128133318,216.69942569732666L1150.7334845343605,223.96240901947021L1153.0590131800852,205.635005235672L1154.8664321657986,205.09638893604279L1156.5993584101561,206.35856986045837L1158.3979942403066,216.22814321517944L1160.1603006226128,220.57570350170135L1161.9205029083114,202.9799027442932L1163.6980977723886,207.64898824691772L1165.4476251459419,208.689706325531L1167.237361998698,224.4644674062729L1168.9874105704932,213.41884660720825L1170.7880153717808,213.3676221370697L1173.0962093500434,198.7432962656021L1174.8560641702472,207.0555350780487L1176.6812811107493,210.1542249917984L1178.4312910752676,203.88519382476807L1180.217398843967,197.8658195734024L1182.0284662173756,206.87853837013245L1183.7691525244502,210.70924353599548L1185.567286459997,210.66232573986053L1187.3723310981625,214.5086954832077L1189.1239625683231,205.60102915763855L1191.4616138990884,203.41473579406738L1193.23639043193,207.04972052574158L1195.0753515631147,219.62899458408356L1196.8523480143951,215.3326804637909L1198.6083228032405,204.07699811458588L1200.440759304579,205.68154335021973L1202.2087409566334,208.48881137371063L1203.994539867115,217.95211458206177L1205.7947585956306,218.6491014957428L1207.5706354358724,210.2479521036148L1209.357978637442,207.69068813323975L1211.1986577924624,211.7922147512436L1212.9856728321759,212.77656638622284L1214.7928794778645,201.46607971191406L1216.5789100320094,219.04755020141602L1218.3523160065104,213.14064848423004L1220.1152401052516,209.5382729768753L1221.880866713397,213.1447273492813L1223.713110178349,210.4295917749405L1225.5065340260778,212.5180140733719L1227.2899392853733,220.8627210855484L1229.5875741733216,218.0105096101761L1231.3984678139827,210.18983912467957L1233.1843632426578,208.33274054527283L1234.9686757729671,206.56057131290436L1236.7683539996021,218.84193634986877L1238.5308727219328,206.19131469726562L1240.328408244683,201.6853837966919L1242.1289165277776,218.73256635665894L1243.9118198924696,227.23705422878265L1245.710880402669,213.5211545228958L1247.4770668163337,204.39255690574646L1249.8182507129627,217.24281513690948L1251.5981620136718,217.4069460630417L1253.3465697761862,205.2281275987625L1255.18278979069,213.81979036331177L1256.9356373900825,217.05896246433258L1258.7289068087023,224.81698548793793L1260.549317143193,211.69165337085724L1262.3481460097294,211.9790723323822L1264.1085799390912,213.34141325950623L1265.8816770553747,207.94384896755219L1461.4406818465711,217.61468613147736L1462.085693626736,200.9516545534134L1462.6636638700447,219.8970606327057L1463.1998031285084,216.81905794143677L1463.805049413158,221.0656337738037L1464.353079712999,213.264533162117L1464.9304901507885,212.0113127231598L1465.4936931105685,215.83583450317383L1466.0341949913557,219.49068200588226L1466.609771583478,208.7366783618927L1467.1408146813512,210.03844380378723L1467.7210627540146,212.54843199253082L1468.2817755444155,216.89080691337585L1468.8352687739798,213.69487512111664L1469.413933948278,212.03078496456146L1469.9569259984448,214.279855966568L1470.5453009029586,219.9708273410797L1471.1108589066478,226.50727367401123L1471.651302876519,210.18440425395966L1472.2342727622251,212.38491940498352L1472.786298915256,219.0084104537964L1473.3838430481046,211.2799266576767L1473.9699401232638,223.14882731437683L1474.5161558810764,216.7000548839569L1475.1265562372323,215.2319129705429L1475.6714207403427,217.8827304840088L1476.2758176648942,209.2780500650406L1476.8716630775461,219.36925983428955L1477.434885340965,208.05078899860382L1478.0632766882957,211.52221775054932L1478.6277536882233,212.73242568969727L1479.2455087306857,210.8886159658432L1479.8932616275317,220.7986091375351L1480.5249925043402,214.94218337535858L1489.4420574080946,219.4975813627243L1490.3953676003327,222.4408187866211L1491.3862812805626,221.39637982845306L1492.3304994590205,208.31041526794434L1493.3629352658781,215.279394865036L1494.3567830991751,195.98449730873108L1495.364626070457,221.7551897764206L1496.4770947629484,222.49406099319458L1497.458298712963,216.7114236354828L1498.4947882839263,215.50748586654663L1499.5917368509836,211.32149636745453L1500.6454259639395,220.73664510250092L1501.7700945560257,221.59409630298615L1502.7808909840132,222.23361027240753L1503.9133003351778,208.11197197437286L1504.898461531105,216.90661251544952L1505.935568818504,222.48839831352234L1507.0447558924334,226.0126678943634L1508.0536412601996,217.033371925354L1541.1835689175707,203.92079710960388L1542.1342345113208,199.98477911949158L1543.103161347186,224.34190618991852L1544.039503641095,211.89108383655548L1545.009028889757,227.4043527841568L1545.876013210178,216.81976306438446L1546.8699961689454,211.6191450357437L1547.832823055013,207.9788990020752L1548.8130618230975,230.84297704696655L1549.8114653151042,227.21444690227509L1550.7848705951244,224.17890346050262L1551.8922817343025,201.1374273300171L1552.9023253203848,209.6203818321228L1553.8862703870802,222.76494753360748L1554.9115638476562,220.81098675727844L1555.8963389708115,216.87861371040344L1557.0075529267938,223.5847885608673L1558.0469187399087,231.15710932016373L1559.1263396031177,220.15799951553345L1560.1534283020833,209.52763104438782L1561.6335540953414,207.86376869678497L1562.8569414952258,216.1781771183014L1564.063689158637,219.85519802570343L1565.4099442182073,220.49120807647705L1566.7658317934388,218.66841101646423L1568.131911689851,209.2649347782135L1569.3711280733867,216.81211519241333" style="fill: none;" fill="none"></path></g></g></g></g></g></g><g transform="translate(58, 364)" clip-path="url(#clip_1)"><clipPath id="clip_1"><rect width="1667" height="35"></rect></clipPath><g><g visibility="inherit"><g><g transform="translate(104.2396484375,0)" style="visibility: inherit;"><text transform="translate(0,15)" style="text-anchor: middle; font-family: &quot;Helvetica Neue&quot;, sans-serif; font-size: 12px; font-weight: 200;" fill="rgb(50, 49, 63)" stroke="none" stroke-width="1px">10 PM</text></g><g transform="translate(312.71894531249995,0)" style="visibility: inherit;"><text transform="translate(0,15)" style="text-anchor: middle; font-family: &quot;Helvetica Neue&quot;, sans-serif; font-size: 12px; font-weight: 200;" fill="rgb(50, 49, 63)" stroke="none" stroke-width="1px">01 AM</text></g><g transform="translate(521.1982421875,0)" style="visibility: inherit;"><text transform="translate(0,15)" style="text-anchor: middle; font-family: &quot;Helvetica Neue&quot;, sans-serif; font-size: 12px; font-weight: 200;" fill="rgb(50, 49, 63)" stroke="none" stroke-width="1px">04 AM</text></g><g transform="translate(729.6775390624999,0)" style="visibility: inherit;"><text transform="translate(0,15)" style="text-anchor: middle; font-family: &quot;Helvetica Neue&quot;, sans-serif; font-size: 12px; font-weight: 200;" fill="rgb(50, 49, 63)" stroke="none" stroke-width="1px">07 AM</text></g><g transform="translate(938.1568359375,0)" style="visibility: inherit;"><text transform="translate(0,15)" style="text-anchor: middle; font-family: &quot;Helvetica Neue&quot;, sans-serif; font-size: 12px; font-weight: 200;" fill="rgb(50, 49, 63)" stroke="none" stroke-width="1px">10 AM</text></g><g transform="translate(1146.6361328125,0)" style="visibility: inherit;"><text transform="translate(0,15)" style="text-anchor: middle; font-family: &quot;Helvetica Neue&quot;, sans-serif; font-size: 12px; font-weight: 200;" fill="rgb(50, 49, 63)" stroke="none" stroke-width="1px">01 PM</text></g><g transform="translate(1355.1154296875,0)" style="visibility: inherit;"><text transform="translate(0,15)" style="text-anchor: middle; font-family: &quot;Helvetica Neue&quot;, sans-serif; font-size: 12px; font-weight: 200;" fill="rgb(50, 49, 63)" stroke="none" stroke-width="1px">04 PM</text></g><g transform="translate(1563.5947265625,0)" style="visibility: inherit;"><text transform="translate(0,15)" style="text-anchor: middle; font-family: &quot;Helvetica Neue&quot;, sans-serif; font-size: 12px; font-weight: 200;" fill="rgb(50, 49, 63)" stroke="none" stroke-width="1px">07 PM</text></g></g><g><line x1="0" y1="0" x2="0" y2="18" fill="rgb(0, 0, 0)" stroke="rgb(204, 204, 204)" stroke-width="1px"></line><line x1="208.479296875" y1="0" x2="208.479296875" y2="18" fill="rgb(0, 0, 0)" stroke="rgb(204, 204, 204)" stroke-width="1px"></line><line x1="416.95859375" y1="0" x2="416.95859375" y2="18" fill="rgb(0, 0, 0)" stroke="rgb(204, 204, 204)" stroke-width="1px"></line><line x1="625.4378906249999" y1="0" x2="625.4378906249999" y2="18" fill="rgb(0, 0, 0)" stroke="rgb(204, 204, 204)" stroke-width="1px"></line><line x1="833.9171875" y1="0" x2="833.9171875" y2="18" fill="rgb(0, 0, 0)" stroke="rgb(204, 204, 204)" stroke-width="1px"></line><line x1="1042.396484375" y1="0" x2="1042.396484375" y2="18" fill="rgb(0, 0, 0)" stroke="rgb(204, 204, 204)" stroke-width="1px"></line><line x1="1250.8757812499998" y1="0" x2="1250.8757812499998" y2="18" fill="rgb(0, 0, 0)" stroke="rgb(204, 204, 204)" stroke-width="1px"></line><line x1="1459.3550781249999" y1="0" x2="1459.3550781249999" y2="18" fill="rgb(0, 0, 0)" stroke="rgb(204, 204, 204)" stroke-width="1px"></line><line x1="1667.834375" y1="0" x2="1667.834375" y2="18" fill="rgb(0, 0, 0)" stroke="rgb(204, 204, 204)" stroke-width="1px"></line></g><line x1="0" y1="0" x2="1667.834375" y2="0" style="visibility: inherit;" fill="rgb(0, 0, 0)" stroke="rgb(204, 204, 204)" stroke-width="1px"></line></g><g visibility="inherit"><g><g transform="translate(104.2396484375,0)" style="visibility: inherit;"><text transform="translate(0,33)" style="text-anchor: middle; font-family: &quot;Helvetica Neue&quot;, sans-serif; font-size: 12px; font-weight: 200;" fill="rgb(50, 49, 63)" stroke="none" stroke-width="1px">December 15, 2018</text></g><g transform="translate(312.71894531249995,0)" style="visibility: inherit;"><text transform="translate(0,33)" style="text-anchor: middle; font-family: &quot;Helvetica Neue&quot;, sans-serif; font-size: 12px; font-weight: 200;" fill="rgb(50, 49, 63)" stroke="none" stroke-width="1px">December 16, 2018</text></g><g transform="translate(521.1982421875,0)" style="visibility: inherit;"><text transform="translate(0,33)" style="text-anchor: middle; font-family: &quot;Helvetica Neue&quot;, sans-serif; font-size: 12px; font-weight: 200;" fill="rgb(50, 49, 63)" stroke="none" stroke-width="1px">December 16, 2018</text></g><g transform="translate(729.6775390624999,0)" style="visibility: inherit;"><text transform="translate(0,33)" style="text-anchor: middle; font-family: &quot;Helvetica Neue&quot;, sans-serif; font-size: 12px; font-weight: 200;" fill="rgb(50, 49, 63)" stroke="none" stroke-width="1px">December 16, 2018</text></g><g transform="translate(938.1568359375,0)" style="visibility: inherit;"><text transform="translate(0,33)" style="text-anchor: middle; font-family: &quot;Helvetica Neue&quot;, sans-serif; font-size: 12px; font-weight: 200;" fill="rgb(50, 49, 63)" stroke="none" stroke-width="1px">December 16, 2018</text></g><g transform="translate(1146.6361328125,0)" style="visibility: inherit;"><text transform="translate(0,33)" style="text-anchor: middle; font-family: &quot;Helvetica Neue&quot;, sans-serif; font-size: 12px; font-weight: 200;" fill="rgb(50, 49, 63)" stroke="none" stroke-width="1px">December 16, 2018</text></g><g transform="translate(1355.1154296875,0)" style="visibility: inherit;"><text transform="translate(0,33)" style="text-anchor: middle; font-family: &quot;Helvetica Neue&quot;, sans-serif; font-size: 12px; font-weight: 200;" fill="rgb(50, 49, 63)" stroke="none" stroke-width="1px">December 16, 2018</text></g><g transform="translate(1563.5947265625,0)" style="visibility: inherit;"><text transform="translate(0,33)" style="text-anchor: middle; font-family: &quot;Helvetica Neue&quot;, sans-serif; font-size: 12px; font-weight: 200;" fill="rgb(50, 49, 63)" stroke="none" stroke-width="1px">December 16, 2018</text></g></g><g><line x1="0" y1="18" x2="0" y2="36" fill="rgb(0, 0, 0)" stroke="rgb(204, 204, 204)" stroke-width="1px"></line><line x1="208.479296875" y1="18" x2="208.479296875" y2="36" fill="rgb(0, 0, 0)" stroke="rgb(204, 204, 204)" stroke-width="1px"></line><line x1="416.95859375" y1="18" x2="416.95859375" y2="36" fill="rgb(0, 0, 0)" stroke="rgb(204, 204, 204)" stroke-width="1px"></line><line x1="625.4378906249999" y1="18" x2="625.4378906249999" y2="36" fill="rgb(0, 0, 0)" stroke="rgb(204, 204, 204)" stroke-width="1px"></line><line x1="833.9171875" y1="18" x2="833.9171875" y2="36" fill="rgb(0, 0, 0)" stroke="rgb(204, 204, 204)" stroke-width="1px"></line><line x1="1042.396484375" y1="18" x2="1042.396484375" y2="36" fill="rgb(0, 0, 0)" stroke="rgb(204, 204, 204)" stroke-width="1px"></line><line x1="1250.8757812499998" y1="18" x2="1250.8757812499998" y2="36" fill="rgb(0, 0, 0)" stroke="rgb(204, 204, 204)" stroke-width="1px"></line><line x1="1459.3550781249999" y1="18" x2="1459.3550781249999" y2="36" fill="rgb(0, 0, 0)" stroke="rgb(204, 204, 204)" stroke-width="1px"></line><line x1="1667.834375" y1="18" x2="1667.834375" y2="36" fill="rgb(0, 0, 0)" stroke="rgb(204, 204, 204)" stroke-width="1px"></line></g><line x1="0" y1="18" x2="1667.834375" y2="18" style="visibility: inherit;" fill="rgb(0, 0, 0)" stroke="rgb(204, 204, 204)" stroke-width="1px"></line></g></g></g></g></g></svg>