<svg viewBox="0 0 1726.354248046875 400.0000305175781" xmlns="http://www.w3.org/2000/svg"><g><g><g><g><g><line x1="58.515625" y1="364" x2="53.515625" y2="364" style="visibility: inherit;" fill="rgb(0, 0, 0)" stroke="rgb(204, 204, 204)" stroke-width="1px"></line><line x1="58.515625" y1="323.55555555555554" x2="53.515625" y2="323.55555555555554" style="visibility: inherit;" fill="rgb(0, 0, 0)" stroke="rgb(204, 204, 204)" stroke-width="1px"></line><line x1="58.515625" y1="283.11111111111114" x2="53.515625" y2="283.11111111111114" style="visibility: inherit;" fill="rgb(0, 0, 0)" stroke="rgb(204, 204, 204)" stroke-width="1px"></line><line x1="58.515625" y1="242.66666666666663" x2="53.515625" y2="242.66666666666663" style="visibility: inherit;" fill="rgb(0, 0, 0)" stroke="rgb(204, 204, 204)" stroke-width="1px"></line><line x1="58.515625" y1="202.22222222222226" x2="53.515625" y2="202.22222222222226" style="visibility: inherit;" fill="rgb(0, 0, 0)" stroke="rgb(204, 204, 204)" stroke-width="1px"></line><line x1="58.515625" y1="161.77777777777777" x2="53.515625" y2="161.77777777777777" style="visibility: inherit;" fill="rgb(0, 0, 0)" stroke="rgb(204, 204, 204)" stroke-width="1px"></line><line x1="58.515625" y1="121.33333333333326" x2="53.515625" y2="121.33333333333326" style="visibility: inherit;" fill="rgb(0, 0, 0)" stroke="rgb(204, 204, 204)" stroke-width="1px"></line><line x1="58.515625" y1="80.88888888888886" x2="53.515625" y2="80.88888888888886" style="visibility: inherit;" fill="rgb(0, 0, 0)" stroke="rgb(204, 204, 204)" stroke-width="1px"></line><line x1="58.515625" y1="40.4444444444444" x2="53.515625" y2="40.4444444444444" style="visibility: inherit;" fill="rgb(0, 0, 0)" stroke="rgb(204, 204, 204)" stroke-width="1px"></line><line x1="58.515625" y1="0" x2="53.515625" y2="0" style="visibility: inherit;" fill="rgb(0, 0, 0)" stroke="rgb(204, 204, 204)" stroke-width="1px"></line></g><g transform="translate(48.515625, 0)"><text x="0" y="364" dx="0em" dy="0.3em" style="text-anchor: end; visibility: hidden; font-family: &quot;Helvetica Neue&quot;, sans-serif; font-size: 12px; font-weight: 200;" fill="rgb(50, 49, 63)" stroke="none" stroke-width="1px">0.500</text><text x="0" y="323.55555555555554" dx="0em" dy="0.3em" style="text-anchor: end; visibility: inherit; font-family: &quot;Helvetica Neue&quot;, sans-serif; font-size: 12px; font-weight: 200;" fill="rgb(50, 49, 63)" stroke="none" stroke-width="1px">0.550</text><text x="0" y="283.11111111111114" dx="0em" dy="0.3em" style="text-anchor: end; visibility: inherit; font-family: &quot;Helvetica Neue&quot;, sans-serif; font-size: 12px; font-weight: 200;" fill="rgb(50, 49, 63)" stroke="none" stroke-width="1px">0.600</text><text x="0" y="242.66666666666663" dx="0em" dy="0.3em" style="text-anchor: end; visibility: inherit; font-family: &quot;Helvetica Neue&quot;, sans-serif; font-size: 12px; font-weight: 200;" fill="rgb(50, 49, 63)" stroke="none" stroke-width="1px">0.650</text><text x="0" y="202.22222222222226" dx="0em" dy="0.3em" style="text-anchor: end; visibility: inherit; font-family: &quot;Helvetica Neue&quot;, sans-serif; font-size: 12px; font-weight: 200;" fill="rgb(50, 49, 63)" stroke="none" stroke-width="1px">0.700</text><text x="0" y="161.77777777777777" dx="0em" dy="0.3em" style="text-anchor: end; visibility: inherit; font-family: &quot;Helvetica Neue&quot;, sans-serif; font-size: 12px; font-weight: 200;" fill="rgb(50, 49, 63)" stroke="none" stroke-width="1px">0.750</text><text x="0" y="121.33333333333326" dx="0em" dy="0.3em" style="text-anchor: end; visibility: inherit; font-family: &quot;Helvetica Neue&quot;, sans-serif; font-size: 12px; font-weight: 200;" fill="rgb(50, 49, 63)" stroke="none" stroke-width="1px">0.800</text><text x="0" y="80.88888888888886" dx="0em" dy="0.3em" style="text-anchor: end; visibility: inherit; font-family: &quot;Helvetica Neue&quot;, sans-serif; font-size: 12px; font-weight: 200;" fill="rgb(50, 49, 63)" stroke="none" stroke-width="1px">0.850</text><text x="0" y="40.4444444444444" dx="0em" dy="0.3em" style="text-anchor: end; visibility: inherit; font-family: &quot;Helvetica Neue&quot;, sans-serif; font-size: 12px; font-weight: 200;" fill="rgb(50, 49, 63)" stroke="none" stroke-width="1px">0.900</text><text x="0" y="0" dx="0em" dy="0.3em" style="text-anchor: end; visibility: hidden; font-family: &quot;Helvetica Neue&quot;, sans-serif; font-size: 12px; font-weight: 200;" fill="rgb(50, 49, 63)" stroke="none" stroke-width="1px">0.950</text></g><line x1="58.515625" y1="0" x2="58.515625" y2="364" fill="rgb(0, 0, 0)" stroke="rgb(204, 204, 204)" stroke-width="1px"></line></g></g><g transform="translate(58, 0)" clip-path="url(#clip_0)"><clipPath id="clip_0"><rect width="1667" height="363"></rect></clipPath><g><g><g><line x1="0" y1="0" x2="0" y2="364" fill="rgb(0, 0, 0)" stroke="rgb(60, 60, 60)" stroke-width="1px" opacity="0.25"></line><line x1="208.479296875" y1="0" x2="208.479296875" y2="364" fill="rgb(0, 0, 0)" stroke="rgb(60, 60, 60)" stroke-width="1px" opacity="0.25"></line><line x1="416.95859375" y1="0" x2="416.95859375" y2="364" fill="rgb(0, 0, 0)" stroke="rgb(60, 60, 60)" stroke-width="1px" opacity="0.25"></line><line x1="625.4378906249999" y1="0" x2="625.4378906249999" y2="364" fill="rgb(0, 0, 0)" stroke="rgb(60, 60, 60)" stroke-width="1px" opacity="0.25"></line><line x1="833.9171875" y1="0" x2="833.9171875" y2="364" fill="rgb(0, 0, 0)" stroke="rgb(60, 60, 60)" stroke-width="1px" opacity="0.25"></line><line x1="1042.396484375" y1="0" x2="1042.396484375" y2="364" fill="rgb(0, 0, 0)" stroke="rgb(60, 60, 60)" stroke-width="1px" opacity="0.25"></line><line x1="1250.8757812499998" y1="0" x2="1250.8757812499998" y2="364" fill="rgb(0, 0, 0)" stroke="rgb(60, 60, 60)" stroke-width="1px" opacity="0.25"></line><line x1="1459.3550781249999" y1="0" x2="1459.3550781249999" y2="364" fill="rgb(0, 0, 0)" stroke="rgb(60, 60, 60)" stroke-width="1px" opacity="0.25"></line><line x1="1667.834375" y1="0" x2="1667.834375" y2="364" fill="rgb(0, 0, 0)" stroke="rgb(60, 60, 60)" stroke-width="1px" opacity="0.25"></line></g><g><line x1="0" y1="364" x2="1667.834375" y2="364" fill="rgb(0, 0, 0)" stroke="rgb(60, 60, 60)" stroke-width="1px" opacity="0.25"></line><line x1="0" y1="323.55555555555554" x2="1667.834375" y2="323.55555555555554" fill="rgb(0, 0, 0)" stroke="rgb(60, 60, 60)" stroke-width="1px" opacity="0.25"></line><line x1="0" y1="283.11111111111114" x2="1667.834375" y2="283.11111111111114" fill="rgb(0, 0, 0)" stroke="rgb(60, 60, 60)" stroke-width="1px" opacity="0.25"></line><line x1="0" y1="242.66666666666663" x2="1667.834375" y2="242.66666666666663" fill="rgb(0, 0, 0)" stroke="rgb(60, 60, 60)" stroke-width="1px" opacity="0.25"></line><line x1="0" y1="202.22222222222226" x2="1667.834375" y2="202.22222222222226" fill="rgb(0, 0, 0)" stroke="rgb(60, 60, 60)" stroke-width="1px" opacity="0.25"></line><line x1="0" y1="161.77777777777777" x2="1667.834375" y2="161.77777777777777" fill="rgb(0, 0, 0)" stroke="rgb(60, 60, 60)" stroke-width="1px" opacity="0.25"></line><line x1="0" y1="121.33333333333326" x2="1667.834375" y2="121.33333333333326" fill="rgb(0, 0, 0)" stroke="rgb(60, 60, 60)" stroke-width="1px" opacity="0.25"></line><line x1="0" y1="80.88888888888886" x2="1667.834375" y2="80.88888888888886" fill="rgb(0, 0, 0)" stroke="rgb(60, 60, 60)" stroke-width="1px" opacity="0.25"></line><line x1="0" y1="40.4444444444444" x2="1667.834375" y2="40.4444444444444" fill="rgb(0, 0, 0)" stroke="rgb(60, 60, 60)" stroke-width="1px" opacity="0.25"></line><line x1="0" y1="0" x2="1667.834375" y2="0" fill="rgb(0, 0, 0)" stroke="rgb(60, 60, 60)" stroke-width="1px" opacity="0.25"></line></g></g></g><g><g><line x1="0" y1="768.4444444444445" x2="1667.834375" y2="768.4444444444445" fill="rgb(0, 0, 0)" stroke="rgb(153, 153, 153)" stroke-width="1.5px"></line></g></g><g><g><line x1="-29822754.938671872" y1="0" x2="-29822754.938671872" y2="364" fill="rgb(0, 0, 0)" stroke="rgb(153, 153, 153)" stroke-width="1.5px"></line></g></g><g><g><g><g><g><path stroke="rgb(255, 112, 67)" stroke-width="2px" d="M142.26312569440827,400.69620635712863L144.0679772961878,358.7088558317328L145.8773459493996,339.91925560529455L147.65440031159577,327.41082102587086L149.44851909031394,316.02232563569635L151.2852216957827,315.2675974087646L153.02380390624998,309.2138534316393L154.8411256585648,304.4792013473516L156.62787044733795,300.08986337919725L158.91710825249564,301.93026867597973L160.7128871441334,302.76017549814964L162.5171982440321,314.476784124256L164.2692736978805,323.7450208074633L166.08989637239583,327.5403069489075L167.9140902200521,328.84016987827715L169.7140386976273,325.69646429088664L171.520473197772,325.55687752325025L173.35146192621528,322.93427378044754L175.10041019061055,323.52612146378124L176.8771363909505,322.87994966414345L179.14645284107348,318.6773591276318L180.93198150061485,315.71550041342346L182.76210156532116,312.6409206372798L184.53075884472653,310.39137216149095L186.32841018930844,308.273620828621L188.1069123243996,304.731398975138L189.89830929007522,302.64380748375777L191.69121193956164,302.34694131024503L193.4606220608724,301.8015501824842L195.22256167404512,298.35291339170186L218.03444355266203,231.3838775804405L219.8754894768157,225.1453054997501L221.68402807356767,227.19879841888803L223.41890398542387,228.87540367575613L225.2082933726852,227.34103424636538L227.02658030692996,226.60989178114528L228.84625710315393,227.72973774553424L230.65554854181136,225.0666186888211L232.42472701945889,220.17946562161129L234.24106428620516,222.135794793882L235.99271506000434,222.34096309595006L238.28840028045425,222.95109792118708L240.07445013823786,220.32892320955443L241.84192989568868,221.34377879145825L243.61900356152344,222.59796280608643L245.43167313693573,223.8198030488468L247.2261972920645,222.04069274578367L249.0564910895182,220.95089405458785L250.82897048936633,217.9069542031378L252.64482516514758,215.43605247251168L254.43267026132088,214.76315168275283L256.25275243395544,214.16133072217607L258.49846053407117,213.36444564671177L260.32174711071326,212.10274823248227L262.0987628656322,210.05061780986424L263.8708754963469,208.58490606426872L265.6812672424045,207.15399331948296L267.4650006635561,205.59962793715138L269.25630111103874,203.15493582668978L270.9921035975477,201.99882786462547L272.7611276460865,201.12754442487062L274.57470449251304,200.92956001741695L276.8396969275897,200.10347681618208L278.62063132114434,200.13777078548287L280.40920995558446,199.0235162683546L282.16531986990015,197.76668129082512L283.9845526824363,196.29653216960958L285.77220474222366,195.6078368280109L287.5820173791232,194.60057101702677L289.4168475316478,193.88111617995892L291.1942686629774,193.98362995882985L292.970145503219,193.65694212867245L294.79001533582897,193.27750585846158L297.0274807822627,193.34086099290082L298.8515588080874,192.64556549337775L300.595140660952,191.86701810699404L302.4074627708695,191.06368705370377L304.2139165746528,190.07118422895343L306.02749342107927,189.21004524230096L307.7980810643446,188.39924000209717L309.5594994792752,187.9412414143849L311.33574308865013,187.25965502522598L313.1693185046658,186.7031119187407L315.3874224015842,186.088139717298L317.21121087282984,185.17366846274376L318.94168555508537,184.32197328596598L320.7390280414496,183.87517660836616L322.51561911631944,183.39509404621006L324.274624576425,182.78380168563348L326.08032553830293,182.47746675661938L327.8288105153718,182.79940649474042L329.55254822775606,182.83815202808344L331.39571755215565,182.544559282239L333.2093909167752,181.96232995851716L335.0535447267433,181.07612501063272L336.81587041268807,180.19323393921377L338.59246148755784,179.62930625742203L340.3757895322989,178.76474712861227L342.17898102115885,177.68713964035365L343.957772710829,176.45474212771802L345.76401417458766,175.4536969798507L347.56073894451674,174.8686139347773L349.3276395928096,174.3280463448074L351.0945016338252,173.85250814542613L352.8938903058811,173.14878817006542L355.1445594411169,172.44252060813466L356.94234591116896,171.74012441016885L358.75806546148,171.33698854923176L360.52400092784285,170.53478861565017L362.3299721406612,169.47938045291872L364.10548221176936,168.57112555229594L365.93193458514173,167.82813069602872L367.7326745118996,167.12601134540583L369.5143810509982,166.7369463763353L371.28384908322477,166.3604289087683L373.5722761355613,165.9935806230524L375.387435880353,165.34575974095114L377.1865349978299,164.583296603848L378.95447804260704,163.91460486796203L380.78772529676644,163.03792723080866L382.5616524695095,162.2706215491243L384.35787534483507,161.57692320209827L386.1353350834418,160.94274044537462L387.90179174804683,160.3550090184047L389.69554375763164,160.06894341119204L391.5114177370515,159.84189705257452L393.7134417030165,159.5648471447121L395.55313637246815,159.26171004633522L397.33685048998115,159.03905842221033L399.1339227254051,158.92700925512196L400.9194127776692,158.70231434993462L402.7271599252387,158.34322732795124L404.4731547329282,158.17055016291113L406.26146311642793,157.88490884157534L408.08347565292246,157.52892406640623L409.8290650842014,157.24395788426102L412.1143842507234,157.0250732067123L413.87008878862844,156.8352111688326L415.6723150955584,156.52813123994153L417.4817995706018,156.13511867655495L419.2499742590422,155.73131589756977L421.03905478808593,155.1885674807755L422.82101227448635,154.650778877205L424.59393565802225,154.13893508958793L426.3800434267216,153.6526673213851L428.2037739870515,153.22668017934362L429.9935687507234,152.765138958504L432.23987526363567,152.23463031791928L434.05466823929396,151.83922204858035L435.8796149288556,151.415872842321L437.64601368254483,151.20037629023145L439.48545740469467,150.81774516127803L441.25365139677365,150.59225499166422L443.0632903009259,150.25172551459758L444.83744911733214,149.95387357068074L446.6651176199363,149.6958993529797L448.4233702381366,149.35545414222398L450.2874840104167,149.08553946667118L452.0782439560185,148.6393429450716L453.8904309404658,148.29209198496565L455.72846549699796,147.92101108595827L457.50262431340417,147.55962327856872L459.263212671875,147.23691367152762L461.0490308859953,146.86661423007047L462.8240969734158,146.48018069454992L464.6458006516927,146.06894693805148L466.4306150766059,145.6972757725585L468.233362581778,145.29439801731388L470.50065214984807,144.9600242355321L472.32175741532836,144.64172037051583L474.1140809556568,144.38983471423927L475.9242410580512,144.09797765485106L477.6765867628399,143.77249504661881L479.4894493746383,143.3896934018048L481.2520260078848,143.12400654706437L483.030624661169,142.85748324511957L484.8399354034649,142.50357728498946L486.5616655374349,142.11648857307432L488.77585079571753,141.68171921399434L490.61541033969905,141.26715284933292L492.4269216967954,140.8072763185679L494.21631108405666,140.32000154858702L496.00442643117043,140.03920793497088L497.7995296954572,139.72911897213703L499.59422758333335,139.4060041574657L501.38350114876295,139.12186024594428L503.161964676577,138.823665887828L504.9424550864439,138.63182804560915L506.820062102105,138.32736186066347L509.05685192118773,138.0050557526692L510.84056603870073,137.61303232414662L512.6327351499203,137.29539240779366L514.4485512184244,136.99792869384882L516.2893268916376,136.69617809948795L518.0698366051432,136.47825403139146L519.9310162243561,136.14450132325382L521.6367436419271,135.84548909351284L523.4445680040509,135.59802352982464L525.271271324725,135.35471781119992L527.5321327811415,135.15176526720495L529.3268306690176,134.85399505306387L531.129423745081,134.42711036157738L532.8727546506437,134.09578571767887L534.6855400478877,133.7428233321916L536.4970321013454,133.35375509042012L538.3093349076244,133.00176670578205L540.1072178958694,132.72191760132293L541.9163162981409,132.440629190012L543.7100103968099,132.15818791338052L545.5295520675636,132.01248277739302L547.8032890509259,131.85071442500785L549.6042799249855,131.72372245112012L551.3932639358362,131.5446974395848L553.2544628586878,131.39481595113702L555.0507822522063,131.19669588578634L556.8421020033276,130.93077256517677L558.6148709577545,130.7992017084582L560.4350882558593,130.62240500402459L562.2253656104963,130.40732582169645L564.0370313967014,130.146886787031L566.3076025833333,129.9300671664162L568.1126858287761,129.67768658416503L569.9198345635489,129.3662085844101L571.6912136559968,129.02895341195787L573.5129366379123,128.76155060721976L575.3290229573568,128.5445833760777L577.1134899167752,128.38371994379168L578.9086510919776,128.23372343152565L580.6949712007016,128.11202030362566L582.4876229028863,127.99570267255899L584.302300056713,127.79558126641791L586.5676206536458,127.5987139043684L588.3593650848162,127.38038647623387L590.145839622649,127.13979101185251L591.9424099634693,126.87148637774146L593.7575890118995,126.61006516140236L595.535164572338,126.39473905649041L597.3025671152343,126.18149755953172L599.1478791435185,126.05200982824016L600.90404696875,126.02607924051779L602.6951736834852,125.91399739104457L765.370835496781,108.83651175317598L767.2547161949869,96.17969076365694L768.9749599487847,87.37798411897427L770.7735764752965,89.20155234950414L772.5522330394965,90.03626589931304L774.2977645598596,91.26236059176608L776.1340231816406,91.2339871626225L777.8680883406756,90.39019740892871L779.6467062975984,89.68709662189792L781.4769421841362,88.49374244986399L783.2021276694155,88.92534707480394L785.5752204806496,89.08473925752332L787.3578149871238,89.9968804231392L789.1319544998914,90.70101339419654L790.9440063588686,90.6134518339897L792.6749057211732,90.8811491965717L794.4200125614873,91.10527448227128L796.238202977539,91.3429459037589L797.998636906901,91.58585219462628L799.7912886090857,92.58505267826666L801.5673777893518,92.67646016700502L803.329491135272,92.31371759190222L805.6896891159216,91.83510182521508L807.4216694819878,91.282082933847L809.2639315353732,90.89692814402952L811.0167791347656,91.24478339703785L812.79757840285,91.07604242693532L814.614070098705,90.96550227534794L816.4064901572266,91.1478057410904L818.1657851719111,91.594547566833L819.9094249356915,91.87439533561843L821.7013624032479,92.0894568340072L824.0487041605902,92.387665384245L825.8494247837094,92.32268788411147L827.6535814544994,91.95556006560412L829.4517539973234,91.71138874661074L831.2503512201968,91.65562382786823L833.0397792147352,91.66663704120066L834.8308673221932,91.61295876517994L836.6158747834924,91.47894409930439L838.3899563853444,91.39222896941607L840.1973946746962,91.20892407869826L841.9546821109664,91.12513073641708L844.2449623126084,91.03927314230322L846.0281359282408,90.84516223505904L847.7975074422742,90.67388654425531L849.5526328710214,90.67582164212934L851.3414817564019,90.60194315515889L853.1132469216218,90.80994641915055L854.8999144958404,91.09979295016376L856.6732046485098,91.36549943919277L858.5025718713107,91.42612415692378L860.2695304305195,91.3890022749838L862.5606792958984,91.50269131419549L864.3446829679905,91.3123259074273L866.1133981583116,91.27979967687554L867.8961277902561,91.23887712905548L869.6713869140624,91.35965847992082L871.442013164605,91.26399705158906L873.2342015794633,91.12648858502524L874.9956972089482,91.20478528663529L876.8208176312572,91.29891614471882L878.6011922192924,91.33105646715893L880.3338096054325,91.14988806798527L882.6475630316116,91.14839464465132L884.4023602985025,90.90502308100736L886.2690221510778,90.50975545287957L888.0343012937282,90.15279388452069L889.8184014840133,89.87127227797805L891.5876378725766,89.67967966724251L893.3686494806857,89.63781581968686L895.1342953924697,89.46728548994031L896.9031264046224,89.2391106806287L898.6773238283057,88.97955056229432L900.9715805794993,88.68252954866676L902.7808913217955,88.72704418624483L904.5854147617187,88.71254003917198L906.3946289858218,88.59880918653494L908.1775516541521,88.47703436581634L909.9647211229744,88.38913899005456L911.7195569971425,88.14753970574606L913.5085796152704,87.91959499891686L915.3111147804179,87.55367888621817L917.0817796382378,87.43967828916908L918.8496068611834,87.54355453379054L921.1185372385344,87.55161112569692L922.8693579558737,87.57544121358546L924.6669706931785,87.59722200693267L926.4614562410301,87.48929379579369L928.230132824074,87.34623808845708L929.996010379521,87.15632128494542L931.8204165672018,87.04470473792685L933.5638053836806,86.77616366306864L935.3334857559316,86.64543283054513L937.1277975710359,86.59410962305043L938.8516511052517,86.35962315637147L941.1536293118851,86.30378709776164L942.9478639124349,86.13191261747596L944.7199765431495,86.18876043805284L946.5044628062066,86.10013675599572L948.2994502486617,86.04138906212881L950.1037227412831,85.89584716340568L951.8634424360171,85.65838507654001L953.6638155936414,85.65663349004296L955.4474911038773,85.46326839019542L957.1759389040799,85.47507305397392L959.545557060366,85.42597744139312L961.2933278028066,85.37484326856037L963.0741270708911,85.44276908640745L964.8764885032913,85.40347082379276L966.6375015418113,85.48115957489631L968.4452293857422,85.39854126665273L970.2314143689958,85.33521978155738L972.0010368303313,85.1256059917236L973.7804269327979,84.99750418273493L975.5455902536169,84.8549762628283L977.3492643334419,84.73025226431594L979.1905998121744,84.81585322389174L980.9909729697988,84.77938802449074L982.7317944023437,84.67207452103395L984.5161841472078,84.49471246401743L986.2803050715422,84.46956396420961L988.0414146282551,84.41243266190514L989.8302828172742,84.32670039609332L991.6311964767795,84.17943181466876L993.3948348101491,84.01065048962585L995.1860194358,83.87559364935282L996.906243885959,83.73153481238728L999.2125461076389,83.64982443662672L1001.0021671385632,83.58268920746758L1002.7672146375505,83.58227102061505L1004.5676650097294,83.53438513603703L1006.3619189139177,83.39896669529674L1008.1724650890842,83.27108349991192L1009.9135953798466,83.17645671853171L1011.7038534308449,83.05563378996226L1013.4889767139756,82.84469004604495L1015.2462641502459,82.7881298523476L1017.6095314094329,82.76613140736663L1019.3785747616101,82.73189195375426L1021.1603585152633,82.69711564608878L1022.9003498913482,82.67200707041962L1024.7076916625072,82.70723828461007L1026.4958842241751,82.69435754290959L1028.2707379715712,82.64234978745088L1030.0661307904368,82.66242504987946L1031.8353864826388,82.5468971940308L1033.5956273756146,82.46836205265168L1035.380055727756,82.39572636516306L1037.6977470962095,82.41520825629942L1039.4116785601852,82.40479630658996L1041.2565852120586,82.41336033468104L1043.0391990221715,82.40877890290278L1044.864782731807,82.38606964039343L1046.5923039573568,82.3895309596511L1048.352815101273,82.3765458429076L1050.1715846264829,82.37465610953143L1051.931149892108,82.47199359315482L1053.7455374913557,82.51398419605408L1056.0688848259188,82.49667350543899L1057.882712619647,82.38717934876036L1059.631043167607,82.32138642768348L1061.4147765887587,82.23230859034754L1063.2082969546802,82.16088788214091L1064.9994815803313,82.09527866875112L1066.7920560679615,81.98507781526439L1068.5893985543257,81.85593257037056L1070.3559517371236,81.7178892236189L1072.1259602712312,81.54353464094214L1073.9167395204718,81.40918378301899L1076.2011514159794,81.34812867801452L1078.0073156651838,81.36883115069713L1079.785566852973,81.358457275013L1081.5805929027053,81.24747458100438L1083.3524931933955,81.14223699503543L1085.08904852181,80.98274451533996L1086.8626668363352,80.77586861607779L1088.622830514757,80.57086005039758L1090.4014098644025,80.35460993452182L1092.213982921622,80.12687067669623L1094.4673545662615,80.01358175829904L1096.3231484703051,79.9743243886382L1098.0956278701533,80.0218560026762L1099.8770255510344,79.96692698492006L1101.6227887150608,79.93209888911286L1103.3767752291303,79.88861881188836L1105.1380199113137,79.830131270111L1106.9176995683592,79.83823807230158L1108.7683587045356,79.85388270001607L1110.5131952939091,79.87133077967758L1112.2546923538048,79.88762382248865L1114.5831937598741,79.91101515042669L1116.3503453554688,79.91961146045458L1118.186546066334,79.9325991245367L1119.9452040609447,79.9926744802151L1121.6957545273438,80.01448705812413L1123.472905407733,80.02439251156716L1125.2582603345268,79.98011656569679L1127.0820295021338,79.8683094684979L1128.8221946109663,79.78101409635485L1130.605773603009,79.70618865122651L1132.9225383968098,79.6206397315346L1134.7307102244285,79.58564512533843L1136.5221071901042,79.5285846375267L1138.2645501282914,79.44896976580594L1140.0199458079787,79.40075727825251L1141.8191414436487,79.33590105952419L1143.6436055422453,79.25552368828613L1145.4031128969543,79.1554773582489L1147.1838542541232,79.0159357984943L1148.9508128133318,78.89298433065903L1150.7334845343605,78.76290004121228L1153.0590131800852,78.75221341848555L1154.8664321657986,78.74439360963083L1156.5993584101561,78.7335303918527L1158.3979942403066,78.75264277633067L1160.1603006226128,78.70039119931346L1161.9205029083114,78.65056482653523L1163.6980977723886,78.63397593849652L1165.4476251459419,78.66429055000918L1167.237361998698,78.62618519358517L1168.9874105704932,78.54093366558959L1170.7880153717808,78.45211833534012L1173.0962093500434,78.43323431568433L1174.8560641702472,78.4640039625524L1176.6812811107493,78.46697956326824L1178.4312910752676,78.48471396103758L1180.217398843967,78.50727298552272L1182.0284662173756,78.54262020339581L1183.7691525244502,78.50564444022058L1185.567286459997,78.42002925582062L1187.3723310981625,78.36626875385036L1189.1239625683231,78.34778223823139L1191.4616138990884,78.35755714675827L1193.23639043193,78.37696045247009L1195.0753515631147,78.37652976676202L1196.8523480143951,78.33436415081508L1198.6083228032405,78.3403457226803L1200.440759304579,78.3438189533158L1202.2087409566334,78.3123077005892L1203.994539867115,78.29465450086025L1205.7947585956306,78.29330029430679L1207.5706354358724,78.26737816140667L1209.357978637442,78.29174568855132L1211.1986577924624,78.29359926080059L1212.9856728321759,78.28153946641964L1214.7928794778645,78.25029324941818L1216.5789100320094,78.21627147136593L1218.3523160065104,78.1941612881065L1220.1152401052516,78.14564144144299L1221.880866713397,78.14026987802231L1223.713110178349,78.11805080722513L1225.5065340260778,78.15526643472026L1227.2899392853733,78.19304342779458L1229.5875741733216,78.18008946406604L1231.3984678139827,78.1830783468152L1233.1843632426578,78.2043885153862L1234.9686757729671,78.27026736114419L1236.7683539996021,78.293440637566L1238.5308727219328,78.31631232090763L1240.328408244683,78.26575704620399L1242.1289165277776,78.19488594125045L1243.9118198924696,78.11853666220298L1245.710880402669,78.05554379094156L1247.4770668163337,78.0171695057661L1249.8182507129627,77.97985444292095L1251.5981620136718,77.92225023933378L1253.3465697761862,77.92604640553611L1255.18278979069,77.92057136884796L1256.9356373900825,77.90986146246274L1258.7289068087023,77.87304170624014L1260.549317143193,77.83143301358507L1262.3481460097294,77.80789491862458L1264.1085799390912,77.75653192730317L1265.8816770553747,77.69784670934689L1461.4406818465711,71.40791298335824L1462.085693626736,73.6412434819502L1462.6636638700447,74.39625731963883L1463.1998031285084,74.83306587453075L1463.805049413158,73.0289117564351L1464.353079712999,72.15258036074573L1464.9304901507885,70.84346586476289L1465.4936931105685,69.50066798931681L1466.0341949913557,69.13843807250714L1466.609771583478,69.85194919773886L1467.1408146813512,70.82934303311538L1467.7210627540146,71.24201775461592L1468.2817755444155,71.63038682396638L1468.8352687739798,71.50076534158575L1469.413933948278,71.36172269202564L1469.9569259984448,70.80885155582138L1470.5453009029586,70.0626274719857L1471.1108589066478,69.06593371348384L1471.651302876519,68.66042446047152L1472.2342727622251,68.79657871362286L1472.786298915256,68.75856670110124L1473.3838430481046,68.87525089271742L1473.9699401232638,68.73917747417488L1474.5161558810764,68.93383554876806L1475.1265562372323,69.23752534015222L1475.6714207403427,68.98583668643181L1476.2758176648942,68.82232654595737L1476.8716630775461,69.15605945093051L1477.434885340965,69.1932410189334L1478.0632766882957,69.21097931662808L1478.6277536882233,69.34271540946202L1479.2455087306857,69.25831318190228L1479.8932616275317,68.92936403659633L1480.5249925043402,68.48807263372271L1489.4420574080946,62.08594622610764L1490.3953676003327,60.06586916287L1491.3862812805626,59.26103444056599L1492.3304994590205,61.785192492545946L1493.3629352658781,61.632309004099625L1494.3567830991751,63.49340064259923L1495.364626070457,65.16169560643891L1496.4770947629484,65.42346266788627L1497.458298712963,64.50642177458695L1498.4947882839263,63.586611565593046L1499.5917368509836,63.17523896626551L1500.6454259639395,62.93896452810185L1501.7700945560257,62.15069493322403L1502.7808909840132,61.1955785420335L1503.9133003351778,60.930843905615575L1504.898461531105,60.38124206622905L1505.935568818504,59.85151050530811L1507.0447558924334,59.76534724658495L1508.0536412601996,59.6853190182527L1541.1835689175707,65.025608169171L1542.1342345113208,73.80054704905842L1543.103161347186,76.65529648267665L1544.039503641095,74.46121055697796L1545.009028889757,73.42831244292427L1545.876013210178,72.3798781077088L1546.8699961689454,71.64405345493014L1547.832823055013,71.57920279778449L1548.8130618230975,70.42817972242614L1549.8114653151042,68.9753291760934L1550.7848705951244,67.72143979996758L1551.8922817343025,69.99159339081768L1552.9023253203848,71.20441644132381L1553.8862703870802,71.74220680042248L1554.9115638476562,71.75342158052479L1555.8963389708115,71.66636548052782L1557.0075529267938,71.31694359149867L1558.0469187399087,71.43506535364321L1559.1263396031177,72.24723115249361L1560.1534283020833,72.63200937122429L1561.6335540953414,72.67465066227186L1562.8569414952258,72.20517886070132L1564.063689158637,71.85914035339454L1565.4099442182073,71.1540885668951L1566.7658317934388,70.3734287786325L1568.131911689851,69.87859260314423L1569.3711280733867,69.64967198203902" style="fill: none;" fill="none"></path></g></g></g></g><g opacity="0.2"><g><g><g><path stroke="rgb(255, 112, 67)" stroke-width="2px" d="M128.96303452115885,629.9673857688904L138.67096949833623,337.03701453738745L140.43439549168113,325.4814837773641L142.26312569440827,348.73795731862384L144.0679772961878,296.36253367529974L145.8773459493996,311.90527555677625L147.65440031159577,308.716239505344L149.44851909031394,298.97676796383325L151.2852216957827,314.13698365953235L153.02380390624998,300.14035341474744L154.8411256585648,297.3805624643961L156.62787044733795,293.5077138476902L158.91710825249564,304.69040934244794L160.7128871441334,304.00490930345325L162.5171982440321,332.05062611897785L164.2692736978805,337.6468675401476L166.08989637239583,333.23311127556696L167.9140902200521,330.78993860880536L169.7140386976273,320.9809431499905L171.520473197772,325.3474983639187L173.35146192621528,319.0003793504503L175.10041019061055,324.41389147440594L176.8771363909505,321.9106929567125L179.14645284107348,312.3734771940443L180.93198150061485,311.27271397908527L182.76210156532116,308.0290519926283L184.53075884472653,307.0170498953925L186.32841018930844,305.096994082133L188.1069123243996,299.4180664486355L189.89830929007522,299.5124203364054L191.69121193956164,301.90164205763074L193.4606220608724,300.98346349928113L195.22256167404512,293.17995823754205L218.03444355266203,130.9303242365519L219.8754894768157,215.78744739956323L221.68402807356767,230.27903779347736L223.41890398542387,231.39031155904132L225.2082933726852,225.03948010338675L227.02658030692996,225.51317808363171L228.84625710315393,229.4095066918267L230.65554854181136,221.07194010416666L232.42472701945889,212.84873602125379L234.24106428620516,225.07028855217825L235.99271506000434,222.64871554904514L238.28840028045425,223.8663001590305L240.07445013823786,216.3956611421373L241.84192989568868,222.8660621643066L243.61900356152344,224.47923882802326L245.43167313693573,225.6525634129842L247.2261972920645,219.37202729119193L249.0564910895182,219.31619601779514L250.82897048936633,213.34104442596433L252.64482516514758,211.72969987657333L254.43267026132088,213.75380049811469L256.25275243395544,213.258599281311L258.49846053407117,212.16911803351508L260.32174711071326,210.21020211113822L262.0987628656322,206.9724221759372L263.8708754963469,206.38633844587537L265.6812672424045,205.00762420230438L267.4650006635561,203.26807986365424L269.25630111103874,199.48789766099716L270.9921035975477,200.26466592152912L272.7611276460865,199.82061926523843L274.57470449251304,200.63258340623642L276.8396969275897,198.86435201432968L278.62063132114434,200.1892117394341L280.40920995558446,197.3521344926622L282.16531986990015,195.8814288245307L283.9845526824363,194.09130848778616L285.77220474222366,194.57479381561276L287.5820173791232,193.08967230055066L289.4168475316478,192.8019339243571L291.1942686629774,194.1374006271362L292.970145503219,193.1669103834364L294.79001533582897,192.70835145314533L297.0274807822627,193.43589369455972L298.8515588080874,191.60262224409314L300.595140660952,190.69919702741834L302.4074627708695,189.85869047376843L304.2139165746528,188.58242999182806L306.02749342107927,187.9183367623223L307.7980810643446,187.18303214179144L309.5594994792752,187.25424353281656L311.33574308865013,186.2372754414876L313.1693185046658,185.86829725901285L315.3874224015842,185.16568141513397L317.21121087282984,183.80196158091226L318.94168555508537,183.0444305207994L320.7390280414496,183.2049815919664L322.51561911631944,182.67497020297577L324.274624576425,181.8668631447686L326.08032553830293,182.01796436309812L327.8288105153718,183.2823161019219L329.55254822775606,182.89627032809784L331.39571755215565,182.10417016347247L333.2093909167752,181.0889859729343L335.0535447267433,179.74681758880615L336.81587041268807,178.86889733208548L338.59246148755784,178.7834147347344L340.3757895322989,177.46790843539767L342.17898102115885,176.07072840796576L343.957772710829,174.60614585876465L345.76401417458766,173.95212925804984L347.56073894451674,173.99098936716715L349.3276395928096,173.51719495985242L351.0945016338252,173.13920084635416L352.8938903058811,172.09320820702445L355.1445594411169,171.38311926523843L356.94234591116896,170.68653011322021L358.75806546148,170.73228475782605L360.52400092784285,169.33148871527777L362.3299721406612,167.8962682088216L364.10548221176936,167.20874320136176L365.93193458514173,166.71363841162787L367.7326745118996,166.07283231947156L369.5143810509982,166.1533489227295L371.28384908322477,165.7956527074178L373.5722761355613,165.44330819447833L375.387435880353,164.3740284177992L377.1865349978299,163.43960189819336L378.95447804260704,162.91156726413303L380.78772529676644,161.72291077507865L382.5616524695095,161.11966302659775L384.35787534483507,160.53637568155924L386.1353350834418,159.99146631028916L387.90179174804683,159.47341187795L389.69554375763164,159.639845000373L391.5114177370515,159.50132751464844L393.7134417030165,159.14927228291828L395.55313637246815,158.80700439876978L397.33685048998115,158.70508098602292L399.1339227254051,158.75893550448947L400.9194127776692,158.36527199215357L402.7271599252387,157.8045967949761L404.4731547329282,157.911534415351L406.26146311642793,157.45644685957166L408.08347565292246,156.9949469036526L409.8290650842014,156.81650861104328L412.1143842507234,156.69674619038898L413.87008878862844,156.55041811201306L415.6723150955584,156.06751134660507L417.4817995706018,155.54559983147513L419.2499742590422,155.12561172909204L421.03905478808593,154.37444485558402L422.82101227448635,153.8440959718492L424.59393565802225,153.37116940816242L426.3800434267216,152.92326566908093L428.2037739870515,152.58769946628146L429.9935687507234,152.07282712724472L432.23987526363567,151.43886735704208L434.05466823929396,151.24610964457193L435.8796149288556,150.78084903293185L437.64601368254483,150.87713146209714L439.48545740469467,150.24379846784802L441.25365139677365,150.25401973724362L443.0632903009259,149.74093129899765L444.83744911733214,149.50709565480548L446.6651176199363,149.3089380264282L448.4233702381366,148.84478632609049L450.2874840104167,148.680667453342L452.0782439560185,147.97004816267224L453.8904309404658,147.77121554480658L455.72846549699796,147.36438973744708L457.50262431340417,147.01754156748453L459.263212671875,146.75284926096597L461.0490308859953,146.31116506788464L462.8240969734158,145.90053039126926L464.6458006516927,145.45209630330402L466.4306150766059,145.1397690243191L468.233362581778,144.69008138444687L470.50065214984807,144.4584635628594L472.32175741532836,144.16426457299124L474.1140809556568,144.01200622982446L475.9242410580512,143.66019206576877L477.6765867628399,143.28427113427054L479.4894493746383,142.81549093458386L481.2520260078848,142.72547626495358L483.030624661169,142.4576982922024L484.8399354034649,141.97271834479437L486.5616655374349,141.53585550520154L488.77585079571753,141.02956517537433L490.61541033969905,140.64530330234103L492.4269216967954,140.11746152242023L494.21631108405666,139.5890893936157L496.00442643117043,139.6180175145467L497.7995296954572,139.26398552788626L499.59422758333335,138.9213319354587L501.38350114876295,138.69564437866208L503.161964676577,138.37637435065375L504.9424550864439,138.3440712822808L506.820062102105,137.87066258324515L509.05685192118773,137.5215965906779L510.84056603870073,137.02499718136255L512.6327351499203,136.81893253326413L514.4485512184244,136.55173312293158L516.2893268916376,136.24355220794675L518.0698366051432,136.15136792924667L519.9310162243561,135.64387226104733L521.6367436419271,135.39697074890134L523.4445680040509,135.22682518429224L525.271271324725,134.9897592332628L527.5321327811415,134.84733645121256L529.3268306690176,134.4073397318522L531.129423745081,133.7867833243476L532.8727546506437,133.59879875183103L534.6855400478877,133.21337975396048L536.4970321013454,132.77015272776285L538.3093349076244,132.47378412882486L540.1072178958694,132.3021439446343L541.9163162981409,132.0186965730455L543.7100103968099,131.7345259984334L545.5295520675636,131.7939250734117L547.8032890509259,131.60806189643012L549.6042799249855,131.5332344902886L551.3932639358362,131.2761599222819L553.2544628586878,131.16999371846515L555.0507822522063,130.8995157877604L556.8421020033276,130.53188758426242L558.6148709577545,130.60184542338052L560.4350882558593,130.35720994737412L562.2253656104963,130.0847070482042L564.0370313967014,129.7562282350328L566.3076025833333,129.60483773549396L568.1126858287761,129.2991157107883L569.9198345635489,128.8989915847778L571.6912136559968,128.5230706532796L573.5129366379123,128.36044640011255L575.3290229573568,128.21913252936469L577.1134899167752,128.14242479536267L578.9086510919776,128.00872866312662L580.6949712007016,127.9294656117757L582.4876229028863,127.82122622595892L584.302300056713,127.49539915720621L586.5676206536458,127.30341286129419L588.3593650848162,127.05289533403183L590.145839622649,126.77889781528049L591.9424099634693,126.46902942657468L593.7575890118995,126.21793333689371L595.535164572338,126.07174989912244L597.3025671152343,125.86163531409369L599.1478791435185,125.85777823130289L600.90404696875,125.98718335893417L602.6951736834852,125.74587461683484L765.370835496781,83.22028329637311L767.2547161949869,77.19445927937824L768.9749599487847,74.17542415195038L770.7735764752965,91.93690469529889L772.5522330394965,91.28833622402612L774.2977645598596,93.10150263044568L776.1340231816406,91.19142701890729L777.8680883406756,89.12451277838812L779.6467062975984,88.63244544135199L781.4769421841362,86.70371119181311L783.2021276694155,89.5727540122138L785.5752204806496,89.3238275316026L787.3578149871238,91.36509217156299L789.1319544998914,91.7572128507826L790.9440063588686,90.48210949367945L792.6749057211732,91.28269524044458L794.4200125614873,91.4414624108208L796.238202977539,91.69945303599036L797.998636906901,91.95021163092719L799.7912886090857,94.08385340372718L801.5673777893518,92.81357140011255L803.329491135272,91.76960372924799L805.6896891159216,91.11717817518445L807.4216694819878,90.45255459679493L809.2639315353732,90.3191959593031L811.0167791347656,91.76656627655024L812.79757840285,90.82293097178137L814.614070098705,90.7996920479668L816.4064901572266,91.42126093970404L818.1657851719111,92.26466030544702L819.9094249356915,92.29416698879663L821.7013624032479,92.4120490815904L824.0487041605902,92.8349782096015L825.8494247837094,92.22522163391108L827.6535814544994,91.40486833784314L829.4517539973234,91.34513176812061L831.2503512201968,91.57197644975446L833.0397792147352,91.68315686119922L834.8308673221932,91.5324413511488L836.6158747834924,91.27792210049097L838.3899563853444,91.26215627458356L840.1973946746962,90.93396674262152L841.9546821109664,90.9994407229953L844.2449623126084,90.91048675113251L846.0281359282408,90.55399587419294L847.7975074422742,90.41697300804981L849.5526328710214,90.67872428894037L851.3414817564019,90.49112542470294L853.1132469216218,91.12195131513806L854.8999144958404,91.53456274668372L856.6732046485098,91.76405917273627L858.5025718713107,91.51706123352045L860.2695304305195,91.3333194520738L862.5606792958984,91.67322487301294L864.3446829679905,91.02677779727509L866.1133981583116,91.23101033104786L867.8961277902561,91.17749330732556L869.6713869140624,91.54083050621875L871.442013164605,91.1205049090915L873.2342015794633,90.92022588517926L874.9956972089482,91.32223033905024L876.8208176312572,91.44011243184406L878.6011922192924,91.37926695081921L880.3338096054325,90.87813546922467L882.6475630316116,91.14615450965033L884.4023602985025,90.53996573554144L886.2690221510778,89.91685401068793L888.0343012937282,89.61735153198237L889.8184014840133,89.448989868164L891.5876378725766,89.39229075113929L893.3686494806857,89.5750200483534L895.1342953924697,89.21148999532062L896.9031264046224,88.8968484666612L898.6773238283057,88.59021038479273L900.9715805794993,88.23699802822534L902.7808913217955,88.793816142612L904.5854147617187,88.6907838185628L906.3946289858218,88.42821290757917L908.1775516541521,88.29437213473847L909.9647211229744,88.25729592641193L911.7195569971425,87.78514077928327L913.5085796152704,87.57767793867322L915.3111147804179,87.00480471716986L917.0817796382378,87.26867739359534L918.8496068611834,87.6993689007229L921.1185372385344,87.56369601355658L922.8693579558737,87.61118634541828L924.6669706931785,87.62989319695362L926.4614562410301,87.32740147908527L928.230132824074,87.13165452745221L929.996010379521,86.87144607967798L931.8204165672018,86.87727991739905L933.5638053836806,86.3733520507812L935.3334857559316,86.44933658175995L937.1277975710359,86.51712481180823L938.8516511052517,86.00789345635303L941.1536293118851,86.22003300984699L942.9478639124349,85.87410089704724L944.7199765431495,86.27403216891815L946.5044628062066,85.9672012329101L948.2994502486617,85.95326752132837L950.1037227412831,85.67753431532117L951.8634424360171,85.30219194624158L953.6638155936414,85.6540061102973L955.4474911038773,85.17322074042426L957.1759389040799,85.49278004964191L959.545557060366,85.35233402252192L961.2933278028066,85.29814200931122L963.0741270708911,85.54465781317816L964.8764885032913,85.34452342987055L966.6375015418113,85.59769270155164L968.4452293857422,85.27461380428736L970.2314143689958,85.24023755391437L972.0010368303313,84.8111853069729L973.7804269327979,84.80535146925183L975.5455902536169,84.64118438296845L977.3492643334419,84.5431662665473L979.1905998121744,84.94425466325544L980.9909729697988,84.72469022538922L982.7317944023437,84.51110426584876L984.5161841472078,84.22866937849255L986.2803050715422,84.43184121449787L988.0414146282551,84.32673570844861L989.8302828172742,84.19810199737543L991.6311964767795,83.95852894253198L993.3948348101491,83.75747850206159L995.1860194358,83.67300838894312L996.906243885959,83.51544655693897L999.2125461076389,83.52725887298578L1001.0021671385632,83.48198636372882L1002.7672146375505,83.58164374033606L1004.5676650097294,83.46255630917017L1006.3619189139177,83.19583903418646L1008.1724650890842,83.07925870683454L1009.9135953798466,83.0345165464613L1011.7038534308449,82.87439939710828L1013.4889767139756,82.52827443016895L1015.2462641502459,82.70328956180145L1017.6095314094329,82.73313373989527L1019.3785747616101,82.68053277333576L1021.1603585152633,82.64495118459064L1022.9003498913482,82.63434420691596L1024.7076916625072,82.76008510589594L1026.4958842241751,82.67503643035883L1028.2707379715712,82.56433815426294L1030.0661307904368,82.6925379435221L1031.8353864826388,82.37360541025794L1033.5956273756146,82.35055934058295L1035.380055727756,82.28677283393012L1037.6977470962095,82.44443109300397L1039.4116785601852,82.38917838202582L1041.2565852120586,82.42620637681745L1043.0391990221715,82.40190675523542L1044.864782731807,82.35200574662946L1046.5923039573568,82.39472293853754L1048.352815101273,82.35706816779242L1050.1715846264829,82.37182150946722L1051.931149892108,82.61799981858991L1053.7455374913557,82.57697010040278L1056.0688848259188,82.4707074695163L1057.882712619647,82.22293811374237L1059.631043167607,82.22269704606794L1061.4147765887587,82.09869183434375L1063.2082969546802,82.053756819831L1064.9994815803313,81.99686484866669L1066.7920560679615,81.81977653503412L1068.5893985543257,81.66221470303003L1070.3559517371236,81.51082420349115L1072.1259602712312,81.28200276692706L1073.9167395204718,81.2076574961344L1076.2011514159794,81.25654602050776L1078.0073156651838,81.39988485972083L1079.785566852973,81.34289646148676L1081.5805929027053,81.08100053999158L1083.3524931933955,80.98438061608203L1085.08904852181,80.7435057957967L1086.8626668363352,80.46555476718476L1088.622830514757,80.26334720187714L1090.4014098644025,80.03023476070825L1092.213982921622,79.78526178995764L1094.4673545662615,79.84364838070337L1096.3231484703051,79.9154383341471L1098.0956278701533,80.09315342373316L1099.8770255510344,79.88453345828583L1101.6227887150608,79.87985674540198L1103.3767752291303,79.8233986960517L1105.1380199113137,79.74239995744489L1106.9176995683592,79.85039827558728L1108.7683587045356,79.87734964158795L1110.5131952939091,79.89750289916987L1112.2546923538048,79.91206338670514L1114.5831937598741,79.94610214233393L1116.3503453554688,79.9325059254964L1118.186546066334,79.95208062065967L1119.9452040609447,80.08278751373285L1121.6957545273438,80.04720592498774L1123.472905407733,80.03925069173175L1125.2582603345268,79.91370264689124L1127.0820295021338,79.70059882269965L1128.8221946109663,79.65007103814014L1130.605773603009,79.59395048353406L1132.9225383968098,79.49231635199652L1134.7307102244285,79.53315321604407L1136.5221071901042,79.44299390580915L1138.2645501282914,79.3295474582248L1140.0199458079787,79.32843854692243L1141.8191414436487,79.2386167314317L1143.6436055422453,79.13495763142902L1145.4031128969543,79.00540786319306L1147.1838542541232,78.80662345886225L1148.9508128133318,78.7085571289062L1150.7334845343605,78.56777360704206L1153.0590131800852,78.73618348439533L1154.8664321657986,78.7326638963487L1156.5993584101561,78.71723556518549L1158.3979942403066,78.78131135304767L1160.1603006226128,78.62201383378766L1161.9205029083114,78.57582526736786L1163.6980977723886,78.60909260643848L1165.4476251459419,78.70976246727832L1167.237361998698,78.5690271589491L1168.9874105704932,78.41305637359613L1170.7880153717808,78.31889533996576L1173.0962093500434,78.40490828620062L1174.8560641702472,78.5101584328545L1176.6812811107493,78.47144296434186L1178.4312910752676,78.51131555769177L1180.217398843967,78.54111152225067L1182.0284662173756,78.59564103020557L1183.7691525244502,78.45018079545758L1185.567286459997,78.29160647922089L1187.3723310981625,78.28562800089514L1189.1239625683231,78.32005246480304L1191.4616138990884,78.37221950954859L1193.23639043193,78.40606541103784L1195.0753515631147,78.37588373819983L1196.8523480143951,78.27111572689478L1198.6083228032405,78.34931808047821L1200.440759304579,78.34902879926892L1202.2087409566334,78.26504082149927L1203.994539867115,78.26817470126679L1205.7947585956306,78.29126898447669L1207.5706354358724,78.22849496205646L1209.357978637442,78.32829697926837L1211.1986577924624,78.2963796191745L1212.9856728321759,78.26344977484808L1214.7928794778645,78.20342392391626L1216.5789100320094,78.16523880428736L1218.3523160065104,78.16099601321747L1220.1152401052516,78.0728616714477L1221.880866713397,78.13221253289112L1223.713110178349,78.08472220102942L1225.5065340260778,78.21108987596295L1227.2899392853733,78.24970891740583L1229.5875741733216,78.16065851847327L1231.3984678139827,78.18756167093909L1233.1843632426578,78.23635376824268L1234.9686757729671,78.36908562978107L1236.7683539996021,78.32820055219861L1238.5308727219328,78.35061984592011L1240.328408244683,78.18992413414844L1242.1289165277776,78.08857928382025L1243.9118198924696,78.00401274363196L1245.710880402669,77.96105448404944L1247.4770668163337,77.95960807800287L1249.8182507129627,77.92388184865314L1251.5981620136718,77.83584393395313L1253.3465697761862,77.93174065483936L1255.18278979069,77.91235881381562L1256.9356373900825,77.89379660288489L1258.7289068087023,77.81781207190619L1260.549317143193,77.76901997460254L1262.3481460097294,77.77258777618403L1264.1085799390912,77.67948744032117L1265.8816770553747,77.60981888241236L1461.4406818465711,61.973012394375246L1462.085693626736,76.99123922983802L1462.6636638700447,75.52877807617182L1463.1998031285084,75.48827870686847L1463.805049413158,70.32268057929144L1464.353079712999,70.83808326721186L1464.9304901507885,68.87979412078852L1465.4936931105685,67.4864711761474L1466.0341949913557,68.59509319729273L1466.609771583478,70.92221588558618L1467.1408146813512,72.29543378618024L1467.7210627540146,71.86102983686658L1468.2817755444155,72.21294042799207L1468.8352687739798,71.30633311801483L1469.413933948278,71.15315871768524L1469.9569259984448,69.97954485151502L1470.5453009029586,68.94329134623206L1471.1108589066478,67.57089307573102L1471.651302876519,68.05216058095294L1472.2342727622251,69.00081009334986L1472.786298915256,68.70154868231879L1473.3838430481046,69.05027718014185L1473.9699401232638,68.5350673463609L1474.5161558810764,69.22582266065808L1475.1265562372323,69.69306002722846L1475.6714207403427,68.6083037058512L1476.2758176648942,68.57706133524573L1476.8716630775461,69.65665880839026L1477.434885340965,69.24901337093775L1478.0632766882957,69.23758676316999L1478.6277536882233,69.54031954871283L1479.2455087306857,69.13170984056256L1479.8932616275317,68.43594031863739L1480.5249925043402,67.82613552941211L1489.4420574080946,52.482756614685L1490.3953676003327,57.03575356801349L1491.3862812805626,58.05378235710987L1492.3304994590205,65.57142957051593L1493.3629352658781,61.40298377143006L1494.3567830991751,66.28503810034852L1495.364626070457,67.66413805219861L1496.4770947629484,65.8161132600572L1497.458298712963,63.130860434638066L1498.4947882839263,62.2068962521023L1499.5917368509836,62.55818006727429L1500.6454259639395,62.58455287085633L1501.7700945560257,60.968290540907105L1502.7808909840132,59.76290395524762L1503.9133003351778,60.53374195098871L1504.898461531105,59.55683930714923L1505.935568818504,59.05691316392682L1507.0447558924334,59.636102358500125L1508.0536412601996,59.56527667575409L1541.1835689175707,73.03604189554846L1542.1342345113208,86.96295536888965L1543.103161347186,80.93742063310407L1544.039503641095,71.17008166842987L1545.009028889757,71.87896527184375L1545.876013210178,70.8072266048855L1546.8699961689454,70.54031647576221L1547.832823055013,71.48192681206592L1548.8130618230975,68.70164510938855L1549.8114653151042,66.79605335659448L1550.7848705951244,65.84060573577875L1551.8922817343025,73.39682377709278L1552.9023253203848,73.02365101708301L1553.8862703870802,72.54889233907062L1554.9115638476562,71.77024375067816L1555.8963389708115,71.53578133053247L1557.0075529267938,70.7928107579549L1558.0469187399087,71.61224799686005L1559.1263396031177,73.46547985076899L1560.1534283020833,73.20917669932044L1561.6335540953414,72.73861259884302L1562.8569414952258,71.50097115834552L1564.063689158637,71.34008259243433L1565.4099442182073,70.09651088714594L1566.7658317934388,69.20243909623883L1568.131911689851,69.13633833991156L1569.3711280733867,69.3062910503811" style="fill: none;" fill="none"></path></g></g></g></g></g></g><g transform="translate(58, 364)" clip-path="url(#clip_1)"><clipPath id="clip_1"><rect width="1667" height="35"></rect></clipPath><g><g visibility="inherit"><g><g transform="translate(104.2396484375,0)" style="visibility: inherit;"><text transform="translate(0,15)" style="text-anchor: middle; font-family: &quot;Helvetica Neue&quot;, sans-serif; font-size: 12px; font-weight: 200;" fill="rgb(50, 49, 63)" stroke="none" stroke-width="1px">10 PM</text></g><g transform="translate(312.71894531249995,0)" style="visibility: inherit;"><text transform="translate(0,15)" style="text-anchor: middle; font-family: &quot;Helvetica Neue&quot;, sans-serif; font-size: 12px; font-weight: 200;" fill="rgb(50, 49, 63)" stroke="none" stroke-width="1px">01 AM</text></g><g transform="translate(521.1982421875,0)" style="visibility: inherit;"><text transform="translate(0,15)" style="text-anchor: middle; font-family: &quot;Helvetica Neue&quot;, sans-serif; font-size: 12px; font-weight: 200;" fill="rgb(50, 49, 63)" stroke="none" stroke-width="1px">04 AM</text></g><g transform="translate(729.6775390624999,0)" style="visibility: inherit;"><text transform="translate(0,15)" style="text-anchor: middle; font-family: &quot;Helvetica Neue&quot;, sans-serif; font-size: 12px; font-weight: 200;" fill="rgb(50, 49, 63)" stroke="none" stroke-width="1px">07 AM</text></g><g transform="translate(938.1568359375,0)" style="visibility: inherit;"><text transform="translate(0,15)" style="text-anchor: middle; font-family: &quot;Helvetica Neue&quot;, sans-serif; font-size: 12px; font-weight: 200;" fill="rgb(50, 49, 63)" stroke="none" stroke-width="1px">10 AM</text></g><g transform="translate(1146.6361328125,0)" style="visibility: inherit;"><text transform="translate(0,15)" style="text-anchor: middle; font-family: &quot;Helvetica Neue&quot;, sans-serif; font-size: 12px; font-weight: 200;" fill="rgb(50, 49, 63)" stroke="none" stroke-width="1px">01 PM</text></g><g transform="translate(1355.1154296875,0)" style="visibility: inherit;"><text transform="translate(0,15)" style="text-anchor: middle; font-family: &quot;Helvetica Neue&quot;, sans-serif; font-size: 12px; font-weight: 200;" fill="rgb(50, 49, 63)" stroke="none" stroke-width="1px">04 PM</text></g><g transform="translate(1563.5947265625,0)" style="visibility: inherit;"><text transform="translate(0,15)" style="text-anchor: middle; font-family: &quot;Helvetica Neue&quot;, sans-serif; font-size: 12px; font-weight: 200;" fill="rgb(50, 49, 63)" stroke="none" stroke-width="1px">07 PM</text></g></g><g><line x1="0" y1="0" x2="0" y2="18" fill="rgb(0, 0, 0)" stroke="rgb(204, 204, 204)" stroke-width="1px"></line><line x1="208.479296875" y1="0" x2="208.479296875" y2="18" fill="rgb(0, 0, 0)" stroke="rgb(204, 204, 204)" stroke-width="1px"></line><line x1="416.95859375" y1="0" x2="416.95859375" y2="18" fill="rgb(0, 0, 0)" stroke="rgb(204, 204, 204)" stroke-width="1px"></line><line x1="625.4378906249999" y1="0" x2="625.4378906249999" y2="18" fill="rgb(0, 0, 0)" stroke="rgb(204, 204, 204)" stroke-width="1px"></line><line x1="833.9171875" y1="0" x2="833.9171875" y2="18" fill="rgb(0, 0, 0)" stroke="rgb(204, 204, 204)" stroke-width="1px"></line><line x1="1042.396484375" y1="0" x2="1042.396484375" y2="18" fill="rgb(0, 0, 0)" stroke="rgb(204, 204, 204)" stroke-width="1px"></line><line x1="1250.8757812499998" y1="0" x2="1250.8757812499998" y2="18" fill="rgb(0, 0, 0)" stroke="rgb(204, 204, 204)" stroke-width="1px"></line><line x1="1459.3550781249999" y1="0" x2="1459.3550781249999" y2="18" fill="rgb(0, 0, 0)" stroke="rgb(204, 204, 204)" stroke-width="1px"></line><line x1="1667.834375" y1="0" x2="1667.834375" y2="18" fill="rgb(0, 0, 0)" stroke="rgb(204, 204, 204)" stroke-width="1px"></line></g><line x1="0" y1="0" x2="1667.834375" y2="0" style="visibility: inherit;" fill="rgb(0, 0, 0)" stroke="rgb(204, 204, 204)" stroke-width="1px"></line></g><g visibility="inherit"><g><g transform="translate(104.2396484375,0)" style="visibility: inherit;"><text transform="translate(0,33)" style="text-anchor: middle; font-family: &quot;Helvetica Neue&quot;, sans-serif; font-size: 12px; font-weight: 200;" fill="rgb(50, 49, 63)" stroke="none" stroke-width="1px">December 15, 2018</text></g><g transform="translate(312.71894531249995,0)" style="visibility: inherit;"><text transform="translate(0,33)" style="text-anchor: middle; font-family: &quot;Helvetica Neue&quot;, sans-serif; font-size: 12px; font-weight: 200;" fill="rgb(50, 49, 63)" stroke="none" stroke-width="1px">December 16, 2018</text></g><g transform="translate(521.1982421875,0)" style="visibility: inherit;"><text transform="translate(0,33)" style="text-anchor: middle; font-family: &quot;Helvetica Neue&quot;, sans-serif; font-size: 12px; font-weight: 200;" fill="rgb(50, 49, 63)" stroke="none" stroke-width="1px">December 16, 2018</text></g><g transform="translate(729.6775390624999,0)" style="visibility: inherit;"><text transform="translate(0,33)" style="text-anchor: middle; font-family: &quot;Helvetica Neue&quot;, sans-serif; font-size: 12px; font-weight: 200;" fill="rgb(50, 49, 63)" stroke="none" stroke-width="1px">December 16, 2018</text></g><g transform="translate(938.1568359375,0)" style="visibility: inherit;"><text transform="translate(0,33)" style="text-anchor: middle; font-family: &quot;Helvetica Neue&quot;, sans-serif; font-size: 12px; font-weight: 200;" fill="rgb(50, 49, 63)" stroke="none" stroke-width="1px">December 16, 2018</text></g><g transform="translate(1146.6361328125,0)" style="visibility: inherit;"><text transform="translate(0,33)" style="text-anchor: middle; font-family: &quot;Helvetica Neue&quot;, sans-serif; font-size: 12px; font-weight: 200;" fill="rgb(50, 49, 63)" stroke="none" stroke-width="1px">December 16, 2018</text></g><g transform="translate(1355.1154296875,0)" style="visibility: inherit;"><text transform="translate(0,33)" style="text-anchor: middle; font-family: &quot;Helvetica Neue&quot;, sans-serif; font-size: 12px; font-weight: 200;" fill="rgb(50, 49, 63)" stroke="none" stroke-width="1px">December 16, 2018</text></g><g transform="translate(1563.5947265625,0)" style="visibility: inherit;"><text transform="translate(0,33)" style="text-anchor: middle; font-family: &quot;Helvetica Neue&quot;, sans-serif; font-size: 12px; font-weight: 200;" fill="rgb(50, 49, 63)" stroke="none" stroke-width="1px">December 16, 2018</text></g></g><g><line x1="0" y1="18" x2="0" y2="36" fill="rgb(0, 0, 0)" stroke="rgb(204, 204, 204)" stroke-width="1px"></line><line x1="208.479296875" y1="18" x2="208.479296875" y2="36" fill="rgb(0, 0, 0)" stroke="rgb(204, 204, 204)" stroke-width="1px"></line><line x1="416.95859375" y1="18" x2="416.95859375" y2="36" fill="rgb(0, 0, 0)" stroke="rgb(204, 204, 204)" stroke-width="1px"></line><line x1="625.4378906249999" y1="18" x2="625.4378906249999" y2="36" fill="rgb(0, 0, 0)" stroke="rgb(204, 204, 204)" stroke-width="1px"></line><line x1="833.9171875" y1="18" x2="833.9171875" y2="36" fill="rgb(0, 0, 0)" stroke="rgb(204, 204, 204)" stroke-width="1px"></line><line x1="1042.396484375" y1="18" x2="1042.396484375" y2="36" fill="rgb(0, 0, 0)" stroke="rgb(204, 204, 204)" stroke-width="1px"></line><line x1="1250.8757812499998" y1="18" x2="1250.8757812499998" y2="36" fill="rgb(0, 0, 0)" stroke="rgb(204, 204, 204)" stroke-width="1px"></line><line x1="1459.3550781249999" y1="18" x2="1459.3550781249999" y2="36" fill="rgb(0, 0, 0)" stroke="rgb(204, 204, 204)" stroke-width="1px"></line><line x1="1667.834375" y1="18" x2="1667.834375" y2="36" fill="rgb(0, 0, 0)" stroke="rgb(204, 204, 204)" stroke-width="1px"></line></g><line x1="0" y1="18" x2="1667.834375" y2="18" style="visibility: inherit;" fill="rgb(0, 0, 0)" stroke="rgb(204, 204, 204)" stroke-width="1px"></line></g></g></g></g></g></svg>