<svg viewBox="0 0 1726.354248046875 400.0000305175781" xmlns="http://www.w3.org/2000/svg"><g><g><g><g><g><line x1="68.21875" y1="364" x2="63.21875" y2="364" style="visibility: inherit;" fill="rgb(0, 0, 0)" stroke="rgb(204, 204, 204)" stroke-width="1px"></line><line x1="68.21875" y1="330.9090909090909" x2="63.21875" y2="330.9090909090909" style="visibility: inherit;" fill="rgb(0, 0, 0)" stroke="rgb(204, 204, 204)" stroke-width="1px"></line><line x1="68.21875" y1="297.8181818181818" x2="63.21875" y2="297.8181818181818" style="visibility: inherit;" fill="rgb(0, 0, 0)" stroke="rgb(204, 204, 204)" stroke-width="1px"></line><line x1="68.21875" y1="264.72727272727275" x2="63.21875" y2="264.72727272727275" style="visibility: inherit;" fill="rgb(0, 0, 0)" stroke="rgb(204, 204, 204)" stroke-width="1px"></line><line x1="68.21875" y1="231.63636363636363" x2="63.21875" y2="231.63636363636363" style="visibility: inherit;" fill="rgb(0, 0, 0)" stroke="rgb(204, 204, 204)" stroke-width="1px"></line><line x1="68.21875" y1="198.54545454545456" x2="63.21875" y2="198.54545454545456" style="visibility: inherit;" fill="rgb(0, 0, 0)" stroke="rgb(204, 204, 204)" stroke-width="1px"></line><line x1="68.21875" y1="165.45454545454547" x2="63.21875" y2="165.45454545454547" style="visibility: inherit;" fill="rgb(0, 0, 0)" stroke="rgb(204, 204, 204)" stroke-width="1px"></line><line x1="68.21875" y1="132.3636363636364" x2="63.21875" y2="132.3636363636364" style="visibility: inherit;" fill="rgb(0, 0, 0)" stroke="rgb(204, 204, 204)" stroke-width="1px"></line><line x1="68.21875" y1="99.27272727272731" x2="63.21875" y2="99.27272727272731" style="visibility: inherit;" fill="rgb(0, 0, 0)" stroke="rgb(204, 204, 204)" stroke-width="1px"></line><line x1="68.21875" y1="66.18181818181819" x2="63.21875" y2="66.18181818181819" style="visibility: inherit;" fill="rgb(0, 0, 0)" stroke="rgb(204, 204, 204)" stroke-width="1px"></line><line x1="68.21875" y1="33.09090909090912" x2="63.21875" y2="33.09090909090912" style="visibility: inherit;" fill="rgb(0, 0, 0)" stroke="rgb(204, 204, 204)" stroke-width="1px"></line><line x1="68.21875" y1="0" x2="63.21875" y2="0" style="visibility: inherit;" fill="rgb(0, 0, 0)" stroke="rgb(204, 204, 204)" stroke-width="1px"></line></g><g transform="translate(58.21875, 0)"><text x="0" y="364" dx="0em" dy="0.3em" style="text-anchor: end; visibility: hidden; font-family: &quot;Helvetica Neue&quot;, sans-serif; font-size: 12px; font-weight: 200;" fill="rgb(50, 49, 63)" stroke="none" stroke-width="1px">-0.100</text><text x="0" y="330.9090909090909" dx="0em" dy="0.3em" style="text-anchor: end; visibility: inherit; font-family: &quot;Helvetica Neue&quot;, sans-serif; font-size: 12px; font-weight: 200;" fill="rgb(50, 49, 63)" stroke="none" stroke-width="1px">0.00</text><text x="0" y="297.8181818181818" dx="0em" dy="0.3em" style="text-anchor: end; visibility: inherit; font-family: &quot;Helvetica Neue&quot;, sans-serif; font-size: 12px; font-weight: 200;" fill="rgb(50, 49, 63)" stroke="none" stroke-width="1px">0.100</text><text x="0" y="264.72727272727275" dx="0em" dy="0.3em" style="text-anchor: end; visibility: inherit; font-family: &quot;Helvetica Neue&quot;, sans-serif; font-size: 12px; font-weight: 200;" fill="rgb(50, 49, 63)" stroke="none" stroke-width="1px">0.200</text><text x="0" y="231.63636363636363" dx="0em" dy="0.3em" style="text-anchor: end; visibility: inherit; font-family: &quot;Helvetica Neue&quot;, sans-serif; font-size: 12px; font-weight: 200;" fill="rgb(50, 49, 63)" stroke="none" stroke-width="1px">0.300</text><text x="0" y="198.54545454545456" dx="0em" dy="0.3em" style="text-anchor: end; visibility: inherit; font-family: &quot;Helvetica Neue&quot;, sans-serif; font-size: 12px; font-weight: 200;" fill="rgb(50, 49, 63)" stroke="none" stroke-width="1px">0.400</text><text x="0" y="165.45454545454547" dx="0em" dy="0.3em" style="text-anchor: end; visibility: inherit; font-family: &quot;Helvetica Neue&quot;, sans-serif; font-size: 12px; font-weight: 200;" fill="rgb(50, 49, 63)" stroke="none" stroke-width="1px">0.500</text><text x="0" y="132.3636363636364" dx="0em" dy="0.3em" style="text-anchor: end; visibility: inherit; font-family: &quot;Helvetica Neue&quot;, sans-serif; font-size: 12px; font-weight: 200;" fill="rgb(50, 49, 63)" stroke="none" stroke-width="1px">0.600</text><text x="0" y="99.27272727272731" dx="0em" dy="0.3em" style="text-anchor: end; visibility: inherit; font-family: &quot;Helvetica Neue&quot;, sans-serif; font-size: 12px; font-weight: 200;" fill="rgb(50, 49, 63)" stroke="none" stroke-width="1px">0.700</text><text x="0" y="66.18181818181819" dx="0em" dy="0.3em" style="text-anchor: end; visibility: inherit; font-family: &quot;Helvetica Neue&quot;, sans-serif; font-size: 12px; font-weight: 200;" fill="rgb(50, 49, 63)" stroke="none" stroke-width="1px">0.800</text><text x="0" y="33.09090909090912" dx="0em" dy="0.3em" style="text-anchor: end; visibility: inherit; font-family: &quot;Helvetica Neue&quot;, sans-serif; font-size: 12px; font-weight: 200;" fill="rgb(50, 49, 63)" stroke="none" stroke-width="1px">0.900</text><text x="0" y="0" dx="0em" dy="0.3em" style="text-anchor: end; visibility: hidden; font-family: &quot;Helvetica Neue&quot;, sans-serif; font-size: 12px; font-weight: 200;" fill="rgb(50, 49, 63)" stroke="none" stroke-width="1px">1.00</text></g><line x1="68.21875" y1="0" x2="68.21875" y2="364" fill="rgb(0, 0, 0)" stroke="rgb(204, 204, 204)" stroke-width="1px"></line></g></g><g transform="translate(68, 0)" clip-path="url(#clip_0)"><clipPath id="clip_0"><rect width="1658" height="363"></rect></clipPath><g><g><g><line x1="0" y1="0" x2="0" y2="364" fill="rgb(0, 0, 0)" stroke="rgb(60, 60, 60)" stroke-width="1px" opacity="0.25"></line><line x1="207.26640625" y1="0" x2="207.26640625" y2="364" fill="rgb(0, 0, 0)" stroke="rgb(60, 60, 60)" stroke-width="1px" opacity="0.25"></line><line x1="414.5328125" y1="0" x2="414.5328125" y2="364" fill="rgb(0, 0, 0)" stroke="rgb(60, 60, 60)" stroke-width="1px" opacity="0.25"></line><line x1="621.7992187499999" y1="0" x2="621.7992187499999" y2="364" fill="rgb(0, 0, 0)" stroke="rgb(60, 60, 60)" stroke-width="1px" opacity="0.25"></line><line x1="829.065625" y1="0" x2="829.065625" y2="364" fill="rgb(0, 0, 0)" stroke="rgb(60, 60, 60)" stroke-width="1px" opacity="0.25"></line><line x1="1036.33203125" y1="0" x2="1036.33203125" y2="364" fill="rgb(0, 0, 0)" stroke="rgb(60, 60, 60)" stroke-width="1px" opacity="0.25"></line><line x1="1243.5984374999998" y1="0" x2="1243.5984374999998" y2="364" fill="rgb(0, 0, 0)" stroke="rgb(60, 60, 60)" stroke-width="1px" opacity="0.25"></line><line x1="1450.8648437499999" y1="0" x2="1450.8648437499999" y2="364" fill="rgb(0, 0, 0)" stroke="rgb(60, 60, 60)" stroke-width="1px" opacity="0.25"></line><line x1="1658.13125" y1="0" x2="1658.13125" y2="364" fill="rgb(0, 0, 0)" stroke="rgb(60, 60, 60)" stroke-width="1px" opacity="0.25"></line></g><g><line x1="0" y1="364" x2="1658.13125" y2="364" fill="rgb(0, 0, 0)" stroke="rgb(60, 60, 60)" stroke-width="1px" opacity="0.25"></line><line x1="0" y1="330.9090909090909" x2="1658.13125" y2="330.9090909090909" fill="rgb(0, 0, 0)" stroke="rgb(60, 60, 60)" stroke-width="1px" opacity="0.25"></line><line x1="0" y1="297.8181818181818" x2="1658.13125" y2="297.8181818181818" fill="rgb(0, 0, 0)" stroke="rgb(60, 60, 60)" stroke-width="1px" opacity="0.25"></line><line x1="0" y1="264.72727272727275" x2="1658.13125" y2="264.72727272727275" fill="rgb(0, 0, 0)" stroke="rgb(60, 60, 60)" stroke-width="1px" opacity="0.25"></line><line x1="0" y1="231.63636363636363" x2="1658.13125" y2="231.63636363636363" fill="rgb(0, 0, 0)" stroke="rgb(60, 60, 60)" stroke-width="1px" opacity="0.25"></line><line x1="0" y1="198.54545454545456" x2="1658.13125" y2="198.54545454545456" fill="rgb(0, 0, 0)" stroke="rgb(60, 60, 60)" stroke-width="1px" opacity="0.25"></line><line x1="0" y1="165.45454545454547" x2="1658.13125" y2="165.45454545454547" fill="rgb(0, 0, 0)" stroke="rgb(60, 60, 60)" stroke-width="1px" opacity="0.25"></line><line x1="0" y1="132.3636363636364" x2="1658.13125" y2="132.3636363636364" fill="rgb(0, 0, 0)" stroke="rgb(60, 60, 60)" stroke-width="1px" opacity="0.25"></line><line x1="0" y1="99.27272727272731" x2="1658.13125" y2="99.27272727272731" fill="rgb(0, 0, 0)" stroke="rgb(60, 60, 60)" stroke-width="1px" opacity="0.25"></line><line x1="0" y1="66.18181818181819" x2="1658.13125" y2="66.18181818181819" fill="rgb(0, 0, 0)" stroke="rgb(60, 60, 60)" stroke-width="1px" opacity="0.25"></line><line x1="0" y1="33.09090909090912" x2="1658.13125" y2="33.09090909090912" fill="rgb(0, 0, 0)" stroke="rgb(60, 60, 60)" stroke-width="1px" opacity="0.25"></line><line x1="0" y1="0" x2="1658.13125" y2="0" fill="rgb(0, 0, 0)" stroke="rgb(60, 60, 60)" stroke-width="1px" opacity="0.25"></line></g></g></g><g><g><line x1="0" y1="330.9090909090909" x2="1658.13125" y2="330.9090909090909" fill="rgb(0, 0, 0)" stroke="rgb(153, 153, 153)" stroke-width="1.5px"></line></g></g><g><g><line x1="-29649252.147656247" y1="0" x2="-29649252.147656247" y2="364" fill="rgb(0, 0, 0)" stroke="rgb(153, 153, 153)" stroke-width="1.5px"></line></g></g><g><g><g><g><g><path stroke="rgb(255, 112, 67)" stroke-width="2px" d="M117.49153402155672,0L119.29784156069154,109.27793891592461L121.54025297164351,168.44688839726635L123.76871228284142,206.8480224632484L126.00966515241609,232.1851121513304L128.21275352018228,250.14219690503847L137.8642096838831,278.4162599135182L139.61737641941548,293.41403728372507L141.43546743757233,303.51730815835595L143.22981877567997,308.7639442907549L145.02866088592302,311.1456595389107L146.79537670319732,311.9113452597245L148.57905765964986,312.3919902331342L150.40507469871238,312.6024578696196L152.13354218749998,312.7240380175404L153.94029112731482,312.32712717636946L155.71664099421295,312.01907159474246L157.99256047417535,311.4670620155637L159.77789188534433,310.804322149235L161.5717058661024,309.95399464765376L163.31358809729454,309.04453514195177L165.12361875520833,307.5300678624176L166.93719980989584,306.7541744726806L168.7266765491898,305.67337578793024L170.52260157667823,304.67991623899104L172.34293798090278,303.6819550818593L174.08171121600117,302.8640556400568L175.84810078059897,302.1936214877274L178.1042148039641,300.9144591909276L179.8793556168258,299.5501794499515L181.6988284110243,298.3150448293607L183.45719599804684,297.38505036799955L185.24438896860534,296.617339315849L187.012544135923,295.65504187791953L188.79351911429396,294.5988425370971L190.57599101671008,293.3924556105231L192.3351070657552,292.2849182343099L194.08679606857638,290.9905878832383L216.76596300578703,282.630284862071L218.59629809497974,272.2123543751695L220.39431497786455,264.7354178566842L222.11909773054106,258.8388601531035L223.8980768101852,254.61241587323872L225.70578531669557,251.65814808640027L227.5148755992477,249.89158342514565L229.3136409441551,245.88869221216697L231.07252669719327,242.40124171377744L232.8782968789786,240.37940994139854L234.61975690082465,237.4216532747996L236.90208628631362,233.70494669375654L238.67774526519096,230.20914125585824L240.43494218084493,227.58121618876288L242.20167718945314,226.13937532996L244.0038010177951,225.50309751090256L245.78788499225982,224.28020099630356L247.60753050846353,223.10855313763483L249.3696979796007,221.41279470426352L251.1749883780382,220.29418063517448L252.95243215096932,219.21745308741453L254.76192545153356,217.45578385133612L256.9945684735243,216.21601444164713L258.80724753551794,214.72144044446824L260.5739249701244,213.3094533395153L262.3357278059172,212.42194185053867L264.1355870568576,211.2992066163102L265.9089430756655,210.1044174877138L267.6898220973669,208.37807224729195L269.4155260340712,206.89877334070417L271.17425825643807,205.81064322382446L272.97728407747394,204.875207102674L275.2290992420428,203.60081859719511L276.99967251743345,202.7322612194632L278.7778455610532,201.83064442262085L280.52373878103293,200.967913429973L282.33238766290503,200.4714344399307L284.1096395224971,199.78122649966846L285.9089230334201,198.83622600933143L287.7330785130931,197.41975670364906L289.50015896571176,196.17955455909075L291.2657041116174,195.2987834036507L293.07498630750865,194.2450386308634L295.299434629919,193.43397258765611L297.11290053660304,192.73493217853974L298.84633858087386,191.91691918899306L300.6481169652054,191.25043617650954L302.44406118402776,190.5622132131273L304.24708700506363,189.99917799016L306.0073737254774,189.45304677247012L307.75854456228296,189.0035898571389L309.52445434353297,188.4297522953258L311.34736238650174,187.75571651654982L313.55256180099826,186.99586969146569L315.3657398376736,186.28891021383018L317.08614696621817,185.69056620061087L318.87303287543403,185.05892671696523L320.63928810069444,184.31557493484777L322.388060020761,183.7202119219544L324.18325577756076,183.06627048834167L325.92156842064526,182.53209208988278L327.6352777736545,181.74367926932163L329.46772390957756,180.94048413720165L331.270845687283,180.25386246981986L333.10427058123554,179.51036531403412L334.85634341073495,178.82773623977053L336.62259863599536,178.15607790906503L338.3955516367911,177.56363659140848L340.18825252018223,176.81925556844539L341.9566955575087,176.1827467136203L343.752428671658,175.60085078141262L345.53870045818866,174.8712308518848L347.2953216338252,174.25257266890122L349.05190442679395,173.7102626641459L350.8408246174045,173.01769202231569L353.07839981221065,172.42202869224073L354.8657271221065,171.8746518345544L356.6708831812066,171.33317405402968L358.42654479014755,170.8058352462939L360.2220092256221,170.22141818088514L361.98718973618344,169.63231212589116L363.8030161769386,169.1060253238801L365.593279760923,168.53457073091033L367.3646206896701,167.97711969337908L369.123794312717,167.34620157704708L371.3989077566551,166.8107011871368L373.20350726707176,166.3416702992544L374.9921395876736,165.85247027827978L376.7497970953414,165.2858477654731L378.57237888563367,164.70734349190883L380.3359857068142,164.24415500830338L382.12175851866317,163.72614114424206L383.8888773539496,163.21808774815193L385.6450571289062,162.71190809933057L387.4283734500145,162.20309730280792L389.23368303978583,161.72488114779804L391.42289607313364,161.18338136077026L393.2518877689525,160.66705096320732L395.0252245964265,160.1956207937114L396.81184182696757,159.67637786674092L398.5869442571614,159.2206438365218L400.3841742953559,158.7731534340653L402.12001125636573,158.34855779238944L403.89791562131074,157.8582045308636L405.70932805526616,157.3570276476619L407.44476199826386,156.95980941682757L409.7167856374421,156.54861191713093L411.4622758394097,156.1000645474066L413.2540171561053,155.6751897523087L415.0529744143518,155.2980882714125L416.81086221802656,154.90398642523323L418.5895342363281,154.49022486433958L420.36112465241604,154.0714524338903L422.1237335242332,153.6633538530788L423.89945007711225,153.2588430350029L425.7125705397859,152.82170012406348L427.4919526374421,152.32160155498457L429.7251905907841,151.8381907234182L431.52942546585643,151.40724586674025L433.3437549825665,151.0212085027657L435.0998771835214,150.67785516202872L436.92861939199935,150.34044374283047L438.68652638700803,150.02370188551325L440.48563717592594,149.67164614476343L442.2494742931134,149.27381054133357L444.0665097879051,148.94598163868736L445.81453324594906,148.56276103299487L447.66780197916665,148.2134922812516L449.4481436435185,147.85877234920304L451.2497876885127,147.5208999021643L453.0771289296151,147.14595681072217L454.8409660468026,146.74283054853046L456.59131165625,146.29637249016233L458.3667403391203,145.95836800051717L460.13147944900174,145.6283236519006L461.94258482161456,145.34956391687055L463.7170155551215,145.09909765090916L465.5092750378327,144.82124487802665L467.7633739711371,144.58480592353672L469.5738844123987,144.25376841892918L471.3557805747974,143.9344051990571L473.1554095297309,143.61313931860863L474.8975604395977,143.26070445228802L476.6998761812789,143.0087783509715L478.4521984981192,142.7600928453774L480.22044962210646,142.48834991124477L482.01923415834773,142.18211784164436L483.7309476126302,141.88949578252902L485.93225118634257,141.54140312331492L487.76110854282405,141.1981579972578L489.5620808911313,140.86517439346963L491.3410599707754,140.52123540459766L493.11877242238137,140.20734618577396L494.90343213686344,139.88455211856336L496.6876888333333,139.60543252832352L498.4665527649739,139.33671498075034L500.23466954962385,139.05546956795123L502.00480142433446,138.78244696363234L503.87148489995656,138.49655147105383L506.0952615256799,138.17131117951286L507.86859835315386,137.84279521795054L509.6503409848813,137.56419512435056L511.455593000651,137.32880678006023L513.2856594111689,137.1093889520971L515.0558104772135,136.84034283004286L516.9061621276765,136.56826509424928L518.6019659661458,136.34523980578388L520.3992727696759,136.09402905830834L522.2153486977719,135.87228933259576L524.4630569168836,135.65469385934531L526.2473136133535,135.40248067773433L528.0394195653935,135.13192683326525L529.7726081223235,134.8799857272563L531.574847098669,134.59415540105883L533.3758002556424,134.29985733198828L535.1775594486401,133.95355194538547L536.9649827152053,133.66179300819033L538.7635561467737,133.41846202081777L540.5468148938802,133.169466168734L542.3557708370948,132.90067704274318L544.6162796759259,132.65699786993306L546.4067927472511,132.4286134641695L548.185368808883,132.23670354547616L550.03573965068,132.0364458028228L551.8216084191985,131.7846234998988L553.6025066322338,131.55999220490864L555.3649619733795,131.349939827423L557.1745896132812,131.16424020676763L558.9544514942853,130.94569697273778L560.7555773732639,130.73470575008776L563.0129388333334,130.5058159212274L564.807520467448,130.32844287471357L566.6041555742911,130.1840548328271L568.3652291393952,129.9990164297755L570.176353703342,129.8181793128214L571.9818743977864,129.65486088331386L573.7559596872829,129.47000656794108L575.5406769757667,129.31727969482625L577.3166046333188,129.13620834035547L579.0988270483941,128.99789316508532L580.902946775463,128.82986327387363L583.1550881927083,128.64556667162728L584.9364086150897,128.46022792647716L586.712489803313,128.30109604266278L588.4986080591725,128.13722294500573L590.303226760923,127.96534539420071L592.0704607442129,127.78599063523535L593.8275808945311,127.61410212497668L595.6621572685185,127.41870146219748L597.4081080625,127.24379680019783L599.1888143621962,127.05543845137888L760.9180618883825,112.17683728264154L762.790982547526,99.39211954473922L764.5012182690972,92.13737258466489L766.2893708063513,89.25811499935742L768.0576795043402,86.87581976782513L769.7930558733361,84.82434075845566L771.6186315117187,83.79811454876238L773.342608228371,83.43889762038737L775.110878543692,82.9905486864514L776.930466485894,82.58718135351131L778.6456151889467,82.38987856904816L781.004901823423,82.87553973187192L782.7771255535301,82.9553245951268L784.5409434793836,83.04111239013275L786.3424531850404,82.80110795046483L788.0632825229311,82.71422517635688L789.798236682581,82.51889342379621L791.6058492324219,82.12104952196239L793.3560413111978,82.48472133249561L795.1382637262732,82.5347205447477L796.9040199768518,83.05973018798255L798.6558817016781,83.14437871712079L801.0023485251013,83.03060101428571L802.7242525776909,83.19329125043936L804.5557967209201,83.39197761683522L806.2984466054687,83.20197675204139L808.0688855415219,83.06129398635005L809.8748092539786,83.03544010335787L811.6568013730468,83.20837607262371L813.405861163122,83.34247273372318L815.1393567813947,83.4508831846897L816.9208691171151,83.6884804369646L819.2545545121527,83.66416823765377L821.0447989048032,83.77543402309209L822.83845935489,83.64772551631108L824.626170491464,83.64812547896503L826.4143038373843,83.69404558933661L828.1933212996961,83.80396390533758L829.9739892167245,83.89824604464633L831.7486118635705,83.86186927568025L833.5123722154225,83.77104964588028L835.3092951922744,83.67397041433145L837.0563590836226,83.59398733726636L839.3333148956162,83.57856529553715L841.1061143657408,83.67185173988338L842.865192032118,83.76649787434661L844.6101064940682,83.94087836660901L846.3885482163629,84.00500203300476L848.1500056081452,84.07019792709491L849.9262787097076,84.00286260835213L851.6892522168691,83.98281629492516L853.507976549045,83.94599973706033L855.2646552986835,83.88383120570609L857.542474720703,83.99710884582692L859.3160994181858,84.0646415080854L861.07452457921,84.09926765825816L862.8468826486545,83.99704623782151L864.611813671875,83.92757143443214L866.3721387749565,83.85712148087629L868.1539005980179,83.66797291945949L869.9051482001591,83.46092235003113L871.7196504388744,83.41068751188635L873.4896671655815,83.25882759543856L875.2122045321903,83.18940773626821L877.512497006221,83.14735345690212L879.2570852154946,83.06777809919902L881.1128872047888,83.04413526897099L882.8678963083767,83.04375617400581L884.6416169625289,83.02744205195984L886.4005602895687,83.03691181778481L888.1712103302951,82.9375845983003L889.9265840692275,82.81466723972079L891.6851243782552,82.6132570269047L893.4489998781104,82.38366220314788L895.7299091048899,82.17700641432367L897.5286936411313,82.02940759434944L899.3227187265624,81.90011487826496L901.1214073061343,81.80825138670355L902.8939572889177,81.6508381964963L904.670729365162,81.61239775432364L906.4153559571034,81.568315894249L908.1939704014032,81.50746861258813L909.9860187794415,81.46575318182397L911.7463822651908,81.36454303180841L913.5039246248552,81.25548594121085L915.7596548215422,81.2221934590358L917.5002896160299,81.1892160942869L919.2874442039207,81.16737051919313L921.0714897957175,81.12958485715353L922.829876574074,81.15425827457716L924.5854806090132,81.06117358310456L926.3992727683737,81.00830499450609L928.1325188993056,80.90517608974346L929.8919036270254,80.84219421863213L931.6757764968171,80.84326871152155L933.3896009978298,80.84969640161216L935.6781867581742,80.87261401753096L937.4619828626302,80.91107446201562L939.223785698423,80.99007141629517L940.9978901792534,80.98561198735035L942.7824347457321,80.97040782379116L944.5762103438223,80.88938842582547L946.3256923432436,80.81063105520673L948.1155912918837,80.67976384402829L949.8888897366897,80.52958330211675L951.6072817751736,80.50450802265192L953.9631139695457,80.4406032587205L955.7007165332755,80.37658800795003L957.4711554693286,80.30223435231642L959.2630311253616,80.25038749887432L961.013798944155,80.16609635139201L962.8110097910156,80.06610191303582L964.5868031092302,80.05690566020616L966.3461302629483,79.98702546926597L968.1151682316261,79.91512519158823L969.8700621872107,79.90707746550004L971.6632428539497,79.88448170393713L973.4938658131509,79.85400918574237L975.283764761791,79.85108650703978L977.0144584453124,79.83452433173079L978.7884669694735,79.83980584798422L980.5423245930266,79.82497883668805L982.2931883684895,79.81375523109L984.071649282118,79.81289873593852L985.8620855881076,79.8130238873373L987.6154634283131,79.74751366836762L989.3962273020109,79.7399785032556L991.1064438322481,79.6937220151724L993.3993284513889,79.65047316882027L995.1785378270398,79.57876483335446L996.9333166346208,79.5417910690079L998.7232923485966,79.4833151677775L1000.5071076443865,79.4156854909919L1002.3071204259983,79.33487918802217L1004.0381211708623,79.29705410388891L1005.8179638605324,79.31425619183113L1007.5927016553818,79.28515367542582L1009.3397655467303,79.230619463695L1011.6892837922453,79.17334685147364L1013.448035205946,79.1139657191938L1015.2194529000288,79.09301148662547L1016.9493213561921,79.04582776530515L1018.7461483763743,79.01334399361139L1020.5239375933158,79.00576685676032L1022.2884655985243,78.96378495633581L1024.073413183015,78.96669028116344L1025.8323757013889,78.94255595697268L1027.5823758668257,78.8920677413866L1029.3564227736545,78.88394427198489L1031.6606302798032,78.8964033944398L1033.3645904351852,78.92562229553619L1035.1987637911602,78.95217920992451L1036.9710067126011,78.95477223514996L1038.7859695433303,78.9173460924161L1040.5034403977863,78.89100877891269L1042.2537092418982,78.840050834392L1044.0618975317564,78.79768128382722L1045.8112260005064,78.77264613837718L1047.6150578575666,78.77058747911337L1049.9248884245515,78.74311973752907L1051.7281637329284,78.71773975064843L1053.4663228453412,78.71329668796898L1055.2396788641493,78.69390513680486L1057.0227648892505,78.65149331526493L1058.8035287629484,78.6090364872336L1060.5856744126881,78.56872226437719L1062.3725603219038,78.51737811459668L1064.12883605353,78.45274939170167L1065.8885470339264,78.38441813768992L1067.6689078896122,78.29910413384579L1069.9400295360967,78.22428671639699L1071.7356858849103,78.15761339086674L1073.503591564887,78.09845371983391L1075.2881745140335,78.02502526118616L1077.0497662451533,77.95939832709968L1078.7762186438802,77.8602356301709L1080.5395184037181,77.78163756271175L1082.2894418038195,77.72518490592978L1084.0576737364727,77.65319919761947L1085.8597016081453,77.5937080914033L1088.099963589699,77.54710226642425L1089.9449608580005,77.48527709097249L1091.7071283291377,77.4863434368678L1093.4781621965421,77.42555569452264L1095.213768861545,77.35197089979022L1096.9575510347945,77.29216727969788L1098.708549149595,77.21193829825529L1100.4778749882812,77.15047556495728L1102.3177673617622,77.09706155912266L1104.0524528427372,77.07248450030954L1105.7838182229455,77.06745811365454L1108.098772876085,77.02804807570118L1109.8556435390624,76.98276118864356L1111.6811616034433,76.92500151326828L1113.4295880794994,76.86383702995363L1115.1699541953124,76.81489385532348L1116.9367659692564,76.77111385683423L1118.7117340601128,76.69605726687604L1120.5248929054542,76.61264884557153L1122.2549340836226,76.52966518236514L1124.0281365717592,76.47070739993535L1126.3314228938802,76.39719494777376L1128.1290751414208,76.35339516649026L1129.9100501197915,76.35015260129802L1131.6423558753618,76.31124481312031L1133.3875390159865,76.29847994298694L1135.1762672932582,76.27203615110602L1136.9901170266203,76.27194096154318L1138.7393879213685,76.26166696145856L1140.5097692834202,76.2633447120092L1142.2664480330584,76.23999651434485L1144.0387485285012,76.20151440543867L1146.3507477162182,76.17225556084907L1148.1476515017362,76.12599040898596L1149.8704959296874,76.0751624563402L1151.6586676582754,75.99408618021948L1153.410721296441,75.9280993209635L1155.16068307921,75.88693719739211L1156.9279362538339,75.84074895922674L1158.6672852289496,75.7596478542348L1160.4466097526042,75.67433263219084L1162.1864768937355,75.58699386711749L1163.9766061383823,75.51496945259476L1166.2713715082466,75.46130123290828L1168.0209878470052,75.38830376109615L1169.83558604239,75.31424909334424L1171.5754148008534,75.27911799848704L1173.3511313537326,75.25962512856552L1175.15166230136,75.21270284480624L1176.882221645544,75.17269946428564L1178.6698943994502,75.12560490598281L1180.464437650897,75.09347443262556L1182.2058784814092,75.0727602618814L1184.5299298268228,75.04783481119273L1186.2943810666955,75.0417473247594L1188.1226434918258,75.02813041015332L1189.8893017350983,74.98325836541574L1191.6350606157407,74.91123882787099L1193.4568363700087,74.8365401606253L1195.2145322603442,74.76634047890468L1196.9899417518807,74.68278508138246L1198.7796871698495,74.6250779348436L1200.5452323157551,74.56252486107599L1202.3221771140045,74.50004645725619L1204.152147567853,74.44557334831944L1205.928766113426,74.39527225731047L1207.7254587942707,74.37955303334132L1209.5010985818142,74.371036679513L1211.264187236979,74.38048297170263L1213.0168549978298,74.37142896329169L1214.772209545428,74.35554298727237L1216.593793386357,74.321656553666L1218.3767834547887,74.25600747714918L1220.1498132209201,74.19885879481666L1222.434080931134,74.1724038465311L1224.2344391567563,74.13625489461634L1226.0099446049624,74.13048650929625L1227.7838763637876,74.11766854589757L1229.5730844244067,74.0938122079163L1231.3253491672453,74.05811789393039L1233.1124269898003,74.05539939097696L1234.9024602777777,74.03510176171682L1236.6749910692274,73.99416600212624L1238.4635850071613,73.94839760390022L1240.2194961034431,73.90750076770684L1242.5470594629628,73.85291949748932L1244.3166155976562,73.8255119184144L1246.054851475405,73.7933041748912L1247.8803887311196,73.7469422550235L1249.6230386156683,73.7137523620973L1251.4058751534287,73.67286816849577L1253.2156947066696,73.64049550173331L1255.0040583485966,73.60315487550287L1256.7542504273727,73.56941330618889L1258.5170320211948,73.54699875553064L1452.9383138485243,74.3482106176483L1453.579573079861,76.07483771563739L1454.1541808085215,74.62822893442507L1454.6872009165943,73.1019648264753L1455.2889260000723,71.48991964004244L1455.833767969835,70.78279315296083L1456.4078191498118,70.60414856536607L1456.9677455080293,69.18523194816851L1457.5051028575665,68.85673409521502L1458.0773308608218,68.91835534790386L1458.6052844567419,68.79805116567366L1459.1821567628037,68.87121668503875L1459.7396074389467,68.77858052552193L1460.2898805562065,68.8704139042469L1460.8651791728876,69.140881161984L1461.4050122044994,69.29338644158076L1461.9899640621384,69.64828015041542L1462.552231763093,69.24802173668377L1463.0895315386283,68.89011608710967L1463.669109822772,68.69981432972281L1464.2179243986545,68.53389401609093L1464.8119921399016,68.47605354846519L1465.3946794201388,68.5297194176755L1465.937717404514,68.51639659617308L1466.5445665741463,68.41548051918289L1467.0862611651473,68.60778894821743L1467.6871418299334,68.73683070854673L1468.279520733796,68.53733475255945L1468.8394662833477,68.38837506973084L1469.4642017761862,68.33658477861053L1470.0253947624421,68.35027555616449L1470.6395558302952,68.19169836689628L1471.2835402310473,68.09869799394255L1471.9115958246527,68.33091929130524L1480.7767830379773,66.52582475288375L1481.7245470632233,63.543799940120266L1482.7096958069299,61.81801653217633L1483.6484207139033,61.77130440117287L1484.6748500168546,61.32170235658509L1485.662915843316,62.33306767235729L1486.6648953868632,62.90359521919805L1487.770891960214,62.93227306016877L1488.746387462963,62.96608713599471L1489.7768469460357,62.791434234194696L1490.867413686921,62.921149620356346L1491.9149726485098,63.2553793071815L1493.0330981448928,63.18590729816498L1494.0380139625288,62.69382113934711L1495.1638351838108,62.41011176430783L1496.1432649100116,62.295806826873104L1497.1743385157697,62.123658561650075L1498.2770725623552,61.861790903231L1499.280088437934,61.95885381731256L1532.2172728384692,64.68833003150417L1533.1624076509693,68.21056186653101L1534.12569746535,68.15146746118842L1535.0565923080871,69.56904140422546L1536.0204770538194,68.945640152372L1536.8824174338106,68.94735202369077L1537.8706175996094,68.74361538721587L1538.827842952474,68.50730719467089L1539.8023788885273,67.56405290977574L1540.7949738697916,66.2688750067519L1541.76271607364,65.48871503326478L1542.8636845175058,65.21709884653586L1543.8678518731192,65.4119331728063L1544.8460725452835,65.23058747159928L1545.8654010546875,65.20101417410501L1546.8444469542098,65.61378375096183L1547.9491960908563,65.53074184842205L1548.982515082682,65.32804210709457L1550.0556560923753,65.21944780620453L1551.0767693958333,65.20329283269848L1552.5482841148726,65.31783560867666L1553.764554092882,65.37704655230652L1554.964281141059,65.36007646848225L1556.3027039594183,65.22277899515848L1557.6507032533998,65.07698481042519L1559.0088355716869,65.19103736896557L1560.2408424435039,65.29054559545716" style="fill: none;" fill="none"></path></g></g></g></g><g opacity="0.2"><g><g><g><path stroke="rgb(255, 112, 67)" stroke-width="2px" d="M117.49153402155672,0L119.29784156069154,174.84470226547938L121.54025297164351,225.24907989935443L123.76871228284142,252.00775612484327L126.00966515241609,265.2652164480903L128.21275352018228,274.98330966992813L137.8642096838831,318.8486224006523L139.61737641941548,315.2809406681494L141.43546743757233,318.41767023910177L143.22981877567997,316.55458748340607L145.02866088592302,314.6966304291378L146.79537670319732,313.05570701306516L148.57905765964986,313.1113883040168L150.40507469871238,312.9177469963377L152.13354218749998,312.90626532652163L153.94029112731482,311.7320408468897L155.71664099421295,311.5571185810999L157.99256047417535,310.639187801968L159.77789188534433,309.8103133114902L161.5717058661024,308.6785811185837L163.31358809729454,307.68039576031947L165.12361875520833,305.25841677730733L166.93719980989584,305.59034970673645L168.7266765491898,304.05219056389546L170.52260157667823,303.1897339766676L172.34293798090278,302.1850176020102L174.08171121600117,301.63720857013357L175.84810078059897,301.18797128850764L178.1042148039641,298.99571692401713L179.8793556168258,297.50376059250397L181.6988284110243,296.4623433080586L183.45719599804684,295.99005886099553L185.24438896860534,295.4657728292725L187.012544135923,294.2115957899527L188.79351911429396,293.01454357125544L190.57599101671008,291.58287525177L192.3351070657552,290.62361218712545L194.08679606857638,289.0490923686461L216.76596300578703,270.0898303768852L218.59629809497974,256.5854586796327L220.39431497786455,253.52001309394836L222.11909773054106,249.9940236048265L223.8980768101852,248.27274945649236L225.70578531669557,247.22674640742218L227.5148755992477,247.24173643372276L229.3136409441551,239.88435539332306L231.07252669719327,237.17006596651947L232.8782968789786,237.34666228294373L234.61975690082465,232.98501827500084L236.90208628631362,228.12988682226703L238.67774526519096,224.96543309905314L240.43494218084493,223.63932858813894L242.20167718945314,223.97661404176193L244.0038010177951,224.54868078231814L245.78788499225982,222.44585622440687L247.60753050846353,221.35108134963298L249.3696979796007,218.86915705420756L251.1749883780382,218.61625953154132L252.95243215096932,217.60236176577482L254.76192545153356,214.81327999721876L256.9945684735243,214.35636032711378L258.80724753551794,212.47957944869998L260.5739249701244,211.19147268208593L262.3357278059172,211.09067461707377L264.1355870568576,209.6151037649675L265.9089430756655,208.31223379481924L267.6898220973669,205.78855438665911L269.4155260340712,204.6798249808225L271.17425825643807,204.17844804850492L272.97728407747394,203.47205292094839L275.2290992420428,201.6892358389768L276.99967251743345,201.42942515286535L278.7778455610532,200.47821922735736L280.52373878103293,199.6738169410012L282.33238766290503,199.7267159548673L284.1096395224971,198.74591458927503L285.9089230334201,197.4187252738259L287.7330785130931,195.29505274512553L289.50015896571176,194.31925134225327L291.2657041116174,193.97762667049062L293.07498630750865,192.6644214716825L295.299434629919,192.2173735228452L297.11290053660304,191.68637156486514L298.84633858087386,190.68989970467308L300.6481169652054,190.25071165778422L302.44406118402776,189.52987876805395L304.24708700506363,189.15462515570903L306.0073737254774,188.63384994593537L307.75854456228296,188.32940448414197L309.52445434353297,187.56899595260623L311.34736238650174,186.74466284838593L313.55256180099826,185.85609945383942L315.3657398376736,185.2284709973769L317.08614696621817,184.793050180782L318.87303287543403,184.1114674914967L320.63928810069444,183.2005472616716L322.388060020761,182.82716740261426L324.18325577756076,182.08535833792254L325.92156842064526,181.73082449219447L327.6352777736545,180.5610600384799L329.46772390957756,179.73569143902176L331.270845687283,179.22392996874723L333.10427058123554,178.39511958035558L334.85634341073495,177.803792628375L336.62259863599536,177.14859041300687L338.3955516367911,176.67497461492368L340.18825252018223,175.70268403400075L341.9566955575087,175.22798343138263L343.752428671658,174.72800688310105L345.53870045818866,173.77680095759305L347.2953216338252,173.32458539442584L349.05190442679395,172.89679765701297L350.8408246174045,171.97883605957034L353.07839981221065,171.52853369712832L354.8657271221065,171.05358654802498L356.6708831812066,170.52095738324255L358.42654479014755,170.0148270346902L360.2220092256221,169.34479258277202L361.98718973618344,168.74865304340017L363.8030161769386,168.3165951208635L365.593279760923,167.67738884145567L367.3646206896701,167.1409431370822L369.123794312717,166.3998244025491L371.3989077566551,166.00745060227138L373.20350726707176,165.63812396743083L374.9921395876736,165.11867024681789L376.7497970953414,164.435913996263L378.57237888563367,163.8395870815624L380.3359857068142,163.54937228289518L382.12175851866317,162.9491203481501L383.8888773539496,162.4560076540167L385.6450571289062,161.95263862609866L387.4283734500145,161.43988110802394L389.23368303978583,161.00755691528323L391.42289607313364,160.37113168022853L393.2518877689525,159.89255536686295L395.0252245964265,159.48847553946757L396.81184182696757,158.89751347628507L398.5869442571614,158.53704279119322L400.3841742953559,158.10191783038053L402.12001125636573,157.71166432987565L403.89791562131074,157.1226746385748L405.70932805526616,156.60526232285935L407.44476199826386,156.3639820705761L409.7167856374421,155.9318156675859L411.4622758394097,155.42724349282008L413.2540171561053,155.0378775596619L415.0529744143518,154.7324360500683L416.81086221802656,154.31283365596428L418.5895342363281,153.8695825229992L420.36112465241604,153.44329378821635L422.1237335242332,153.0512059818615L423.89945007711225,152.65207680788907L425.7125705397859,152.1659857576544L427.4919526374421,151.57145370136612L429.7251905907841,151.1130744760687L431.52942546585643,150.7608285817233L433.3437549825665,150.44215245680377L435.0998771835214,150.1628251509233L436.92861939199935,149.83432661403313L438.68652638700803,149.54858909953728L440.48563717592594,149.14356253363871L442.2494742931134,148.6770571361889L444.0665097879051,148.45423828471795L445.81453324594906,147.98793012445626L447.66780197916665,147.68958915363663L449.4481436435185,147.3266924511303L451.2497876885127,147.01409123160624L453.0771289296151,146.58354217355904L454.8409660468026,146.13814115524295L456.59131165625,145.62668540261012L458.3667403391203,145.45136126604947L460.13147944900174,145.13325712897563L461.94258482161456,144.93142431432554L463.7170155551215,144.723398251967L465.5092750378327,144.40446571870285L467.7633739711371,144.23014749180192L469.5738844123987,143.75721216201785L471.3557805747974,143.45536036924884L473.1554095297309,143.13124049793595L474.8975604395977,142.73205215280709L476.6998761812789,142.63088919899684L478.4521984981192,142.38706458698624L480.22044962210646,142.08073551004586L482.01923415834773,141.72276973724368L483.7309476126302,141.450562693856L485.93225118634257,141.01926413449377L487.76110854282405,140.68329030817208L489.5620808911313,140.36569898778745L491.3410599707754,140.00532692128965L493.11877242238137,139.73651235753843L494.90343213686344,139.40036101774737L496.6876888333333,139.1867531429638L498.4665527649739,138.93363865939054L500.23466954962385,138.6336014487527L502.00480142433446,138.3729130571539L503.87148489995656,138.06770823218608L506.0952615256799,137.6834507422014L507.86859835315386,137.35002127560705L509.6503409848813,137.14629498395055L511.455593000651,136.97572426362473L513.2856594111689,136.7802622101524L515.0558104772135,136.4367736469616L516.9061621276765,136.160148490559L518.6019659661458,136.01070187308574L520.3992727696759,135.71721293709498L522.2153486977719,135.5396797440269L524.4630569168836,135.32830064946958L526.2473136133535,135.02416090531784L528.0394195653935,134.72609606656164L529.7726081223235,134.50207406824288L531.574847098669,134.16540991176262L533.3758002556424,133.8584102283825L535.1775594486401,133.43409386548132L536.9649827152053,133.22415460239762L538.7635561467737,133.0534655397589L540.5468148938802,132.79597239060837L542.3557708370948,132.497493353757L544.6162796759259,132.2914791107178L546.4067927472511,132.08603685552427L548.185368808883,131.9488386674361L550.03573965068,131.7360591888428L551.8216084191985,131.40689004551285L553.6025066322338,131.22304526242345L555.3649619733795,131.03486126119444L557.1745896132812,130.88569077578458L558.9544514942853,130.61788212169304L560.7555773732639,130.41821891611275L563.0129388333334,130.16248117793694L564.807520467448,130.06238330494278L566.6041555742911,129.96747276999736L568.3652291393952,129.7214588251981L570.176353703342,129.54692363739017L571.9818743977864,129.40988323905253L573.7559596872829,129.19272509488195L575.5406769757667,129.08818938515407L577.3166046333188,128.86460130864927L579.0988270483941,128.7904204021801L580.902946775463,128.57781843705612L583.1550881927083,128.36912176825786L584.9364086150897,128.1822198087519L586.712489803313,128.06239821694118L588.4986080591725,127.89141329852018L590.303226760923,127.70752906799319L592.0704607442129,127.51695849678737L593.8275808945311,127.35626935958865L595.6621572685185,127.12560046802872L597.4081080625,126.98143980719829L599.1888143621962,126.77290092815056L760.9180618883825,89.85893552953547L762.790982547526,80.2150429378857L764.5012182690972,81.25525214455348L766.2893708063513,84.93922862139618L768.0576795043402,83.30237692052668L769.7930558733361,81.74712224440145L771.6186315117187,82.25877523422247L773.342608228371,82.90007222782486L775.110878543692,82.31802528554744L776.930466485894,81.982130354101L778.6456151889467,82.09392439235347L781.004901823423,83.60403147610754L782.7771255535301,83.0750018900091L784.5409434793836,83.16979408264166L786.3424531850404,82.44110129096293L788.0632825229311,82.58390101519501L789.798236682581,82.22589579495519L791.6058492324219,81.52428366921168L793.3560413111978,83.0302290482955L795.1382637262732,82.60971936312592L796.9040199768518,83.84724465283483L798.6558817016781,83.2713515108282L801.0023485251013,82.85993446003312L802.7242525776909,83.43732660466975L804.5557967209201,83.69000716642904L806.2984466054687,82.91697545485067L808.0688855415219,82.85026983781296L809.8748092539786,82.99665927886969L811.6568013730468,83.46778002652258L813.405861163122,83.54361772537237L815.1393567813947,83.61349886113948L816.9208691171151,84.044876315377L819.2545545121527,83.62769993868744L821.0447989048032,83.9423327012496L822.83845935489,83.45616275613958L824.626170491464,83.64872542294592L826.4143038373843,83.76292575489396L828.1933212996961,83.96884137933904L829.9739892167245,84.03966925360942L831.7486118635705,83.80730412223124L833.5123722154225,83.63482020118022L835.3092951922744,83.52835156700831L837.0563590836226,83.47401272166866L839.3333148956162,83.55543223294347L841.1061143657408,83.81178140640264L842.865192032118,83.90846707604152L844.6101064940682,84.2024491050027L846.3885482163629,84.10118753259832L848.1500056081452,84.16799176823014L849.9262787097076,83.901859630238L851.6892522168691,83.95274682478475L853.507976549045,83.89077490026301L855.2646552986835,83.79057840867478L857.542474720703,84.1670253060081L859.3160994181858,84.16594050147319L861.07452457921,84.1512068835172L862.8468826486545,83.8437141071667L864.611813671875,83.82335922934794L866.3721387749565,83.75144655054265L868.1539005980179,83.38425007733434L869.9051482001591,83.15034649588847L871.7196504388744,83.33533525466925L873.4896671655815,83.03103772076696L875.2122045321903,83.08527794751257L877.512497006221,83.08427203785294L879.2570852154946,82.9484150626443L881.1128872047888,83.00867102362895L882.8678963083767,83.04318753155798L884.6416169625289,83.00297086889094L886.4005602895687,83.05111646652227L888.1712103302951,82.78859376907354L889.9265840692275,82.6302912018516L891.6851243782552,82.31114170768046L893.4489998781104,82.03926996751267L895.7299091048899,81.86702273108745L897.5286936411313,81.80800936438823L899.3227187265624,81.70617580413824L901.1214073061343,81.67045614936137L902.8939572889177,81.41471841118556L904.670729365162,81.55473709106451L906.4153559571034,81.50219310413712L908.1939704014032,81.4161976900968L909.9860187794415,81.40318003567785L911.7463822651908,81.21272780678493L913.5039246248552,81.09190030531454L915.7596548215422,81.17225473577327L917.5002896160299,81.13975004716355L919.2874442039207,81.13460215655243L921.0714897957175,81.0729063640942L922.829876574074,81.19126840071249L924.5854806090132,80.9215465458957L926.3992727683737,80.92900211160833L928.1325188993056,80.75048273259944L929.8919036270254,80.74772141196513L931.6757764968171,80.84488045085567L933.3896009978298,80.8593379367482L935.6781867581742,80.90699044140905L937.4619828626302,80.96876512874263L939.223785698423,81.10856684771454L940.9978901792534,80.97892284393316L942.7824347457321,80.9476015784524L944.5762103438223,80.76785932887691L946.3256923432436,80.69249499927872L948.1155912918837,80.48346302726054L949.8888897366897,80.30431248924953L951.6072817751736,80.46689510345465L953.9631139695457,80.34474611282354L955.7007165332755,80.28056513179439L957.4711554693286,80.19070386886602L959.2630311253616,80.1726172187112L961.013798944155,80.03965963016861L962.8110097910156,79.91611025550151L964.5868031092302,80.04311128096151L966.3461302629483,79.88220518285578L968.1151682316261,79.80727477507162L969.8700621872107,79.89500587636775L971.6632428539497,79.85058806159282L973.4938658131509,79.80830040845007L975.283764761791,79.84670248898595L977.0144584453124,79.80968106876725L978.7884669694735,79.84772812236446L980.5423245930266,79.80273831974381L982.2931883684895,79.79691982269293L984.071649282118,79.81161399321127L985.8620855881076,79.81321161443537L987.6154634283131,79.64924833991313L989.3962273020109,79.72867575558752L991.1064438322481,79.6243372830478L993.3993284513889,79.58559989929205L995.1785378270398,79.47120233015585L996.9333166346208,79.48633042248815L998.7232923485966,79.39560131593186L1000.5071076443865,79.31424097581345L1002.3071204259983,79.21366973356771L1004.0381211708623,79.2403164776889L1005.8179638605324,79.34005932374436L1007.5927016553818,79.24149990081793L1009.3397655467303,79.14881814609879L1011.6892837922453,79.08743793314153L1013.448035205946,79.02489402077418L1015.2194529000288,79.06158013777303L1016.9493213561921,78.97505218332464L1018.7461483763743,78.96461833607071L1020.5239375933158,78.99440115148371L1022.2884655985243,78.90081210569906L1024.073413183015,78.9710482684049L1025.8323757013889,78.9063544706865L1027.5823758668257,78.81633541800761L1029.3564227736545,78.87175906788224L1031.6606302798032,78.91509207812226L1033.3645904351852,78.96945064718074L1035.1987637911602,78.99201458150691L1036.9710067126011,78.95866177298808L1038.7859695433303,78.86120687831539L1040.5034403977863,78.85150280865759L1042.2537092418982,78.76361391761088L1044.0618975317564,78.7341269579801L1045.8112260005064,78.73509342020208L1047.6150578575666,78.76749949021774L1049.9248884245515,78.70191812515264L1051.7281637329284,78.67966977032751L1053.4663228453412,78.70663209394979L1055.2396788641493,78.66481781005865L1057.0227648892505,78.58787558295512L1058.8035287629484,78.54535124518657L1060.5856744126881,78.50825093009257L1062.3725603219038,78.4403618899259L1064.12883605353,78.35580630735922L1065.8885470339264,78.28192125667232L1067.6689078896122,78.17113312807953L1069.9400295360967,78.11206059022385L1071.7356858849103,78.05760340257126L1073.503591564887,78.00971421328461L1075.2881745140335,77.91488257321447L1077.0497662451533,77.8609579259699L1078.7762186438802,77.71149158477789L1080.5395184037181,77.66374046152288L1082.2894418038195,77.640505920757L1084.0576737364727,77.54522063515407L1085.8597016081453,77.50447143207901L1088.099963589699,77.47719352895564L1089.9449608580005,77.39253932779485L1091.7071283291377,77.48794295571071L1093.4781621965421,77.3343740810048L1095.213768861545,77.2415937076916L1096.9575510347945,77.20246184955948L1098.708549149595,77.09159482609147L1100.4778749882812,77.05828146501023L1102.3177673617622,77.01694055037069L1104.0524528427372,77.03561891209L1105.7838182229455,77.05991853367203L1108.098772876085,76.96893301877111L1109.8556435390624,76.9148308580572L1111.6811616034433,76.83836200020534L1113.4295880794994,76.77209030498165L1115.1699541953124,76.74147909337825L1116.9367659692564,76.7054438591004L1118.7117340601128,76.58347238193863L1120.5248929054542,76.48753621361476L1122.2549340836226,76.40518968755549L1124.0281365717592,76.38227072629064L1126.3314228938802,76.2869262695313L1128.1290751414208,76.28769549456513L1129.9100501197915,76.34528875350958L1131.6423558753618,76.25288313085383L1133.3875390159865,76.27933263778692L1135.1762672932582,76.23237046328461L1136.9901170266203,76.27179817719895L1138.7393879213685,76.24625596133149L1140.5097692834202,76.26586133783513L1142.2664480330584,76.20497421784836L1144.0387485285012,76.14379124207932L1146.3507477162182,76.1283672939648L1148.1476515017362,76.0565926811912L1149.8704959296874,75.99892052737152L1151.6586676582754,75.87247176603842L1153.410721296441,75.82911903207952L1155.16068307921,75.82519401203507L1156.9279362538339,75.77146660197872L1158.6672852289496,75.63799619674688L1160.4466097526042,75.54635979912501L1162.1864768937355,75.4559857195074L1163.9766061383823,75.4069328308106L1166.2713715082466,75.3807989033786L1168.0209878470052,75.27880755337804L1169.83558604239,75.20316709171647L1171.5754148008534,75.22642135620123L1173.3511313537326,75.23038582368332L1175.15166230136,75.14231941916728L1176.882221645544,75.1126943935048L1178.6698943994502,75.05496306852865L1180.464437650897,75.04527872258967L1182.2058784814092,75.04168900576508L1184.5299298268228,75.01044663515961L1186.2943810666955,75.03261609510946L1188.1226434918258,75.00770503824407L1189.8893017350983,74.91595029830938L1191.6350606157407,74.80320952155375L1193.4568363700087,74.72449215975678L1195.2145322603442,74.6610409563238L1196.9899417518807,74.55745198509914L1198.7796871698495,74.5385172150352L1200.5452323157551,74.4686952504245L1202.3221771140045,74.40632885152644L1204.152147567853,74.36386368491435L1205.928766113426,74.31982062079692L1207.7254587942707,74.35597419738775L1209.5010985818142,74.35826214877045L1211.264187236979,74.39465240998703L1213.0168549978298,74.3578479506753L1214.772209545428,74.33171402324336L1216.593793386357,74.27082690325653L1218.3767834547887,74.15753386237407L1220.1498132209201,74.11313577131796L1222.434080931134,74.13272142410284L1224.2344391567563,74.08203146674418L1226.0099446049624,74.12183393131608L1227.7838763637876,74.09844160079962L1229.5730844244067,74.05802770094442L1231.3253491672453,74.00457642295146L1233.1124269898003,74.05132163654679L1234.9024602777777,74.00465531782675L1236.6749910692274,73.93276236274028L1238.4635850071613,73.87974500656134L1240.2194961034431,73.8461555134167L1242.5470594629628,73.77104759216314L1244.3166155976562,73.78440054980194L1246.054851475405,73.74499255960637L1247.8803887311196,73.67739937522197L1249.6230386156683,73.66396752270788L1251.4058751534287,73.61154187809342L1253.2156947066696,73.59193650158971L1255.0040583485966,73.54714393615728L1256.7542504273727,73.51880095221782L1258.5170320211948,73.51337692954326L1452.9383138485243,75.5500284108249L1453.579573079861,78.664778362621L1454.1541808085215,72.45831576260656L1454.6872009165943,70.81256866455084L1455.2889260000723,69.07185186039322L1455.833767969835,69.72210342233831L1456.4078191498118,70.33618168397385L1456.9677455080293,67.05685702237218L1457.5051028575665,68.36398731578487L1458.0773308608218,69.01078722693705L1458.6052844567419,68.61759489232844L1459.1821567628037,68.98096496408635L1459.7396074389467,68.6396262862466L1460.2898805562065,69.00816397233444L1460.8651791728876,69.54658204858953L1461.4050122044994,69.5221443609758L1461.9899640621384,70.18062071366745L1462.552231763093,68.64763411608612L1463.0895315386283,68.35325761274862L1463.669109822772,68.41436169364238L1464.2179243986545,68.28501354564327L1464.8119921399016,68.38929284702652L1465.3946794201388,68.61021822149104L1465.937717404514,68.49641236391938L1466.5445665741463,68.26410640369767L1467.0862611651473,68.89625159176916L1467.6871418299334,68.93039334904068L1468.279520733796,68.23809081857854L1468.8394662833477,68.16493554548788L1469.4642017761862,68.25889934193009L1470.0253947624421,68.37081172249538L1470.6395558302952,67.95383258299398L1471.2835402310473,67.95919743451208L1471.9115958246527,68.67925123734909L1480.7767830379773,63.81818294525152L1481.7245470632233,59.07076272097504L1482.7096958069299,59.22934142026037L1483.6484207139033,61.701236204667566L1484.6748500168546,60.647299289703426L1485.662915843316,63.85011564601558L1486.6648953868632,63.759386539459285L1487.770891960214,62.97528982162481L1488.746387462963,63.016808249733685L1489.7768469460357,62.5294548814947L1490.867413686921,63.11572269959885L1491.9149726485098,63.75672383741903L1493.0330981448928,63.08169928464025L1494.0380139625288,61.955691901120304L1495.1638351838108,61.984547701748966L1496.1432649100116,62.124349420720876L1497.1743385157697,61.865436163815616L1498.2770725623552,61.468989415602266L1499.280088437934,62.104448188435015L1532.2172728384692,68.78254435279155L1533.1624076509693,73.4939096190713L1534.12569746535,68.06282585317439L1535.0565923080871,71.69540231878108L1536.0204770538194,68.01053827459162L1536.8824174338106,68.9499198306691L1537.8706175996094,68.43801043250346L1538.827842952474,68.15284490585333L1539.8023788885273,66.14917148243302L1540.7949738697916,64.32610815221614L1541.76271607364,64.31847507303411L1542.8636845175058,64.80967456644231L1543.8678518731192,65.70418466221207L1544.8460725452835,64.95856891978877L1545.8654010546875,65.15665422786373L1546.8444469542098,66.232938116247L1547.9491960908563,65.40617899461228L1548.982515082682,65.02399249510336L1550.0556560923753,65.05655635486954L1551.0767693958333,65.17906037243932L1552.5482841148726,65.4896497726441L1553.764554092882,65.46586296775126L1554.964281141059,65.33462134274572L1556.3027039594183,65.01683278517294L1557.6507032533998,64.85829353332525L1559.0088355716869,65.36211620677608L1560.2408424435039,65.43980793519455" style="fill: none;" fill="none"></path></g></g></g></g></g></g><g transform="translate(68, 364)" clip-path="url(#clip_1)"><clipPath id="clip_1"><rect width="1658" height="35"></rect></clipPath><g><g visibility="inherit"><g><g transform="translate(103.633203125,0)" style="visibility: inherit;"><text transform="translate(0,15)" style="text-anchor: middle; font-family: &quot;Helvetica Neue&quot;, sans-serif; font-size: 12px; font-weight: 200;" fill="rgb(50, 49, 63)" stroke="none" stroke-width="1px">10 PM</text></g><g transform="translate(310.89960937499995,0)" style="visibility: inherit;"><text transform="translate(0,15)" style="text-anchor: middle; font-family: &quot;Helvetica Neue&quot;, sans-serif; font-size: 12px; font-weight: 200;" fill="rgb(50, 49, 63)" stroke="none" stroke-width="1px">01 AM</text></g><g transform="translate(518.166015625,0)" style="visibility: inherit;"><text transform="translate(0,15)" style="text-anchor: middle; font-family: &quot;Helvetica Neue&quot;, sans-serif; font-size: 12px; font-weight: 200;" fill="rgb(50, 49, 63)" stroke="none" stroke-width="1px">04 AM</text></g><g transform="translate(725.4324218749999,0)" style="visibility: inherit;"><text transform="translate(0,15)" style="text-anchor: middle; font-family: &quot;Helvetica Neue&quot;, sans-serif; font-size: 12px; font-weight: 200;" fill="rgb(50, 49, 63)" stroke="none" stroke-width="1px">07 AM</text></g><g transform="translate(932.698828125,0)" style="visibility: inherit;"><text transform="translate(0,15)" style="text-anchor: middle; font-family: &quot;Helvetica Neue&quot;, sans-serif; font-size: 12px; font-weight: 200;" fill="rgb(50, 49, 63)" stroke="none" stroke-width="1px">10 AM</text></g><g transform="translate(1139.965234375,0)" style="visibility: inherit;"><text transform="translate(0,15)" style="text-anchor: middle; font-family: &quot;Helvetica Neue&quot;, sans-serif; font-size: 12px; font-weight: 200;" fill="rgb(50, 49, 63)" stroke="none" stroke-width="1px">01 PM</text></g><g transform="translate(1347.231640625,0)" style="visibility: inherit;"><text transform="translate(0,15)" style="text-anchor: middle; font-family: &quot;Helvetica Neue&quot;, sans-serif; font-size: 12px; font-weight: 200;" fill="rgb(50, 49, 63)" stroke="none" stroke-width="1px">04 PM</text></g><g transform="translate(1554.498046875,0)" style="visibility: inherit;"><text transform="translate(0,15)" style="text-anchor: middle; font-family: &quot;Helvetica Neue&quot;, sans-serif; font-size: 12px; font-weight: 200;" fill="rgb(50, 49, 63)" stroke="none" stroke-width="1px">07 PM</text></g></g><g><line x1="0" y1="0" x2="0" y2="18" fill="rgb(0, 0, 0)" stroke="rgb(204, 204, 204)" stroke-width="1px"></line><line x1="207.26640625" y1="0" x2="207.26640625" y2="18" fill="rgb(0, 0, 0)" stroke="rgb(204, 204, 204)" stroke-width="1px"></line><line x1="414.5328125" y1="0" x2="414.5328125" y2="18" fill="rgb(0, 0, 0)" stroke="rgb(204, 204, 204)" stroke-width="1px"></line><line x1="621.7992187499999" y1="0" x2="621.7992187499999" y2="18" fill="rgb(0, 0, 0)" stroke="rgb(204, 204, 204)" stroke-width="1px"></line><line x1="829.065625" y1="0" x2="829.065625" y2="18" fill="rgb(0, 0, 0)" stroke="rgb(204, 204, 204)" stroke-width="1px"></line><line x1="1036.33203125" y1="0" x2="1036.33203125" y2="18" fill="rgb(0, 0, 0)" stroke="rgb(204, 204, 204)" stroke-width="1px"></line><line x1="1243.5984374999998" y1="0" x2="1243.5984374999998" y2="18" fill="rgb(0, 0, 0)" stroke="rgb(204, 204, 204)" stroke-width="1px"></line><line x1="1450.8648437499999" y1="0" x2="1450.8648437499999" y2="18" fill="rgb(0, 0, 0)" stroke="rgb(204, 204, 204)" stroke-width="1px"></line><line x1="1658.13125" y1="0" x2="1658.13125" y2="18" fill="rgb(0, 0, 0)" stroke="rgb(204, 204, 204)" stroke-width="1px"></line></g><line x1="0" y1="0" x2="1658.13125" y2="0" style="visibility: inherit;" fill="rgb(0, 0, 0)" stroke="rgb(204, 204, 204)" stroke-width="1px"></line></g><g visibility="inherit"><g><g transform="translate(103.633203125,0)" style="visibility: inherit;"><text transform="translate(0,33)" style="text-anchor: middle; font-family: &quot;Helvetica Neue&quot;, sans-serif; font-size: 12px; font-weight: 200;" fill="rgb(50, 49, 63)" stroke="none" stroke-width="1px">December 15, 2018</text></g><g transform="translate(310.89960937499995,0)" style="visibility: inherit;"><text transform="translate(0,33)" style="text-anchor: middle; font-family: &quot;Helvetica Neue&quot;, sans-serif; font-size: 12px; font-weight: 200;" fill="rgb(50, 49, 63)" stroke="none" stroke-width="1px">December 16, 2018</text></g><g transform="translate(518.166015625,0)" style="visibility: inherit;"><text transform="translate(0,33)" style="text-anchor: middle; font-family: &quot;Helvetica Neue&quot;, sans-serif; font-size: 12px; font-weight: 200;" fill="rgb(50, 49, 63)" stroke="none" stroke-width="1px">December 16, 2018</text></g><g transform="translate(725.4324218749999,0)" style="visibility: inherit;"><text transform="translate(0,33)" style="text-anchor: middle; font-family: &quot;Helvetica Neue&quot;, sans-serif; font-size: 12px; font-weight: 200;" fill="rgb(50, 49, 63)" stroke="none" stroke-width="1px">December 16, 2018</text></g><g transform="translate(932.698828125,0)" style="visibility: inherit;"><text transform="translate(0,33)" style="text-anchor: middle; font-family: &quot;Helvetica Neue&quot;, sans-serif; font-size: 12px; font-weight: 200;" fill="rgb(50, 49, 63)" stroke="none" stroke-width="1px">December 16, 2018</text></g><g transform="translate(1139.965234375,0)" style="visibility: inherit;"><text transform="translate(0,33)" style="text-anchor: middle; font-family: &quot;Helvetica Neue&quot;, sans-serif; font-size: 12px; font-weight: 200;" fill="rgb(50, 49, 63)" stroke="none" stroke-width="1px">December 16, 2018</text></g><g transform="translate(1347.231640625,0)" style="visibility: inherit;"><text transform="translate(0,33)" style="text-anchor: middle; font-family: &quot;Helvetica Neue&quot;, sans-serif; font-size: 12px; font-weight: 200;" fill="rgb(50, 49, 63)" stroke="none" stroke-width="1px">December 16, 2018</text></g><g transform="translate(1554.498046875,0)" style="visibility: inherit;"><text transform="translate(0,33)" style="text-anchor: middle; font-family: &quot;Helvetica Neue&quot;, sans-serif; font-size: 12px; font-weight: 200;" fill="rgb(50, 49, 63)" stroke="none" stroke-width="1px">December 16, 2018</text></g></g><g><line x1="0" y1="18" x2="0" y2="36" fill="rgb(0, 0, 0)" stroke="rgb(204, 204, 204)" stroke-width="1px"></line><line x1="207.26640625" y1="18" x2="207.26640625" y2="36" fill="rgb(0, 0, 0)" stroke="rgb(204, 204, 204)" stroke-width="1px"></line><line x1="414.5328125" y1="18" x2="414.5328125" y2="36" fill="rgb(0, 0, 0)" stroke="rgb(204, 204, 204)" stroke-width="1px"></line><line x1="621.7992187499999" y1="18" x2="621.7992187499999" y2="36" fill="rgb(0, 0, 0)" stroke="rgb(204, 204, 204)" stroke-width="1px"></line><line x1="829.065625" y1="18" x2="829.065625" y2="36" fill="rgb(0, 0, 0)" stroke="rgb(204, 204, 204)" stroke-width="1px"></line><line x1="1036.33203125" y1="18" x2="1036.33203125" y2="36" fill="rgb(0, 0, 0)" stroke="rgb(204, 204, 204)" stroke-width="1px"></line><line x1="1243.5984374999998" y1="18" x2="1243.5984374999998" y2="36" fill="rgb(0, 0, 0)" stroke="rgb(204, 204, 204)" stroke-width="1px"></line><line x1="1450.8648437499999" y1="18" x2="1450.8648437499999" y2="36" fill="rgb(0, 0, 0)" stroke="rgb(204, 204, 204)" stroke-width="1px"></line><line x1="1658.13125" y1="18" x2="1658.13125" y2="36" fill="rgb(0, 0, 0)" stroke="rgb(204, 204, 204)" stroke-width="1px"></line></g><line x1="0" y1="18" x2="1658.13125" y2="18" style="visibility: inherit;" fill="rgb(0, 0, 0)" stroke="rgb(204, 204, 204)" stroke-width="1px"></line></g></g></g></g></g></svg>